<?xml version="1.0" standalone="no"?>
<!DOCTYPE svg PUBLIC "-//W3C//DTD SVG 1.1//EN" "http://www.w3.org/Graphics/SVG/1.1/DTD/svg11.dtd" >
<svg xmlns="http://www.w3.org/2000/svg" xmlns:xlink="http://www.w3.org/1999/xlink" version="1.1">
<metadata>
Created by FontForge 20161003 at Mon Mar 19 08:42:03 2018
 By www-data
Copyright (c) 2016 by Zetafonts. All rights reserved.
</metadata>
<defs>
<font id="BubbleboddyNeue" horiz-adv-x="1174" >
  <font-face 
    font-family="BubbleboddyNeue"
    font-weight="400"
    font-stretch="normal"
    units-per-em="2000"
    panose-1="0 0 0 0 0 0 0 0 0 0"
    ascent="1600"
    descent="-400"
    x-height="958"
    cap-height="1284"
    bbox="-173 -539 2064 1737.2"
    underline-thickness="100"
    underline-position="-300"
    unicode-range="U+000D-2265"
  />
<missing-glyph horiz-adv-x="459" 
 />
    <glyph glyph-name=".notdef" horiz-adv-x="459" 
 />
    <glyph glyph-name=".null" horiz-adv-x="0" 
 />
    <glyph glyph-name="nonmarkingreturn" unicode="&#xd;" horiz-adv-x="459" 
 />
    <glyph glyph-name="NULL" horiz-adv-x="0" 
 />
    <glyph glyph-name="NULL" horiz-adv-x="0" 
 />
    <glyph glyph-name="space" unicode=" " horiz-adv-x="459" 
 />
    <glyph glyph-name="exclam" unicode="!" horiz-adv-x="461" 
d="M230 275q-24 0 -45.5 9t-37.5 25.5t-25.5 39.5t-9.5 52v791q0 29 9 53t25 41.5t37.5 27t46.5 9.5q52 0 85 -36.5t33 -94.5v-791q0 -29 -9.5 -52t-25.5 -39.5t-37.5 -25.5t-45.5 -9zM356 19q0 -26 -10 -49t-27 -40t-40 -26.5t-49 -9.5q-27 0 -50 9.5t-40 26.5t-27 40
t-10 49q0 27 10 49.5t27 39t40 26t50 9.5q26 0 49 -9.5t40 -26t27 -39t10 -49.5z" />
    <glyph glyph-name="quotedbl" unicode="&#x22;" horiz-adv-x="694" 
d="M191 1289q27 0 49 -11.5t37.5 -30.5t24 -43t8.5 -49l-11 -123q-3 -27 -9 -53t-18 -46.5t-31.5 -33.5t-49.5 -13q-31 0 -50 13t-30.5 34t-17.5 47t-9 52l-12 121q0 27 8 51.5t23 43t37 30t51 11.5zM510 1289q27 0 49 -11.5t37.5 -30.5t24 -43t8.5 -49l-11 -123
q-3 -27 -9 -53t-18 -46.5t-31.5 -33.5t-49.5 -13q-31 0 -50 12.5t-30.5 32.5t-17.5 46.5t-9 54.5l-10 120q0 26 7.5 51t22 44t36.5 30.5t51 11.5z" />
    <glyph glyph-name="numbersign" unicode="#" horiz-adv-x="1399" 
d="M492 1209q6 23 20.5 41.5t34 30t42.5 15.5t47 -2t42.5 -20.5t30.5 -34t16 -42t-2 -46.5l-241 -1074q-6 -23 -20.5 -41.5t-34 -29.5t-42.5 -15t-47 2t-42.5 20.5t-30.5 33.5t-16 42t2 46zM917 1217q7 23 21.5 40.5t34 28t42.5 13t47 -4.5q23 -6 41 -21t29 -34.5t14.5 -42
t-3.5 -45.5l-240 -1080q-7 -23 -22 -40.5t-35 -27.5t-43 -12.5t-46 3.5q-24 7 -42 21.5t-29 33.5t-14 42t4 46zM1251 991q24 0 45 -9t36.5 -25t24.5 -37.5t9 -46.5q0 -24 -9 -45.5t-24.5 -37.5t-36.5 -25.5t-45 -9.5h-1008q-24 0 -45 9.5t-36.5 25.5t-24.5 37.5t-9 45.5
q0 25 9 46.5t24.5 37.5t36.5 25t45 9h1008zM1157 546q24 0 45 -9t37 -25t25 -37.5t9 -45.5t-9 -46t-25 -38t-37 -25.5t-45 -9.5h-1008q-24 0 -45 9.5t-36.5 25.5t-24.5 38t-9 46t9 45.5t24.5 37.5t36.5 25t45 9h1008z" />
    <glyph glyph-name="dollar" unicode="$" horiz-adv-x="1005" 
d="M390 1144v153q0 24 9.5 45.5t25.5 37.5t37.5 25.5t46.5 9.5q29 0 51.5 -11t37.5 -29.5t23 -43t8 -51.5v-143zM628 80v-127q0 -24 -9.5 -45t-25.5 -36.5t-37.5 -24.5t-45.5 -9t-45 9t-37 24.5t-25 36.5t-9 45v134zM796 901q-28 -2 -50.5 8.5t-50.5 42.5q-24 25 -45 46.5
t-43.5 37t-49 24t-61.5 8.5q-31 0 -62 -9.5t-55.5 -27t-40 -43t-15.5 -56.5q0 -45 32 -77.5t81 -55.5q93 -49 185 -94.5t164.5 -96.5t117.5 -112.5t45 -143.5q0 -59 -18.5 -110t-51 -92.5t-76 -73.5t-92.5 -53.5t-101.5 -32.5t-103.5 -11q-102 0 -179 24t-131 62t-85 85
t-40 94q-3 20 2 41t16 37q12 19 35 32t55 13q26 0 50.5 -12t44.5 -39q12 -24 33 -45t48.5 -36.5t60.5 -24.5t70 -9t75 10t68.5 29t49.5 47t19 64q0 41 -26 72t-68.5 56.5t-97 48t-111.5 47t-111.5 53t-97 66.5t-68.5 88t-26 117q0 78 31 145t86 115.5t131.5 76.5t168.5 28
q57 0 114 -14t108 -40t93 -62.5t71 -81.5q6 -13 10 -25.5t4 -27.5q1 -29 -7.5 -49.5t-24.5 -34.5t-36.5 -21t-43.5 -7z" />
    <glyph glyph-name="percent" unicode="%" horiz-adv-x="1368" 
d="M42 1003q0 58 21.5 109t59 88.5t88 59.5t108.5 22t109 -22t89 -59.5t60 -88.5t22 -109t-22 -109t-60 -88.5t-89 -59t-109 -21.5t-108.5 21.5t-88 59t-59 88.5t-21.5 109zM200 1003q0 -56 32.5 -89.5t85.5 -33.5q54 0 87.5 33.5t33.5 89.5q0 54 -33.5 89t-87.5 35
q-53 0 -85.5 -35t-32.5 -89zM870 1279q25 2 46.5 -5.5t37.5 -21.5t25.5 -32t12.5 -37q1 -17 -7 -41t-13 -42q-38 -105 -70 -192t-61 -164.5t-57 -151.5t-57 -151.5t-61 -164.5t-70 -192q-11 -38 -36.5 -62.5t-60.5 -29.5q-26 -3 -50 3.5t-42.5 20.5t-30 33.5t-14.5 42.5
q-2 16 6 38.5t15 41.5q37 104 69 191t61 165t57 151.5t57 151t61 164.5t70 192q7 22 20 38.5t30 27.5q12 11 28.5 17.5t33.5 8.5zM758 281q0 58 21.5 109t59 88.5t88 59.5t108.5 22t109 -22t89 -59.5t60 -88.5t22 -109t-22 -109t-60 -88.5t-89 -59t-109 -21.5t-108.5 21.5
t-88 59t-59 88.5t-21.5 109zM916 281q0 -56 32.5 -89.5t85.5 -33.5q54 0 87.5 33.5t33.5 89.5q0 54 -33.5 89t-87.5 35q-53 0 -85.5 -35t-32.5 -89z" />
    <glyph glyph-name="ampersand" unicode="&#x26;" horiz-adv-x="1120" 
d="M688 237q58 -34 115 -67.5t114 -68.5q-5 -35 -16.5 -56.5t-29 -33.5t-40.5 -16.5t-52 -4.5h-272q-89 0 -166.5 26.5t-136.5 76t-96 120.5t-44 160q-2 17 -1.5 34.5t2.5 35.5q8 88 50.5 158.5t107.5 115.5q-35 38 -58 85t-30 102q-3 33 0 67q6 65 35.5 122t75.5 99
t106 66.5t127 24.5q51 0 80 -23.5t29 -76.5q0 -27 -11.5 -51t-32.5 -38q-38 -12 -72.5 -23t-60.5 -27.5t-41 -42t-15 -65.5q0 -27 9.5 -50.5t26 -40.5t39 -27t49.5 -10q14 0 37 0.5t36 0.5l-34 -220l-39 -1q-38 0 -70.5 -14t-57.5 -39t-39 -58t-14 -70q0 -38 14 -71
t39 -57.5t57.5 -39t70.5 -14.5h209v12zM974 809q23 0 43.5 -8t35.5 -23t24 -35t9 -44q0 -23 -9 -43t-24 -35t-35.5 -24t-43.5 -9h-489q-24 0 -47.5 9t-42.5 24t-30.5 35t-11.5 43q0 24 11 44t29 35t40.5 23t46.5 8h494zM688 935q0 24 9 45.5t25 37.5t37.5 25.5t46.5 9.5
q24 0 45.5 -9.5t37.5 -25.5t25.5 -37.5t9.5 -45.5v-825q0 -25 -9.5 -46.5t-25.5 -37.5t-37.5 -25t-45.5 -9q-25 0 -46.5 9t-37.5 25t-25 37.5t-9 46.5v825z" />
    <glyph glyph-name="quotesingle" unicode="'" horiz-adv-x="383" 
d="M188 1290q30 0 52 -12.5t36.5 -32.5t22 -46.5t7.5 -53.5v-112q0 -27 -7.5 -53.5t-22 -47t-36.5 -33t-52 -12.5t-52 12.5t-37 33t-22 47t-7 53.5v112q0 27 7 53.5t22 46.5t37 32.5t52 12.5z" />
    <glyph glyph-name="parenleft" unicode="(" horiz-adv-x="633" 
d="M631 -205q0 -24 -9.5 -44.5t-25.5 -35.5t-37.5 -23.5t-45.5 -8.5q-83 0 -155.5 31.5t-127.5 86t-86.5 127.5t-31.5 156v801q1 74 27.5 140t72.5 117.5t107.5 85.5t132.5 44q27 5 55.5 4.5t54.5 -5.5q30 -12 49.5 -39t19.5 -62q0 -24 -9.5 -47t-25.5 -40t-38 -27.5
t-47 -10.5q-35 0 -64.5 -13t-51.5 -35.5t-34.5 -52.5t-12.5 -63v-797q0 -52 29 -93t76 -59q30 -5 61.5 -15.5t57.5 -27.5t42.5 -40.5t16.5 -53.5z" />
    <glyph glyph-name="parenright" unicode=")" horiz-adv-x="646" 
d="M16 -201q0 18 5.5 37t19 36.5t34.5 30.5t53 18q33 0 64 13t55 35t38.5 52t14.5 65v796q0 34 -13 64t-35.5 52.5t-52.5 35.5t-63 13q-25 0 -46.5 10.5t-38 27.5t-26 40t-9.5 47q0 35 19.5 61.5t49.5 38.5q52 10 110 1q71 -9 132.5 -43t107 -86t72.5 -118t28 -139v-801
q0 -83 -31.5 -156t-86 -127.5t-127.5 -86t-156 -31.5q-24 0 -45 8.5t-37.5 23.5t-26 36t-9.5 46z" />
    <glyph glyph-name="asterisk" unicode="*" horiz-adv-x="860" 
d="M228 931l-141 94q-18 12 -28.5 29t-13.5 36.5t1 39t16 37.5q25 35 65 43.5t75 -14.5l115 -77v122q0 20 7.5 37.5t21 30.5t31.5 20.5t39 7.5q20 0 38 -7.5t31.5 -20.5t21.5 -30.5t8 -37.5v-120l109 72q18 11 37.5 14.5t39 -0.5t36 -15.5t28.5 -29.5t15.5 -38t0 -39.5
t-14.5 -36.5t-28 -29l-136 -90l153 -102q17 -12 28 -29t14.5 -36.5t-0.5 -39.5t-16 -38q-12 -17 -29 -28t-36 -15t-39 -1t-37 15l-125 84v-143q0 -20 -8 -37.5t-21.5 -30.5t-31.5 -20.5t-38 -7.5q-42 0 -70.5 27.5t-28.5 68.5v144l-131 -86q-18 -12 -38 -15t-39.5 1.5
t-36 16t-28.5 29.5t-15.5 37.5t0 39t14.5 36t28 28.5z" />
    <glyph glyph-name="plus" unicode="+" horiz-adv-x="894" 
d="M530 204q0 -34 -24.5 -57.5t-59.5 -23.5q-33 0 -58 23.5t-25 57.5v544q0 34 25 57t58 23q35 0 59.5 -23t24.5 -57v-544zM718 564q34 0 57.5 -24.5t23.5 -59.5q0 -33 -23.5 -58t-57.5 -25h-544q-34 0 -57 25t-23 58q0 35 23 59.5t57 24.5h544z" />
    <glyph glyph-name="comma" unicode="," horiz-adv-x="400" 
d="M208 219q24 0 46.5 -9t39.5 -25.5t27 -39.5t9 -52q-7 -51 -28.5 -94t-49 -73.5t-58.5 -48t-57 -18.5q-26 0 -43 22.5t-22 62.5q-5 26 -3 66t7 76q2 27 13 51.5t28 42.5t40.5 28.5t50.5 10.5z" />
    <glyph glyph-name="hyphen" unicode="-" horiz-adv-x="911" 
d="M735 526q34 0 57.5 -24.5t23.5 -59.5q0 -33 -23.5 -58t-57.5 -25h-544q-33 0 -56.5 25t-23.5 58q0 35 23.5 59.5t56.5 24.5h544z" />
    <glyph glyph-name="period" unicode="." horiz-adv-x="360" 
d="M54 114q0 26 9.5 49t26.5 39.5t40 26t50 9.5q26 0 49 -9.5t40.5 -26t27.5 -39.5t10 -49q0 -27 -10 -49.5t-27.5 -39t-40.5 -26t-49 -9.5q-27 0 -50 9.5t-40 26t-26.5 39t-9.5 49.5z" />
    <glyph glyph-name="slash" unicode="/" horiz-adv-x="932" 
d="M772 1277q25 -2 45.5 -12.5t34 -26t21 -35t7.5 -38.5q0 -17 -9.5 -40.5t-15.5 -41.5q-142 -304 -282.5 -604.5t-281.5 -604.5q-17 -37 -48.5 -59.5t-73.5 -17.5q-27 2 -51 17t-40 37t-20 48.5t9 51.5q29 55 70 140.5t90 191t103 224t109 239.5t108.5 237.5t100.5 217.5
q9 20 24.5 35.5t33.5 23.5q29 19 66 17z" />
    <glyph glyph-name="zero" unicode="0" horiz-adv-x="1102" 
d="M57 484q0 102 39 191.5t106 156.5t157 106t192 39t191.5 -39t156.5 -106t106 -156.5t39 -191.5t-39 -192t-106 -157t-156.5 -106t-191.5 -39t-192 39t-157 106t-106 157t-39 192zM298 484q0 -55 19.5 -102.5t53 -83t80 -55.5t100.5 -20t100.5 20t80 55.5t53 83
t19.5 102.5q0 54 -19.5 102t-53 83t-80 55.5t-100.5 20.5t-100.5 -20.5t-80 -55.5t-53 -83t-19.5 -102z" />
    <glyph glyph-name="one" unicode="1" horiz-adv-x="508" 
d="M167 315v353q-5 -1 -12.5 -5.5t-17 -9.5t-20 -9t-20.5 -4q-18 0 -32.5 7.5t-24 19.5t-15 26.5t-5.5 27.5q0 21 11 40.5t32 40.5l118 120q16 16 34 30.5t40 20.5q14 4 29.5 4t29.5 -3q38 -9 63 -42.5t25 -80.5v-592zM402 462v-354q0 -25 -9 -46.5t-25 -37.5t-37.5 -25
t-46.5 -9t-46.5 9t-37 25t-24.5 37.5t-9 46.5v354h235z" />
    <glyph glyph-name="two" unicode="2" horiz-adv-x="1046" 
d="M968 107q0 -28 -10.5 -49.5t-29.5 -36.5t-44 -23t-55 -8h-615q-25 0 -49 7.5t-43.5 22.5t-31 36t-11.5 48t17.5 59t47.5 67t70 71.5t85 71.5q52 40 108 76t107 67q49 27 82 48t52.5 39t27.5 35t8 37q0 22 -18.5 39t-46.5 29t-59.5 18.5t-56.5 6.5q-27 0 -54 -9.5
t-49.5 -25.5t-37.5 -37t-18 -44q-14 -24 -42.5 -37.5t-60.5 -15.5t-61.5 7t-44.5 30q-14 23 -16.5 52.5t3.5 56.5q12 41 44 84t83.5 78.5t122 58t158.5 22.5q113 0 192 -26t128.5 -66.5t71.5 -90t22 -95.5q-1 -58 -26 -102t-65.5 -80t-92 -67t-105.5 -63q-72 -43 -126 -86.5
t-98 -92.5h358q35 0 67.5 -2t57 -12.5t39.5 -33t15 -64.5z" />
    <glyph glyph-name="three" unicode="3" horiz-adv-x="1004" 
d="M345 984h451q32 0 61 -19t44 -47q21 -41 12 -83t-47 -70l-273 -193q76 -9 140 -46t110.5 -93t72 -127.5t25.5 -150.5q0 -104 -37 -190.5t-101 -148.5t-150 -96t-183 -34q-48 0 -97 11t-94.5 30t-85.5 44t-70 53.5t-47 58.5t-17 59q0 38 20.5 65.5t50.5 37.5q17 6 38 5
t39 -9q28 -17 56 -38.5t59 -41.5t66 -33.5t78 -13.5q54 0 99 18t77 51t49.5 78.5t17.5 100.5t-18.5 100.5t-51.5 78.5t-79.5 51t-102.5 18q-20 0 -37 -3t-32 -6t-29 -6t-28 -3q-45 0 -73.5 23.5t-28.5 59.5q0 26 18.5 52t47.5 50.5t66 48.5t73.5 45.5t70 41t55.5 35.5h-257z
M363 748q-42 0 -83.5 -0.5t-83.5 -0.5q-29 0 -54 8t-43.5 23t-29.5 37t-11 49q0 54 36 87t97 33h178z" />
    <glyph glyph-name="four" unicode="4" horiz-adv-x="1033" 
d="M266 891q6 24 21 42t34.5 28.5t42.5 13.5t47 -4q23 -6 41.5 -21t29.5 -34.5t14.5 -42.5t-3.5 -46l-221 -753q-6 -23 -21 -40.5t-34.5 -28t-43 -13.5t-46.5 4q-24 7 -42.5 21.5t-30 34t-14.5 42t4 45.5zM875 225q24 0 45.5 -9.5t37 -25t24.5 -37t9 -45.5t-9 -45.5
t-24.5 -37.5t-37 -25.5t-45.5 -9.5h-718q-24 0 -45 9.5t-36 25.5t-24 37.5t-9 45.5t9 45.5t24 37t36 25t45 9.5h718zM572 39v84q1 57 3 103q1 19 1.5 38.5t1 35t1 26t0.5 13.5q-1 52 28.5 83.5t77.5 31.5t78 -32t30 -83q0 -3 0.5 -20t1.5 -41t2 -51.5t1.5 -50.5t1 -38
l0.5 -15l3 -309q0 -24 -9.5 -45t-25.5 -36t-37.5 -24t-45.5 -9t-45.5 9t-37 24t-25 36t-9.5 45z" />
    <glyph glyph-name="five" unicode="5" horiz-adv-x="1012" 
d="M602 750h-284v-166q46 5 88 6t87 1q98 0 181.5 -29.5t144.5 -85t95.5 -134t34.5 -176.5q0 -102 -35.5 -189t-98.5 -150t-149.5 -99t-188.5 -36q-72 0 -134.5 15t-111.5 41.5t-82 62.5t-48 78q-10 32 0 65q11 26 36.5 43.5t60.5 17.5q16 0 31.5 -5t26.5 -12q33 -27 75 -44
t96 -22q57 -9 109.5 2t92.5 40.5t63.5 77.5t23.5 114q0 63 -24 110.5t-65.5 77.5t-95.5 42t-114 4q-45 -11 -87 -22.5t-91 -11.5q-29 0 -57 5t-50 17.5t-35.5 33t-13.5 51.5q0 109 -4.5 222t-4.5 220q0 26 17 43t64 17h447v-225zM513 975h250q23 0 43 -9t35 -24t24 -35.5
t9 -43.5t-9 -43.5t-24 -36t-35 -24.5t-43 -9h-283z" />
    <glyph glyph-name="six" unicode="6" horiz-adv-x="1070" 
d="M631 957q84 -15 156.5 -57t126 -105t84 -142.5t30.5 -168.5q0 -102 -39 -192t-106 -157t-156.5 -106t-191.5 -39t-192 39t-157 106t-106 157t-39 192q0 59 14.5 114.5t37.5 106.5q8 17 22 47t32 67.5t38 80t40 84t38.5 79.5t32.5 67.5t22.5 47l8.5 17.5q8 18 23 37.5
t36 33t48 16t59 -12.5q54 -26 61.5 -76.5t-22.5 -107.5l-72 -148q40 14 82.5 19.5t88.5 0.5zM281 484q0 -55 19.5 -102.5t53.5 -83t80.5 -55.5t100.5 -20t100.5 20t80 55.5t53 83t19.5 102.5q0 54 -19.5 102t-53 83t-80 55.5t-100.5 20.5t-100.5 -20.5t-80.5 -55.5
t-53.5 -83t-19.5 -102z" />
    <glyph glyph-name="seven" unicode="7" horiz-adv-x="1014" 
d="M849 977q24 0 45 -9t36.5 -25t24.5 -37.5t9 -45.5t-9 -45t-24.5 -37.5t-36.5 -26t-45 -9.5h-678q-24 0 -45 9.5t-36 26t-24 37.5t-9 45t9 45.5t24 37.5t36 25t45 9h678zM747 923q12 20 30.5 33t40 18t44.5 1.5t44 -15.5q21 -13 34.5 -31.5t19.5 -40t3 -44t-15 -43.5
l-655 -1059q-12 -20 -31 -33t-40.5 -18.5t-44 -2t-43.5 15.5q-22 12 -35.5 31t-19 40.5t-2.5 44t15 43.5z" />
    <glyph glyph-name="eight" unicode="8" horiz-adv-x="1021" 
d="M182 982q0 66 25 124.5t68.5 102t101.5 69t124 25.5t124.5 -25.5t103 -69t70 -102t25.5 -124.5q0 -51 -16 -94.5t-50 -75.5q51 -25 86.5 -63t57.5 -85t32 -101t10 -111q0 -92 -35 -172.5t-95 -140.5t-141 -95t-172 -35q-92 0 -172.5 35t-140.5 95t-95 140.5t-35 172.5
q0 57 10 111.5t32 101.5t57.5 85t86.5 63q-38 35 -50 76.5t-12 92.5zM306 452q0 -42 15 -78.5t41 -63.5t61.5 -42.5t77.5 -15.5t77.5 15.5t62 42.5t41.5 63.5t15 78.5q0 41 -15 77t-41 63t-62 43t-78 17q-42 0 -77.5 -15.5t-61.5 -42.5t-41 -63.5t-15 -78.5zM402 978
q0 -42 25.5 -71.5t70.5 -29.5q43 0 71 27.5t28 73.5q0 45 -28 73t-71 28t-69.5 -28t-26.5 -73z" />
    <glyph glyph-name="nine" unicode="9" horiz-adv-x="1084" 
d="M628 -310q-29 2 -50 15t-35 33q-29 33 -27 77q18 58 44.5 106.5t55.5 104.5q-40 -14 -82.5 -18.5t-88.5 0.5q-84 14 -156.5 56.5t-126.5 105.5t-84.5 142.5t-30.5 168.5q0 102 39 191.5t106 156.5t157 106t192 39t191.5 -39t156.5 -106t106 -156.5t39 -191.5
q0 -62 -15 -120.5t-40 -108.5l-237 -496q-23 -50 -70 -62q-21 -7 -44 -4zM794 481q0 54 -19.5 102t-53 83t-80 55.5t-100.5 20.5t-100.5 -20.5t-80.5 -55.5t-53.5 -83t-19.5 -102q0 -55 19.5 -102.5t53.5 -83t80.5 -56t100.5 -20.5t100.5 20.5t80 56t53 83t19.5 102.5z" />
    <glyph glyph-name="colon" unicode=":" horiz-adv-x="375" 
d="M61 850q0 26 10 49t27 40t40 27t49 10t49 -10t40.5 -27t27.5 -40t10 -49t-10 -49t-27.5 -40t-40.5 -27t-49 -10t-49 10t-40 27t-27 40t-10 49zM61 116q0 26 10 49t27 40.5t40 27.5t49 10t49 -10t40.5 -27.5t27.5 -40.5t10 -49t-10 -49t-27.5 -40t-40.5 -27t-49 -10
t-49 10t-40 27t-27 40t-10 49z" />
    <glyph glyph-name="semicolon" unicode=";" horiz-adv-x="384" 
d="M64 852q0 26 9.5 49t26.5 39.5t40 26t50 9.5q26 0 49 -9.5t40.5 -26t27.5 -39.5t10 -49q0 -27 -10 -49.5t-27.5 -39t-40.5 -26t-49 -9.5q-27 0 -50 9.5t-40 26t-26.5 39t-9.5 49.5zM206 217q23 -2 43.5 -12t35.5 -26.5t22.5 -38.5t6.5 -47q-7 -52 -28 -94.5t-49 -73
t-59 -48t-57 -18.5q-26 0 -43 22.5t-22 62.5q-5 26 -3 66.5t7 76.5q2 27 13 51.5t28 42.5t40.5 28.5t50.5 10.5q6 0 14 -3z" />
    <glyph glyph-name="less" unicode="&#x3c;" horiz-adv-x="685" 
d="M512 138q-19 -6 -40 -2q-12 1 -26.5 10t-29.5 22t-29.5 27t-25.5 26l-248 247q-23 22 -39.5 49.5t-16.5 54.5q0 31 17.5 58.5t39.5 48.5l254 252q29 29 61.5 56t69.5 35q24 3 47.5 -6.5t41.5 -26.5t28.5 -41.5t7.5 -51.5q-5 -30 -25.5 -59.5t-45.5 -51.5l-242 -213
l231 -200q26 -23 47 -53t26 -59q1 -38 -19 -68q-14 -23 -36.5 -37t-47.5 -17z" />
    <glyph glyph-name="equal" unicode="=" horiz-adv-x="922" 
d="M847 387q0 -56 -38.5 -87t-103.5 -31h-487q-66 0 -104.5 30.5t-38.5 87.5t38.5 87t104.5 30h487q65 0 103.5 -30.5t38.5 -86.5zM847 734q0 -56 -38.5 -86.5t-103.5 -30.5h-487q-66 0 -104.5 29.5t-38.5 87.5q0 57 38.5 87.5t104.5 30.5h487q65 0 103.5 -30.5t38.5 -87.5z
" />
    <glyph glyph-name="greater" unicode="&#x3e;" horiz-adv-x="683" 
d="M217 137q-38 -10 -73.5 5t-53.5 51q-20 30 -19 67q5 29 26 59t47 53l231 200l-242 213q-26 22 -46 51t-25 60q-1 9 0.5 18t3.5 19q4 20 15.5 37t28 28.5t36 18t40.5 5.5q35 -9 69.5 -35.5t63.5 -55.5l253 -252q20 -23 37.5 -49.5t19.5 -57.5q0 -27 -17 -54.5t-39 -49.5
l-247 -247q-11 -11 -24 -23t-27 -24t-28.5 -22t-29.5 -15z" />
    <glyph glyph-name="question" unicode="?" horiz-adv-x="1031" 
d="M375 372q0 52 10.5 88.5t31.5 66.5t54 58t78 62q28 20 57.5 43.5t54 50.5t40.5 57.5t16 66.5q0 49 -17 87t-45.5 64.5t-64.5 40t-73 13.5q-38 0 -68.5 -9.5t-55 -26t-43.5 -38.5t-33 -47q-22 -47 -56.5 -71.5t-76.5 -19.5q-23 3 -43 15t-33.5 31t-18 43t5.5 53
q15 57 52.5 110.5t93 95.5t129 67.5t160.5 25.5q82 0 157.5 -31.5t134 -87.5t93.5 -132t35 -165q0 -48 -11 -89.5t-33.5 -80.5t-57.5 -77t-83 -78q-33 -26 -64.5 -46t-58.5 -43.5t-47.5 -54t-29.5 -76.5q-5 -21 -15 -35t-22.5 -22t-25 -11.5t-21.5 -3.5q-17 0 -35.5 4.5
t-34 16.5t-26 32.5t-10.5 52.5zM348 43q0 26 10 49t27 40.5t40 27.5t49 10t49 -10t40.5 -27.5t27.5 -40.5t10 -49t-10 -49t-27.5 -40t-40.5 -27t-49 -10t-49 10t-40 27t-27 40t-10 49z" />
    <glyph glyph-name="at" unicode="@" horiz-adv-x="1605" 
d="M1007 369l1 134q0 34 6.5 74.5t22 75t41.5 58t65 23.5q12 0 19 -12.5t10 -31.5t3.5 -41.5t0.5 -42.5l-2 -206zM1174 495v-127q0 -42 1.5 -69.5t6.5 -43.5t13 -22.5t21 -6.5q30 0 48.5 25.5t29 67t14 93t3.5 104.5q0 72 -19 139.5t-53 126t-82 107.5t-106.5 83.5
t-125.5 54t-139 19.5q-109 0 -204.5 -42.5t-167 -115.5t-112.5 -170t-41 -206q0 -107 41 -203.5t112.5 -169.5t167 -115.5t204.5 -42.5q33 0 61 6.5t52 15t42.5 15t31.5 6.5q23 0 39 -7t25.5 -18.5t13.5 -25.5t4 -29q0 -48 -31 -78t-74 -47t-88.5 -23t-75.5 -6
q-150 0 -282 57t-230.5 155.5t-155.5 230.5t-57 282q0 99 26 191.5t73 173t113.5 147t147 114t173 73.5t192.5 26q99 0 191.5 -26t173 -73.5t147 -114t114 -147t73.5 -173t26 -191.5q0 -77 -15 -160t-49.5 -152t-91 -113.5t-138.5 -44.5q-62 0 -103 24.5t-65.5 65.5t-34 94
t-9.5 110l2 166zM603 509q0 -36 14 -68.5t38.5 -57t57 -39t68.5 -14.5t68.5 14.5t57 39t38.5 57t14 68.5t-14 68.5t-38.5 57t-57 39t-68.5 14.5t-68.5 -14.5t-57 -39t-38.5 -57t-14 -68.5zM387 510q0 81 31 152.5t84.5 125.5t125.5 85t154 31q81 0 151 -31t122 -85
t82 -125.5t30 -152.5t-30 -153t-82 -125.5t-122 -84.5t-151 -31q-82 0 -154 31t-125.5 84.5t-84.5 125t-31 153.5z" />
    <glyph glyph-name="A" unicode="A" horiz-adv-x="1151" 
d="M567 1276q26 0 46 -11t35.5 -28.5t27 -39.5t21.5 -45l401 -1001q5 -11 7 -23.5t2 -23.5q0 -26 -12.5 -49.5t-35.5 -37.5q-22 -19 -49.5 -24.5t-53.5 2t-48 26.5t-33 49l-72 180h-466l-74 -181q-19 -45 -50 -64.5t-71 -16.5q-26 1 -48 12.5t-37 31t-21 45.5t1 55
q8 25 17 48.5t18 47.5l373 933q5 13 6.5 26t3.5 26q3 13 9 24.5t18 20t32.5 13.5t52.5 5zM388 439h364l-182 465z" />
    <glyph glyph-name="B" unicode="B" horiz-adv-x="1176" 
d="M128 1185q1 -2 1 -3.5t1 -3.5zM122 1228q0 11 3.5 20t12 15t23.5 9.5t38 3.5h502q65 0 124 -20.5t106 -57.5t79.5 -89t43.5 -116q11 -62 2 -125q-4 -35 -16 -63.5t-27 -50.5t-30 -37t-26 -22q18 -8 43.5 -27.5t50 -50.5t43.5 -72t25 -93q8 -61 0 -119q-11 -76 -47 -139
t-90.5 -108.5t-123 -70.5t-144.5 -25h-462q-63 0 -90 38.5t-27 96.5v1020q-1 9 -2 17t-3 16l-2 7q-2 11 -4 21.5t-2 21.5zM367 586v-378h335q38 0 72.5 14t61 38.5t42.5 59.5t16 77t-15.5 77t-42 60t-61 38.5t-72.5 13.5h-336zM367 1068v-294h329q29 0 55.5 11.5t46 31.5
t31 47t11.5 57q0 31 -12 58t-32 46.5t-46 31t-55 11.5h-328z" />
    <glyph glyph-name="C" unicode="C" horiz-adv-x="1274" 
d="M999 908q-60 61 -132 97t-163 36q-84 0 -158.5 -32.5t-129.5 -89t-87 -131t-32 -158.5t32 -158.5t87.5 -130.5t129.5 -88.5t158 -32.5q54 0 98.5 12.5t83.5 34.5t74 50.5t71 60.5q14 9 31.5 14.5t35.5 5.5t35 -5t32 -17q22 -14 35 -37t13 -50q0 -23 -8.5 -45t-27.5 -41
q-50 -56 -100.5 -96.5t-107 -66.5t-121.5 -38.5t-144 -12.5q-133 0 -250 50.5t-204.5 138t-138 204.5t-50.5 250q0 88 23 170t65 153.5t100.5 130t130 100.5t153.5 65t171 23q69 0 130.5 -10.5t117 -34t107 -61.5t101.5 -92q33 -36 35 -85q1 -22 -8.5 -45t-29.5 -40
q-14 -13 -32 -21t-38.5 -9t-43 6.5t-44.5 25.5z" />
    <glyph glyph-name="D" unicode="D" horiz-adv-x="1265" 
d="M250 -10q-44 0 -75.5 26.5t-39.5 66.5q-2 6 -2 12v13v1043q-1 20 -6 39.5t-5 37.5q0 11 3.5 20t12.5 15t25 9.5t41 3.5h356q88 0 170 -23t153.5 -65t130.5 -101t101.5 -130.5t65.5 -153.5t23 -170q0 -89 -23 -171t-65.5 -153.5t-101.5 -130t-130.5 -100.5t-153.5 -65
t-170 -23h-310zM968 633q0 90 -32.5 166.5t-88 132.5t-129.5 88t-158 33h-192v-831h192q84 2 158 34t129.5 86.5t88 129t32.5 161.5z" />
    <glyph glyph-name="E" unicode="E" horiz-adv-x="1108" 
d="M1064 108q0 -26 -10 -48t-27 -37.5t-40 -24t-49 -8.5h-671q-63 0 -98 37.5t-35 99.5v1017q-1 20 -6.5 41.5t-5.5 41.5q0 22 15 35.5t60 13.5h744q39 0 65.5 -16.5t40 -41.5t13.5 -54.5t-13 -54.5t-39 -41.5t-66 -16.5h-573v-308h445q27 0 51 -12.5t39.5 -32.5t21 -46
t-4.5 -54q-12 -35 -40 -54.5t-66 -19.5h-446v-298h567q26 0 49.5 -8t41 -23t27.5 -37t10 -50z" />
    <glyph glyph-name="F" unicode="F" horiz-adv-x="1090" 
d="M134 1144q-1 20 -6.5 41.5t-5.5 41.5q0 22 15 35.5t60 13.5h733q16 0 36 -5t37.5 -17.5t29.5 -33t13 -50.5q0 -24 -8 -45.5t-23 -38t-36.5 -26t-48.5 -9.5h-561v-334h420q22 0 43.5 -7.5t38 -22t26.5 -35t10 -47.5q0 -26 -10 -47.5t-26.5 -37.5t-37.5 -24.5t-44 -8.5
h-420v-374q0 -24 -8.5 -46.5t-24 -39.5t-37 -27t-48.5 -10t-48.5 10t-36.5 27t-23.5 39.5t-8.5 46.5v1031v0z" />
    <glyph glyph-name="G" unicode="G" horiz-adv-x="1323" 
d="M702 218q48 0 95 19.5t87 52.5t68.5 76t40.5 91q34 27 65 32.5t54.5 -3.5t38 -30t16.5 -47t-10 -53.5t-41 -50.5q-16 -44 -51.5 -99t-89 -103t-124 -80.5t-155.5 -32.5q-133 0 -249 50.5t-201.5 138t-135 204.5t-49.5 250q0 88 23 170t65 153.5t100.5 130t130 100.5
t153.5 65t171 23q78 0 143 -13.5t121.5 -40.5t107 -68t100.5 -95q16 -18 25 -38.5t9 -44.5q0 -35 -20 -62.5t-49 -40.5q-26 -11 -54 -10.5t-54 16.5q-41 32 -76 62t-72.5 52.5t-80.5 36t-100 13.5q-84 0 -158.5 -32.5t-129.5 -89t-87 -131t-32 -158.5q0 -89 31 -164.5
t86 -130.5t128.5 -86.5t159.5 -31.5zM1022 388h-208q-23 0 -41 9t-31.5 22.5t-21 29.5t-7.5 32q-1 17 6.5 34.5t21.5 31.5t34.5 23t46.5 9h328q42 -1 67.5 -25t25.5 -84v-384q0 -41 -26.5 -67.5t-70.5 -26.5q-45 0 -69 28.5t-24 74.5v293h-31z" />
    <glyph glyph-name="H" unicode="H" horiz-adv-x="1314" 
d="M1198 114q0 -26 -9 -48.5t-24.5 -39.5t-37.5 -26.5t-47 -9.5q-26 0 -47.5 10t-37 27t-24 39.5t-8.5 47.5v387h-595v-387q0 -25 -8.5 -47.5t-23.5 -39.5t-37 -27t-49 -10t-48.5 10t-37 27.5t-23.5 40t-8 46.5v1037q-1 20 -6 39.5t-5 37.5q0 11 3 20t11.5 15t24 9.5
t40.5 3.5q37 0 67.5 -6t52.5 -19.5t34.5 -36.5t12.5 -56v-421h595v414q-1 20 -6 39.5t-5 37.5q0 11 3.5 20t12.5 15t25 9.5t41 3.5q32 0 61.5 -5t52.5 -18.5t36.5 -36t13.5 -58.5v-1044z" />
    <glyph glyph-name="I" unicode="I" horiz-adv-x="491" 
d="M368 112q0 -24 -8.5 -46t-23.5 -39t-37 -27t-49 -10t-49 10.5t-37 28t-23 39t-8 44.5v1038q-1 20 -6 39.5t-5 37.5q0 11 3.5 20t12.5 15t25 9.5t41 3.5q34 0 63 -5t51 -18.5t35 -36.5t15 -59v-1044z" />
    <glyph glyph-name="J" unicode="J" horiz-adv-x="481" 
d="M-121 -205q0 24 9 45.5t25.5 37.5t38 25t47.5 9q34 1 59 15.5t42 40t25.5 60t8.5 75.5l-1 1041q0 16 -1.5 27t-4 20t-4 17t-1.5 19q0 21 15.5 34.5t64.5 13.5q36 0 66.5 -6.5t53 -22t35.5 -42.5t13 -69v-973q0 -106 -22.5 -195t-68 -153.5t-116 -100.5t-166.5 -36
q-25 0 -46.5 9t-37.5 25t-25 37.5t-9 46.5z" />
    <glyph glyph-name="K" unicode="K" horiz-adv-x="1208" 
d="M204 1282q33 0 63 -6t52 -21.5t35.5 -42.5t13.5 -70v-403l578 498q29 26 60 33.5t60 -1.5q12 -3 24 -8.5t23 -14t19.5 -19.5t11.5 -24q14 -39 4 -78t-45 -67l-353 -285l382 -591q24 -38 25.5 -65.5t-11.5 -59.5q-12 -29 -40 -49t-67 -20q-32 0 -59.5 16.5t-53.5 58.5
l-354 572l-205 -171l1 -333q0 -30 -8 -56t-23 -44.5t-37 -29.5t-50 -11q-57 0 -87 39.5t-30 100.5v1027q-1 20 -6 39.5t-5 37.5q0 11 3.5 20t12.5 15t25 9.5t41 3.5z" />
    <glyph glyph-name="L" unicode="L" horiz-adv-x="1090" 
d="M1036 119q0 -27 -9 -48.5t-24 -37.5t-35 -24.5t-43 -8.5h-660q-29 1 -53 12t-41.5 29t-27.5 43t-10 54v1022q-1 20 -6 39.5t-5 37.5q0 11 3.5 20t12.5 15t25 9.5t41 3.5q36 0 66 -6.5t51.5 -22t34 -43t12.5 -69.5v-908h550q22 0 43.5 -8.5t38 -24t26.5 -37t10 -47.5z" />
    <glyph glyph-name="M" unicode="M" horiz-adv-x="1482" 
d="M357 909q0 -223 0.5 -425t0.5 -376q0 -24 -8.5 -45.5t-24.5 -37.5t-37.5 -25.5t-47.5 -9.5q-25 0 -46.5 9t-37 25t-24.5 37.5t-9 46.5v247.5v269.5v271.5t-1 253.5q0 21 -5.5 38.5t-5.5 38.5q0 11 3 20t12 15.5t25 10t43 3.5q29 0 49 -1t35.5 -5t28.5 -12.5t27 -23.5
l414 -506q85 104 147 180t105.5 130.5t71 89.5t43.5 56.5t23 32t11 15.5q6 9 13 17.5t18.5 14.5t28 9t41.5 3q49 0 74.5 -20.5t36.5 -53.5t11.5 -75.5t0.5 -85.5v-933q0 -24 -8.5 -45.5t-24 -37.5t-37.5 -25.5t-48 -9.5q-18 0 -38.5 7t-38 21.5t-28.5 36.5t-11 53v799
l-292 -376q-23 -28 -46 -47.5t-50 -19.5q-30 0 -50 17.5t-47 49.5z" />
    <glyph glyph-name="N" unicode="N" horiz-adv-x="1379" 
d="M1257 119q0 -26 -8 -49.5t-23.5 -41t-37 -28t-48.5 -10.5q-29 0 -56.5 16.5t-47.5 39.5l-669 786v-175t-0.5 -187.5t-0.5 -187v-174.5q0 -25 -9 -46.5t-24.5 -37.5t-36.5 -25t-46 -9t-46.5 9.5t-37 25t-24.5 37t-9 45.5v1043q-1 20 -6 38.5t-5 39.5q0 10 3.5 19t12.5 15
t25 9.5t41 3.5q27 0 47.5 -2.5t37.5 -9t32 -17.5t32 -28l669 -789l-1 718q0 23 -5 41.5t-5 38.5q0 13 3 22t14 15t31 8.5t55 2.5q32 0 58.5 -5.5t45 -19.5t29 -37t10.5 -57v-1037z" />
    <glyph glyph-name="O" unicode="O" horiz-adv-x="1408" 
d="M61 633q0 88 23 170t65 153.5t100.5 130t130 100.5t153.5 65t171 23q88 0 170 -23t153.5 -65t130 -100.5t100.5 -130t65 -153.5t23 -170q0 -89 -23 -171t-65 -153.5t-100.5 -130t-130 -100.5t-153.5 -65t-170 -23q-133 0 -250 50.5t-204.5 138t-138 204.5t-50.5 250z
M297 631q0 -84 32 -158.5t87 -130.5t129.5 -88.5t158.5 -32.5t158 32.5t129.5 89t87.5 131.5t32 159t-32 158t-87.5 130t-129.5 88.5t-158 32.5t-158.5 -32.5t-129.5 -89t-87 -131t-32 -158.5z" />
    <glyph glyph-name="P" unicode="P" horiz-adv-x="1119" 
d="M1081 797q0 -103 -41.5 -189t-111.5 -148.5t-163 -97.5t-196 -35h-201v-219q0 -25 -9 -46.5t-25 -37.5t-37.5 -25t-46.5 -9t-46.5 9t-37 25t-24.5 37.5t-9 46.5v1050q-1 20 -6 39.5t-5 37.5q0 11 3.5 20t12.5 15t25 9.5t41 3.5h365q103 0 196 -37.5t163 -102.5
t111.5 -154t41.5 -192zM850 791q0 58 -22 108.5t-60.5 88.5t-89.5 60t-109 22h-205v-538h205q58 0 109 18.5t89.5 52.5t60.5 81.5t22 106.5z" />
    <glyph glyph-name="Q" unicode="Q" horiz-adv-x="1408" 
d="M706 -283q-51 0 -76.5 30.5t-30.5 81.5l-11 176q-112 19 -208.5 75t-167 139.5t-111 189t-40.5 224.5q0 88 23 170t65 153.5t100.5 130t130 100.5t153.5 65t171 23q88 0 170 -23t153.5 -65t130 -100.5t100.5 -130t65 -153.5t23 -170q0 -119 -40 -224t-110.5 -188.5
t-166.5 -139.5t-208 -75l-11 -177q-5 -54 -30 -83t-74 -29zM302 633q0 -84 31 -159t85.5 -131.5t128 -89t157.5 -32.5t157.5 32.5t128 89t85.5 131.5t31 159t-31 158t-85.5 130t-128 88.5t-157.5 32.5t-157.5 -32.5t-127.5 -88.5t-85.5 -130t-31.5 -158z" />
    <glyph glyph-name="R" unicode="R" horiz-adv-x="1128" 
d="M821 507l237 -332q15 -18 21 -40t3.5 -43.5t-14 -42t-31.5 -35.5t-41.5 -20.5t-43.5 -2.5t-41.5 14.5t-34.5 30.5l-254 388zM1081 797q0 -103 -41.5 -189t-111.5 -148.5t-163 -97.5t-196 -35h-201v-219q0 -25 -9 -46.5t-25 -37.5t-37.5 -25t-46.5 -9t-46.5 9t-37 25
t-24.5 37.5t-9 46.5v1050q-1 20 -6 39.5t-5 37.5q0 11 3.5 20t12.5 15t25 9.5t41 3.5h365q103 0 196 -37.5t163 -102.5t111.5 -154t41.5 -192zM850 791q0 58 -22 108.5t-60.5 88.5t-89.5 60t-109 22h-205v-538h205q58 0 109 18.5t89.5 52.5t60.5 81.5t22 106.5z" />
    <glyph glyph-name="S" unicode="S" horiz-adv-x="1006" 
d="M798 921q-14 -1 -26.5 0.5t-25 6.5t-25.5 14t-28 23q-50 51 -95.5 77.5t-104.5 26.5q-30 0 -62 -9t-57.5 -25.5t-42 -41.5t-16.5 -56q0 -37 27 -66.5t72 -55t102 -50.5t116 -52.5t116 -60t102 -74t72 -94.5t27 -122q0 -89 -41 -158.5t-107 -117t-148.5 -72.5t-166.5 -25
q-101 0 -178 24t-130.5 62.5t-84.5 85.5t-41 93q-3 24 2 46t17.5 39t32.5 27.5t47 10.5q26 0 51.5 -13.5t52.5 -37.5q14 -23 38 -43.5t54.5 -36.5t66 -25.5t73.5 -9.5q37 0 74.5 9.5t68 28t50 46t19.5 63.5q0 37 -26.5 65.5t-69 53.5t-97.5 48t-112.5 49.5t-112.5 58
t-97.5 73t-69 95t-26.5 123.5q0 78 31.5 142.5t88 110.5t133.5 71.5t168 25.5q45 0 92 -10t92 -28t84 -42t69 -52.5t47 -59.5t17 -62q0 -29 -9 -47.5t-24 -30t-35.5 -16.5t-43.5 -5z" />
    <glyph glyph-name="T" unicode="T" horiz-adv-x="1133" 
d="M1103 1158q0 -26 -9.5 -47t-26 -37t-39 -24.5t-48.5 -8.5h-294l-3 -933q0 -25 -8.5 -46.5t-23.5 -37.5t-36.5 -25t-46.5 -9q-26 0 -47.5 9t-36.5 25t-23.5 37.5t-8.5 46.5l-2 933h-298q-26 0 -48 8.5t-38 24t-25.5 37t-9.5 47.5q0 24 9 45.5t25 37.5t38.5 25.5t48.5 9.5
h827q25 0 48 -8.5t39.5 -24t26.5 -37.5t10 -48z" />
    <glyph glyph-name="U" unicode="U" horiz-adv-x="1274" 
d="M84 1150q-1 20 -6 39.5t-5 37.5q0 11 3.5 20t12.5 15t25 9.5t41 3.5q33 0 62 -5.5t51.5 -20.5t35.5 -41.5t15 -68.5v-638q0 -61 22 -114.5t63.5 -93t100.5 -62.5t134 -23q69 0 127.5 23t101.5 62.5t67.5 93t24.5 114.5l-1 649q-1 20 -6 39.5t-5 37.5q0 11 3.5 20t12.5 15
t25 9.5t41 3.5q32 0 61.5 -5t52.5 -20t36.5 -42t13.5 -70l1 -636q-1 -109 -43.5 -205t-117 -168t-176 -114t-219.5 -42q-121 0 -223 41.5t-176 113t-115.5 168t-41.5 206.5z" />
    <glyph glyph-name="V" unicode="V" horiz-adv-x="1107" 
d="M39 1118q-9 23 -8.5 46t9.5 44t25.5 37.5t39.5 25.5t46 8.5t44 -9t37.5 -25t25.5 -39.5l374 -1030l30 -24q9 -23 8.5 -46.5t-10 -44.5t-26.5 -37.5t-39 -25.5q-47 -18 -90 0.5t-63 65.5zM664 64q-19 -47 -62.5 -65.5t-90.5 -0.5q-23 9 -39.5 25.5t-25.5 37.5t-10 44.5
t8 46.5l30 24l375 1030q7 23 23.5 39.5t37.5 25t45 9t47 -8.5t39.5 -25.5t25.5 -37.5t9.5 -44t-8.5 -46z" />
    <glyph glyph-name="W" unicode="W" horiz-adv-x="1681" 
d="M758 813q-8 20 -10.5 40.5t2 39t16.5 33t33 23.5q20 8 41 7.5t39.5 -8.5t33 -22.5t21.5 -34.5l262 -715l40 -24q9 -23 8.5 -46.5t-10 -44.5t-26.5 -37.5t-39 -25.5q-47 -18 -90 0.5t-63 65.5zM1238 64q-19 -47 -62.5 -65.5t-90.5 -0.5q-23 9 -39.5 25.5t-26 37.5
t-10 44.5t8.5 46.5l41 24l364 1030q8 26 29 41t47 19q16 9 36.5 11t40.5 -6q23 -9 39.5 -25.5t25.5 -37.5t9.5 -44t-8.5 -46zM39 1118q-9 23 -8.5 46t9.5 44t25.5 37.5t39.5 25.5t46.5 8.5t44.5 -9t37.5 -25t24.5 -39.5l364 -1030l40 -24q9 -23 8.5 -46.5t-10 -44.5
t-26.5 -37.5t-39 -25.5q-47 -18 -90 0.5t-63 65.5zM664 64q-19 -47 -62.5 -65.5t-90.5 -0.5q-23 9 -39.5 25.5t-25.5 37.5t-10 44.5t8 46.5l41 24l255 714q7 20 21.5 34.5t33 22.5t39.5 8.5t41 -7.5q21 -8 33 -23t16.5 -33t2 -39t-9.5 -41z" />
    <glyph glyph-name="X" unicode="X" horiz-adv-x="1330" 
d="M1070 1240q16 18 37.5 27t44 9t44.5 -8.5t40 -26.5q17 -17 26 -39t9 -44.5t-8.5 -44t-25.5 -38.5l-538 -552q-18 -18 -26 -16t-14 15t-14 32.5t-25 37.5q-18 18 -26.5 39t-8.5 43.5t9 43.5t27 39zM691 760q18 -18 27.5 -39t9.5 -42.5t-8.5 -42.5t-26.5 -39
q-17 -17 -25.5 -36t-15.5 -31.5t-15.5 -14t-26.5 16.5l-528 543q-17 17 -25.5 38.5t-8.5 44t9 44.5t26 39q18 18 40.5 26.5t45 8.5t44 -9t37.5 -27zM245 24q-16 -18 -37 -27t-44 -9t-45 8.5t-40 26.5q-18 17 -26.5 38.5t-8.5 44t8.5 44t25.5 39.5l534 559q17 18 26 15
t16 -17.5t15.5 -35.5t25.5 -38q36 -36 34 -80.5t-38 -79.5zM628 505q-18 18 -28 38.5t-10.5 42t7.5 42.5t26 39q17 17 26 36.5t16.5 32.5t17 15.5t27.5 -15.5l524 -547q17 -17 25.5 -39t8.5 -44.5t-8.5 -44t-26.5 -38.5q-18 -18 -40 -27t-45 -9t-44 9.5t-37 27.5z" />
    <glyph glyph-name="Y" unicode="Y" horiz-adv-x="1211" 
d="M490 624q0 24 9 45.5t24.5 37.5t37 25t46.5 9t46.5 -9t37.5 -25t25 -37.5t9 -45.5v-517q0 -25 -9 -46.5t-25 -37.5t-37.5 -25t-46.5 -9t-46.5 9t-37 25t-24.5 37.5t-9 46.5v517zM989 1240q15 19 36 28t44 8.5t45.5 -9.5t40.5 -26q17 -17 25.5 -38.5t8.5 -44t-8.5 -44.5
t-24.5 -40l-479 -573q-18 -18 -27.5 -14t-17 19t-16 36t-25.5 38q-18 18 -26.5 39t-7.5 42.5t10.5 42t27.5 38.5zM619 742q18 -18 27.5 -38.5t10.5 -42t-7.5 -42.5t-26.5 -39q-17 -17 -27 -38t-18 -35.5t-18 -17.5t-28 15l-474 570q-16 19 -24.5 40.5t-8.5 44t8 43.5t26 39
q18 17 40.5 26t45.5 9.5t44 -8.5t36 -28z" />
    <glyph glyph-name="Z" unicode="Z" horiz-adv-x="1172" 
d="M1093 1158q0 -15 -7.5 -33.5t-18.5 -38t-24.5 -38.5t-25.5 -34l-616 -793h601q57 0 89.5 -30.5t32.5 -82.5q0 -26 -10 -47.5t-26.5 -37t-38 -24.5t-44.5 -9h-820q-36 0 -67.5 17t-44.5 53q-17 37 -6.5 76.5t39.5 80.5q76 99 157.5 203t164 209.5t164 210t158.5 203.5
l-542 -1q-25 0 -47 9t-38 25t-25 37t-9 45q0 23 8.5 44.5t24.5 38t38 26t49 9.5h762q27 0 49.5 -9.5t38.5 -26t25 -37.5t9 -45z" />
    <glyph glyph-name="bracketleft" unicode="[" horiz-adv-x="566" 
d="M554 -207q0 -24 -9.5 -45t-25.5 -36t-37.5 -23.5t-45.5 -8.5h-205q-31 0 -53 14t-36.5 37t-21.5 51.5t-7 57.5v1326q0 23 9.5 42.5t25.5 34t37.5 22.5t45.5 8h205q24 0 45.5 -8t37.5 -23t25.5 -35.5t9.5 -45.5q0 -24 -9.5 -46.5t-25.5 -39.5t-37.5 -27t-45.5 -10l-87 2
v-1126l87 2q24 0 45.5 -10t37.5 -27.5t25.5 -39.5t9.5 -46z" />
    <glyph glyph-name="backslash" unicode="\" horiz-adv-x="945" 
d="M91 1248q19 17 41 24.5t43.5 6.5t41.5 -9t34 -21q12 -12 23 -35t19 -40q46 -95 98.5 -203.5t106.5 -220.5t108 -223.5t103 -214t91 -191t73 -154.5q10 -18 13 -37t0 -37t-12 -34.5t-24 -29.5q-22 -19 -49.5 -26.5t-54 -3.5t-49.5 20.5t-37 45.5q-74 154 -149.5 313.5
t-151.5 318.5t-149.5 315t-142.5 302q-10 20 -12.5 38t3.5 37q8 35 33 59z" />
    <glyph glyph-name="bracketright" unicode="]" horiz-adv-x="565" 
d="M2 -207q0 24 9.5 46.5t25.5 39.5t37.5 27t45.5 10l87 -2v1126l-87 -2q-24 0 -45.5 10t-37.5 27t-25.5 39.5t-9.5 46.5q0 25 9.5 45.5t25.5 35.5t37.5 23t45.5 8h205q30 0 52 -13.5t36.5 -35t21.5 -49t7 -55.5v-1280q-1 -29 -8 -57.5t-20.5 -51.5t-35.5 -37t-53 -14h-205
q-23 0 -44.5 8.5t-38 23.5t-26 36t-9.5 45z" />
    <glyph glyph-name="asciicircum" unicode="^" horiz-adv-x="1042" 
d="M919 881q0 -30 -15.5 -54.5t-41.5 -37.5q-29 -17 -60 -16q-29 5 -56 23t-48 40l-177 203l-177 -203q-21 -23 -48 -40.5t-55 -22.5q-19 -1 -37 3q-38 9 -61.5 41t-19.5 72q6 32 30 62.5t48 54.5l222 225q20 19 45.5 35t54.5 16q26 0 51 -15.5t45 -35.5l222 -225
q13 -13 27 -28t25 -31.5t18.5 -33t7.5 -32.5z" />
    <glyph glyph-name="underscore" unicode="_" horiz-adv-x="1111" 
d="M988 98q0 -30 -14 -52.5t-36 -37t-50 -21.5t-56 -7h-554q-29 0 -56.5 7t-50 21.5t-36 36.5t-13.5 53q0 30 13.5 52.5t36 37t50 21.5t56.5 7h554q28 0 56 -7t50 -22t36 -37t14 -52z" />
    <glyph glyph-name="grave" unicode="`" horiz-adv-x="349" 
d="M137 1341q26 0 58 -20.5t60 -48t47 -55.5t20 -43q3 -20 -1 -34q-7 -33 -39 -47q-23 -11 -47 -8q-19 0 -49.5 15t-61 37t-53.5 46.5t-27 43.5q-5 22 1 42.5t18.5 36.5t31.5 25.5t42 9.5z" />
    <glyph glyph-name="a" unicode="a" 
d="M1052 65q0 -37 -19 -56.5t-54 -19.5q-37 0 -60.5 21.5t-34.5 56.5l-43 171l-25 13v230q0 25 9.5 46t25.5 37t37.5 25t45.5 9q25 0 46.5 -9t37.5 -25t25 -37t9 -46v-416zM992 483q0 -102 -29.5 -192t-85.5 -157t-136.5 -106t-182.5 -39t-191.5 39t-157 106t-106.5 157
t-39 192t39 191.5t106.5 156.5t157 106t191.5 39t182.5 -39t136.5 -106t85.5 -156.5t29.5 -191.5zM814 483q0 54 -20 102.5t-54.5 84.5t-81 57t-100.5 21t-101 -21t-81.5 -57t-54 -84.5t-19.5 -102.5q0 -55 19.5 -103.5t54 -84.5t81.5 -57t101 -21t100.5 21t81 57t54.5 84.5
t20 103.5zM1052 452q0 -25 -9 -46.5t-25 -37.5t-37.5 -25t-46.5 -9q-24 0 -45.5 9t-37.5 25t-25.5 37.5t-9.5 46.5v262l25 14l43 132q12 63 39.5 89.5t64.5 26.5q64 0 64 -64v-460z" />
    <glyph glyph-name="b" unicode="b" horiz-adv-x="1171" 
d="M122 1173q0 25 9 46.5t25 37.5t37.5 25t46.5 9q24 0 45.5 -9t37.5 -25t25.5 -37.5t9.5 -46.5v-763l-25 -172l-43 -133q-12 -62 -39.5 -89t-64.5 -27q-64 0 -64 64v1120zM184 483q0 102 36 191.5t97.5 156.5t144 106t175.5 39q102 0 188.5 -39t149.5 -106t99 -156.5
t36 -191.5t-36 -192t-99 -157t-149.5 -106t-188.5 -39t-185.5 39t-143 106t-92 157t-32.5 192zM358 483q0 -55 20 -103.5t55 -84.5t82 -57t101 -21t100.5 21t81 57t54.5 84.5t20 103.5q0 54 -20 102.5t-54.5 84.5t-81 57t-100.5 21t-101 -21t-82 -57t-55 -84.5t-20 -102.5z
" />
    <glyph glyph-name="c" unicode="c" horiz-adv-x="1008" 
d="M906 840q38 -41 38 -84q0 -24 -10 -45.5t-27 -36t-40 -21t-48 -1.5q-51 25 -103 49.5t-112 35.5q-57 7 -112 -7t-98 -47t-69 -83.5t-26 -116.5q0 -64 24.5 -114.5t66.5 -84t97 -48.5t117 -7q48 5 93.5 24t80.5 51q23 12 51.5 15t54.5 -8q28 -11 45 -37.5t17 -61.5
q0 -40 -31 -80t-84.5 -71.5t-125 -51.5t-151.5 -20q-102 0 -191.5 39t-156.5 106t-106 157t-39 192t39 191.5t106 156.5t156.5 106t191.5 39q50 0 100 -9t96.5 -26.5t86.5 -42.5t69 -58z" />
    <glyph glyph-name="d" unicode="d" horiz-adv-x="1171" 
d="M813 1173q0 25 9.5 46.5t25.5 37.5t37.5 25t45.5 9q25 0 46.5 -9t37.5 -25t25 -37.5t9 -46.5v-1120q0 -64 -65 -64q-36 0 -64 27t-39 89l-43 133l-25 13v922zM976 483q0 -102 -31 -192t-88.5 -157t-139 -106t-183.5 -39t-188.5 39t-149.5 106t-99 157t-36 192t36 191.5
t99 156.5t149.5 106t188.5 39q85 0 165 -39t141.5 -106t98.5 -156.5t37 -191.5zM813 483q0 54 -20 102.5t-55 84.5t-82 57t-101 21t-101 -21t-81.5 -57t-54 -84.5t-19.5 -102.5q0 -55 19.5 -103.5t54 -84.5t81.5 -57t101 -21t101 21t82 57t55 84.5t20 103.5z" />
    <glyph glyph-name="e" unicode="e" horiz-adv-x="1111" 
d="M555 -10q-102 0 -191.5 39t-157 105.5t-106.5 156.5t-39 192q0 108 40 198.5t109 156t160 102.5t193 37t190.5 -36t154.5 -100t104 -152t38 -191q0 -50 -26 -67t-89 -17h-632q4 -46 25.5 -87.5t55.5 -73t78 -50.5t94 -19q48 0 93 16.5t81 47.5q21 12 50 13t56 -9
t46 -32.5t19 -56.5q0 -39 -32 -71t-82 -54.5t-112 -35t-120 -12.5zM563 785q-49 0 -94 -17t-80 -47t-58.5 -70.5t-29.5 -88.5h511q-4 48 -25.5 88.5t-55 70.5t-77 47t-91.5 17z" />
    <glyph glyph-name="f" unicode="f" horiz-adv-x="759" 
d="M580 867q22 0 41.5 -8.5t34.5 -23t23.5 -34t8.5 -42.5q0 -22 -8.5 -41.5t-23.5 -34t-34.5 -23t-41.5 -8.5h-431q-23 0 -42.5 8.5t-33.5 23t-22.5 34t-8.5 41.5q0 23 8.5 42.5t22.5 34t33.5 23t42.5 8.5h431zM716 1202q0 -36 -19 -64t-51 -40q-37 -8 -70 -20t-58.5 -34.5
t-40.5 -58t-16 -89.5v-788q0 -23 -9 -44.5t-24.5 -38t-37.5 -26t-47 -9.5q-26 0 -47.5 10t-37.5 26.5t-24.5 37.5t-8.5 44v738q0 103 23.5 190t70 150t116.5 98.5t163 35.5q25 0 46.5 -9t37.5 -25t25 -37.5t9 -46.5z" />
    <glyph glyph-name="g" unicode="g" 
d="M597 -182q128 4 184 87t46 247q-13 -32 -42 -61t-69.5 -52t-89.5 -36.5t-101 -13.5q-102 0 -187 39t-146.5 106t-95.5 157t-34 192t34 191.5t95.5 156.5t146.5 106t187 39q60 0 115 -16t101.5 -41t83 -56.5t59.5 -61.5q7 85 32 129.5t66 44.5q20 0 33.5 -12t21 -30.5
t10.5 -41t3 -43.5v-763q0 -119 -37.5 -209t-99.5 -150t-142.5 -90t-166.5 -30q-53 0 -101 8t-85 25.5t-58.5 44t-21.5 62.5q0 22 9 40t23.5 30t34 17.5t40.5 4.5q37 -5 71 -13t81 -7zM301 483q0 -55 17.5 -103.5t50 -84.5t77.5 -57t99 -21t102.5 21t85 57t58 84.5
t21.5 103.5q0 53 -22 101t-58.5 84.5t-85 58t-101.5 21.5q-54 0 -99 -21t-77.5 -57t-50 -84.5t-17.5 -102.5z" />
    <glyph glyph-name="h" unicode="h" horiz-adv-x="1211" 
d="M865 234v252q0 54 -18.5 102.5t-51.5 84.5t-78 57t-99 21q-55 0 -104 -24.5t-86 -65t-58.5 -91.5t-21.5 -104l-9 317q10 30 38.5 64.5t70.5 63.5t94 48.5t111 19.5q100 0 183 -39t141.5 -105.5t91 -156t32.5 -191.5v-288zM112 1165q0 24 9 45.5t25 37.5t37.5 25t46.5 9
q24 0 45.5 -9t37.5 -25t25.5 -37.5t9.5 -45.5v-1057q0 -25 -9.5 -46.5t-25.5 -37.5t-37.5 -25t-45.5 -9q-25 0 -46.5 9t-37.5 25t-25 37.5t-9 46.5v1057zM1101 260v-150q0 -23 -9 -45t-24.5 -38.5t-37.5 -26.5t-47 -10q-30 0 -52 11.5t-36.5 30t-22 42.5t-7.5 50v144z" />
    <glyph glyph-name="i" unicode="i" horiz-adv-x="459" 
d="M112 861q0 24 9 45.5t24.5 37.5t37 25t46.5 9q24 0 45.5 -9t37.5 -25t25.5 -37.5t9.5 -45.5v-753q0 -25 -9.5 -46.5t-25.5 -37.5t-37.5 -25t-45.5 -9q-25 0 -46.5 9t-37 25t-24.5 37.5t-9 46.5v753zM100 1230q0 27 10 50.5t27.5 40.5t41.5 27t51 10t50.5 -10t41.5 -27
t28 -40.5t10 -50.5t-10 -50.5t-28 -40.5t-41.5 -26.5t-50.5 -9.5t-51 9.5t-41.5 26.5t-27.5 40.5t-10 50.5z" />
    <glyph glyph-name="j" unicode="j" horiz-adv-x="461" 
d="M-143 -247q0 35 19 63.5t51 40.5q37 8 70.5 20t58.5 34.5t40 58t16 89.5v792q0 25 8.5 48t24 40t37.5 27.5t48 10.5t48 -10.5t37.5 -28t24 -40t8.5 -47.5v-742q0 -104 -23 -191t-69.5 -150t-116.5 -98t-164 -35q-24 0 -45.5 9t-37.5 25t-25.5 37.5t-9.5 46.5zM104 1233
q0 26 9.5 49t26.5 39.5t40 26t50 9.5q26 0 49 -9.5t40.5 -26t27.5 -39.5t10 -49q0 -27 -10 -49.5t-27.5 -39t-40.5 -26t-49 -9.5q-27 0 -50 9.5t-40 26t-26.5 39t-9.5 49.5z" />
    <glyph glyph-name="k" unicode="k" horiz-adv-x="1107" 
d="M348 554l448 347q27 20 57 39.5t61 34.5q15 5 31.5 6.5t33.5 -3.5q24 -7 44.5 -26t28.5 -45q7 -22 6 -46q-1 -15 -8.5 -30.5t-19 -30t-25 -27.5t-26.5 -23l-201 -155l259 -415q22 -26 26 -57t-7 -58.5t-35.5 -47t-58.5 -22.5q-16 -4 -31.5 -1t-29 10.5t-25 18t-20.5 21.5
l-260 417q-39 -31 -73 -57t-64 -49t-57 -44.5t-54 -42.5v286zM112 1165q0 24 9 45.5t25 37.5t37.5 25t46.5 9q24 0 45.5 -9t37.5 -25t25.5 -37.5t9.5 -45.5v-1057q0 -25 -9.5 -46.5t-25.5 -37.5t-37.5 -25t-45.5 -9q-25 0 -46.5 9t-37.5 25t-25 37.5t-9 46.5v1057z" />
    <glyph glyph-name="l" unicode="l" horiz-adv-x="460" 
d="M112 1165q0 24 9 45.5t25 37.5t37.5 25t46.5 9q24 0 45.5 -9t37.5 -25t25.5 -37.5t9.5 -45.5v-1057q0 -25 -9.5 -46.5t-25.5 -37.5t-37.5 -25t-45.5 -9q-25 0 -46.5 9t-37.5 25t-25 37.5t-9 46.5v1057z" />
    <glyph glyph-name="m" unicode="m" horiz-adv-x="1653" 
d="M1306 499q0 53 -8 98.5t-27.5 78.5t-52.5 52t-82 19q-47 0 -83 -19.5t-60 -53.5t-36.5 -79.5t-12.5 -97.5l-108 287q13 27 40 60.5t67.5 62.5t93.5 49t118 20q107 0 181 -39t119.5 -105.5t65.5 -156t20 -191.5v-377q0 -22 -8.5 -43t-23.5 -37.5t-36.5 -26.5t-47.5 -10
q-25 0 -46.5 9.5t-37.5 25.5t-25.5 37.5t-9.5 45.5v391zM112 913q0 64 64 64q37 0 64.5 -27t39.5 -89l43 -152l25 -14v-587q0 -25 -9.5 -46.5t-25.5 -37.5t-37.5 -25t-45.5 -9q-25 0 -46.5 9t-37.5 25t-25 37.5t-9 46.5v805zM710 499q0 53 -8 98.5t-28 78.5t-53 52t-82 19
q-47 0 -82.5 -19.5t-59.5 -53.5t-36.5 -79.5t-12.5 -97.5l-111 277q13 27 41 62t68.5 66t94 52.5t118.5 21.5q107 0 180.5 -37t119.5 -102t66 -153t20 -190v-387q0 -22 -8.5 -43t-24.5 -37.5t-37.5 -26.5t-46.5 -10t-46.5 9.5t-37.5 25.5t-25 37.5t-9 45.5v391z" />
    <glyph glyph-name="n" unicode="n" horiz-adv-x="1213" 
d="M865 483q0 54 -18.5 102.5t-51.5 84.5t-78 57t-99 21q-53 0 -102 -22t-86.5 -58.5t-59.5 -85t-22 -101.5l-85 308q34 41 78.5 75.5t95 59t104.5 38.5t107 14q102 0 185.5 -39t143 -105.5t92 -156t32.5 -191.5v-376q0 -23 -8.5 -44t-24.5 -37.5t-37.5 -26.5t-46.5 -10
t-46.5 9.5t-37.5 25.5t-25.5 37.5t-9.5 45.5v375zM112 913q0 64 64 64q37 0 64 -25.5t40 -90.5l43 -182l25 -14v-557q0 -25 -9.5 -46.5t-25.5 -37.5t-37.5 -25t-45.5 -9q-25 0 -46.5 9t-37.5 25t-25 37.5t-9 46.5v805z" />
    <glyph glyph-name="o" unicode="o" horiz-adv-x="1110" 
d="M61 484q0 102 39 191.5t106.5 156.5t157 106t191.5 39t191.5 -39t157 -106t106.5 -156.5t39 -191.5t-39 -192t-106.5 -157t-157 -106t-191.5 -39t-191.5 39t-157 106t-106.5 157t-39 192zM299 484q0 -55 19.5 -103.5t54 -84.5t81.5 -57t101 -21t100.5 21t81 57t54.5 84.5
t20 103.5q0 54 -20 102.5t-54.5 84.5t-81 57t-100.5 21t-101 -21t-81.5 -57t-54 -84.5t-19.5 -102.5z" />
    <glyph glyph-name="p" unicode="p" horiz-adv-x="1161" 
d="M112 913q0 64 64 64q37 0 64.5 -27t39.5 -89l43 -132l25 -14v-921q0 -25 -9.5 -46.5t-25.5 -37.5t-37.5 -25t-45.5 -9q-51 0 -84.5 33.5t-33.5 84.5v1119zM176 484q0 102 32.5 191.5t91.5 156.5t142 106t185 39t188.5 -39t149.5 -106t99 -156.5t36 -191.5t-36 -192
t-99 -157t-149.5 -106t-188.5 -39q-90 0 -171.5 39t-143.5 106t-99 157t-37 192zM350 484q0 -55 19.5 -103.5t54 -84.5t81.5 -57t101 -21t100.5 21t81 57t54.5 84.5t20 103.5q0 54 -20 102.5t-54.5 84.5t-81 57t-100.5 21t-101 -21t-81.5 -57t-54 -84.5t-19.5 -102.5z" />
    <glyph glyph-name="q" unicode="q" horiz-adv-x="1161" 
d="M1049 -206q0 -51 -33.5 -84.5t-84.5 -33.5q-24 0 -45.5 9t-37.5 25t-25.5 37.5t-9.5 46.5v921l25 14l43 132q11 62 39 89t64 27q65 0 65 -64v-1119zM976 484q0 -102 -35 -192t-95 -157t-140.5 -106t-171.5 -39q-102 0 -188.5 39t-149.5 106t-99 157t-36 192t36 191.5
t99 156.5t149.5 106t188.5 39t183.5 -39t139 -106t88.5 -156.5t31 -191.5zM811 484q0 54 -20 102.5t-54.5 84.5t-81 57t-100.5 21t-101 -21t-81.5 -57t-54 -84.5t-19.5 -102.5q0 -55 19.5 -103.5t54 -84.5t81.5 -57t101 -21t100.5 21t81 57t54.5 84.5t20 103.5z" />
    <glyph glyph-name="r" unicode="r" horiz-adv-x="851" 
d="M270 800q18 24 46 51t64 51t79 42.5t92 26.5q35 3 79.5 -1t84 -18t66.5 -41t27 -69q0 -28 -14.5 -50.5t-35.5 -34.5q-22 -13 -45 -15.5t-64 -0.5q-33 1 -67.5 3.5t-68.5 -8.5q-33 -11 -61.5 -32t-50 -50.5t-35.5 -66.5t-18 -78zM112 913q0 64 64 64q37 0 64 -25.5
t40 -90.5l43 -182l25 -14v-557q0 -25 -9.5 -46.5t-25.5 -37.5t-37.5 -25t-45.5 -9q-25 0 -46.5 9t-37.5 25t-25 37.5t-9 46.5v805z" />
    <glyph glyph-name="s" unicode="s" horiz-adv-x="999" 
d="M496 -10q-68 0 -141 17.5t-135.5 51.5t-106 83t-51.5 112q-2 24 7.5 44.5t27 34.5t39.5 19.5t45 -1.5q23 -6 47 -31.5t58 -54t83 -51.5t123 -23q41 -3 77.5 1.5t64.5 15t44 27.5t16 40q0 21 -25 38t-66 34t-93 35t-107 40.5t-107 50.5t-93 64.5t-66 83.5t-25 107
q0 45 25.5 91t75.5 82.5t123.5 60t168.5 23.5q67 0 130.5 -12t116 -36.5t90 -62t54.5 -87.5q6 -29 -5.5 -51.5t-31 -36.5t-44 -18.5t-45.5 1.5q-22 8 -45.5 24t-51 33t-60 31.5t-72.5 19.5q-85 10 -135 -8.5t-50 -60.5q0 -36 43 -64.5t108 -55.5t140 -56.5t140 -67.5
t108 -88.5t43 -119.5q0 -76 -38 -129t-100 -86.5t-141.5 -48.5t-162.5 -15z" />
    <glyph glyph-name="t" unicode="t" horiz-adv-x="719" 
d="M576 958q24 0 45 -8.5t36.5 -24t24.5 -36.5t9 -46q0 -24 -9 -44.5t-24.5 -36.5t-36.5 -25t-45 -9h-430q-24 0 -45 9t-36.5 25t-24.5 36.5t-9 44.5q0 25 9 46t24.5 36.5t36.5 24t45 8.5h430zM241 1165q0 24 9 45.5t24.5 37.5t37 25t46.5 9q24 0 45.5 -9t37.5 -25
t25.5 -37.5t9.5 -45.5v-1057q0 -25 -9.5 -46.5t-25.5 -37.5t-37.5 -25t-45.5 -9q-25 0 -46.5 9t-37 25t-24.5 37.5t-9 46.5v1057z" />
    <glyph glyph-name="u" unicode="u" horiz-adv-x="1212" 
d="M348 485q0 -55 18.5 -103.5t51.5 -84.5t78 -57t99 -21q53 0 102 22t86.5 59t59.5 85.5t22 101.5l86 -309q-35 -41 -79.5 -75.5t-95 -59t-104.5 -38.5t-107 -14q-102 0 -185.5 39t-143 105.5t-92 156.5t-32.5 192v376q0 22 8.5 43.5t24.5 37.5t37 26t47 10q25 0 46.5 -9
t37.5 -25t25.5 -37.5t9.5 -45.5v-375zM1101 54q0 -64 -64 -64q-36 0 -63.5 25.5t-40.5 90.5l-43 183l-25 13v558q0 25 9.5 46t25.5 37t37.5 25t45.5 9q25 0 46.5 -9t37.5 -25t25 -37t9 -46v-806z" />
    <glyph glyph-name="v" unicode="v" horiz-adv-x="992" 
d="M606 57q-17 -35 -48.5 -52t-65.5 -15q-32 -2 -60 16t-45 50l-343 753q-11 22 -12.5 45.5t5.5 45t22 39t38 28.5q22 11 45.5 12t44.5 -6.5t39 -23t29 -37.5l239 -579l242 579q9 22 26.5 38t39 23.5t45.5 6t46 -12.5q22 -10 38 -27t23.5 -38t7 -44.5t-10.5 -45.5z" />
    <glyph glyph-name="w" unicode="w" horiz-adv-x="1635" 
d="M816 613l-197 -499q-21 -54 -58 -89t-79 -35q-33 -1 -61 15.5t-44 50.5l-306 690q-26 59 -38 114q-2 34 14 62.5t50 44.5q22 10 45.5 11.5t44.5 -6t39 -23t29 -37.5l230 -569l224 569q11 27 34.5 44t52.5 21q38 7 74 -10.5t56 -53.5l217 -570l237 569q9 22 26.5 37.5
t39 23t45.5 6t47 -11.5q32 -15 49.5 -43.5t15.5 -60.5q0 -6 -3 -19.5t-8.5 -30t-12 -33.5t-12.5 -31l-318 -692q-27 -53 -81 -64q-19 -5 -40 -3t-40 10t-34.5 22.5t-22.5 34.5z" />
    <glyph glyph-name="x" unicode="x" horiz-adv-x="1060" 
d="M870 303q15 -14 34.5 -32.5t38 -35.5t33 -30.5t19.5 -18.5q26 -24 31 -50t0 -48t-15 -38.5t-14 -21.5q-12 -14 -31.5 -24t-42 -13t-46 4t-45.5 27q-9 9 -24.5 25t-32.5 34t-34.5 36.5t-31.5 33.5l-180 182l-182 -185q-15 -16 -32 -34t-32.5 -34.5t-28.5 -30t-22 -21.5
q-13 -14 -32.5 -24.5t-42 -13t-46.5 4.5t-46 28q-14 13 -23.5 33t-11.5 42.5t6 45.5t30 42q7 8 22 22.5t32.5 31t36.5 34t35 32.5l187 177l-196 185q-16 15 -34.5 32.5t-35 33t-28 26l-11.5 10.5q-21 20 -31.5 43.5t-11.5 46.5t7.5 44t24.5 37q15 15 35.5 25t44.5 10.5
t50 -11t53 -41.5q10 -12 21 -24q10 -11 22 -24.5t26 -27.5l214 -217l303 312q8 9 25 19t39 13.5t47 -3t50 -29.5q15 -14 24.5 -33t11 -41t-6 -44.5t-26.5 -42.5q-8 -9 -23 -24t-33.5 -32t-38 -34.5t-35.5 -31.5l-187 -176z" />
    <glyph glyph-name="y" unicode="y" horiz-adv-x="1010" 
d="M386 84q0 1 -14.5 32t-37.5 82t-52.5 115.5t-60.5 132.5l-164 360q-21 49 -9 95.5t60 69.5q22 10 47 11.5t48 -7t41.5 -26.5t28.5 -45l236 -602q54 138 96.5 247t72.5 187t47 122.5t21 53.5q9 21 26 37.5t38 25t45.5 8.5t50.5 -12q13 -6 29 -20t26 -34t11.5 -47
t-13.5 -59l-398 -894q-22 -50 -50.5 -89.5t-66.5 -67.5t-87 -44t-112 -18q-58 -1 -95.5 29t-37.5 87q0 28 11.5 44.5t30.5 27t43 17.5t48.5 15t48 19.5t40.5 31.5z" />
    <glyph glyph-name="z" unicode="z" horiz-adv-x="1084" 
d="M962 840q0 -15 -4 -30t-13.5 -32t-27 -38t-44.5 -49l-469 -472h475q57 0 92 -25.5t35 -77.5q0 -26 -10 -46.5t-26.5 -35.5t-37.5 -23t-44 -8h-709q-37 0 -68 17t-44 53q-15 38 -7.5 83.5t48.5 82.5l531 506l-406 -2q-27 0 -50.5 6.5t-41 19.5t-28 32t-10.5 44
q0 49 34.5 81t91.5 32h610q27 0 50 -9.5t39 -26t25 -38t9 -44.5z" />
    <glyph glyph-name="braceleft" unicode="{" horiz-adv-x="605" 
d="M389 584v-357v-286q1 -10 11 -10h56q23 0 45 -9t39 -25.5t27 -39t10 -48.5q0 -31 -12.5 -52.5t-33.5 -35t-47.5 -19.5t-54.5 -6h-48q-51 3 -93 23.5t-72 52.5t-46.5 73t-16.5 85v424q0 19 -8 30.5t-20 19.5t-26 14.5t-26 15.5t-20 22.5t-8 34.5q0 20 8 32t20 20t26 13.5
t26 14t20 22.5t8 37v107zM153 662v391q0 43 16.5 84.5t46.5 74t72 53t93 22.5h8.5t15.5 0.5t15.5 0.5h8.5q28 0 54.5 -6t47.5 -19.5t33.5 -35t12.5 -52.5q0 -27 -10 -49t-27 -38.5t-39 -25.5t-45 -9h-56q-11 0 -11 -11v-533z" />
    <glyph glyph-name="bar" unicode="|" horiz-adv-x="460" 
d="M229 1293q25 0 47 -10t37.5 -26.5t24.5 -38.5t9 -46v-1337q0 -25 -9.5 -46.5t-25.5 -37t-37.5 -24.5t-45.5 -9q-56 0 -86.5 34t-30.5 82v1341q0 24 9 45.5t24.5 37.5t37 25.5t46.5 9.5z" />
    <glyph glyph-name="braceright" unicode="}" horiz-adv-x="605" 
d="M452 737v-107q0 -23 8 -37t20 -22.5t26 -14t26 -13.5t20 -20t8 -32q0 -21 -8 -34.5t-20 -22.5t-26 -15.5t-26 -14.5t-20 -19.5t-8 -30.5v-424q0 -44 -16.5 -85t-46.5 -73t-72 -52.5t-93 -23.5h-48q-28 0 -54.5 6t-47.5 19.5t-33.5 35t-12.5 52.5q0 26 10 48.5t27 39
t39 25.5t45 9h56q10 0 11 10v286v357zM216 509v533q0 11 -11 11h-56q-23 0 -45 9t-39 25.5t-27 38.5t-10 49q0 31 12.5 52.5t33.5 35t47.5 19.5t54.5 6h8.5t15.5 -0.5t15.5 -0.5h8.5q51 -2 93 -22.5t72 -53t46.5 -74t16.5 -84.5v-391z" />
    <glyph glyph-name="asciitilde" unicode="~" horiz-adv-x="1313" 
d="M70 459q0 75 29 140t79 112t116.5 74t142.5 27q65 0 117.5 -21t96 -55.5t78.5 -78.5t64 -90q17 -20 41 -32.5t62 -12.5q48 0 80 29t45 76q5 28 14.5 56.5t25 51.5t37 37.5t50.5 14.5q34 0 58.5 -17.5t33.5 -46.5q10 -46 5 -90q-6 -68 -36.5 -125t-78.5 -98t-109 -64
t-129 -23q-67 0 -121 20.5t-98.5 54t-80.5 76.5t-67 89q-19 22 -42 35t-57 13q-48 0 -80 -29.5t-46 -74.5q-8 -28 -18 -56t-25 -50.5t-36 -37t-50 -14.5q-47 0 -74 31.5t-27 78.5z" />
    <glyph glyph-name="exclamdown" unicode="&#xa1;" horiz-adv-x="357" 
d="M190 747.051q-24 0 -45.5 -8.99902q-21.5 -8.99805 -37.5 -25.4951t-25.5 -39.4932q-9.5 -22.9951 -9.5 -51.9902v-790.854q0 -28.9951 9 -52.9912q9 -23.9951 25 -41.4922t37.5 -26.9951t46.5 -9.49805q52 0 85 36.4932t33 94.4834v790.854q0 28.9951 -9.5 51.9902
q-9.5 22.9961 -25.5 39.4932t-37.5 25.4951q-21.5 8.99902 -45.5 8.99902zM316 1003q0 25.9951 -10 48.9902q-10 22.9961 -27 39.9932t-40 26.4951t-49 9.49805q-27 0 -50 -9.49805t-40 -26.4951t-27 -39.9932q-10 -22.9951 -10 -48.9902q0 -26.9951 10 -49.4912
t27 -38.9932t40 -25.9951t50 -9.49805q26 0 49 9.49805t40 25.9951t27 38.9932t10 49.4912z" />
    <glyph glyph-name="cent" unicode="&#xa2;" horiz-adv-x="1008" 
d="M412 901v204q0 24 6.5 46t20 39t33.5 27t47 10q20 0 39 -7.5t33.5 -21t23.5 -31t10 -38.5q1 -26 1.5 -51t0.5 -51v-171zM627 76v-235q0 -22 -8.5 -41t-23.5 -33t-34.5 -22t-41.5 -8q-23 0 -42.5 8t-33.5 22t-22.5 33t-8.5 41v235h215zM866 840q38 -41 38 -84
q0 -24 -10 -45.5t-27 -36t-40 -21t-48 -1.5q-51 25 -103 49.5t-112 35.5q-57 7 -112 -7t-98 -47t-69 -83.5t-26 -116.5q0 -64 24.5 -114.5t66.5 -84t97 -48.5t117 -7q48 5 93.5 24t80.5 51q23 12 51.5 15t54.5 -8q28 -11 45 -37.5t17 -61.5q0 -40 -31 -80t-84.5 -71.5
t-125 -51.5t-151.5 -20q-102 0 -191.5 39t-156.5 106t-106 157t-39 192t39 191.5t106 156.5t156.5 106t191.5 39q50 0 100 -9t96.5 -26.5t86.5 -42.5t69 -58z" />
    <glyph glyph-name="sterling" unicode="&#xa3;" horiz-adv-x="1028" 
d="M347 773v-548h488q59 0 97.5 -31.5t38.5 -86.5q0 -57 -35 -87.5t-92 -30.5h-601q-29 1 -53.5 11.5t-42 29t-27.5 43t-10 54.5v601zM499 756q22 0 41.5 -8.5t34 -23t23 -34t8.5 -42.5q0 -22 -8.5 -41.5t-23 -34t-34 -23t-41.5 -8.5h-432q-23 0 -42.5 8.5t-33.5 23
t-22.5 34t-8.5 41.5q0 23 8.5 42.5t22.5 34t33.5 23t42.5 8.5h432zM110 677v162q0 103 23.5 190t70 150t116.5 98.5t163 35.5q25 0 46.5 -9t37.5 -25t25 -37.5t9 -46.5q0 -36 -19 -64t-51 -40q-37 -8 -70 -20t-58.5 -34.5t-40.5 -58t-16 -89.5v-244z" />
    <glyph glyph-name="currency" unicode="&#xa4;" horiz-adv-x="1193" 
d="M879 574l95 -94q3 -2 5 -8q15 -17 20 -40t-0.5 -44.5t-21 -40t-41.5 -26.5q-25 -11 -53.5 -6t-48.5 25l-95 95zM397 777l-93 93q-2 2 -2.5 4.5t-1.5 4.5q-15 17 -20 39.5t0.5 44t20.5 39.5t41 26q26 11 54 6.5t48 -24.5l92 -93zM730 905l104 104q4 4 8 4q17 15 39.5 20.5
t45 0.5t41 -20.5t27.5 -42.5q11 -25 6 -53.5t-26 -49.5l-106 -105zM541 438l-96 -97q-22 -22 -47 -26.5t-48.5 3.5t-42 26t-26.5 41t-4 48.5t27 48.5l99 98zM282 671q0 74 28.5 140t77.5 115t114.5 77.5t139.5 28.5t139.5 -28.5t114.5 -77.5t77.5 -115t28.5 -140
t-28.5 -139.5t-77.5 -114.5t-114.5 -77.5t-139.5 -28.5t-139.5 28.5t-114.5 77.5t-77.5 114.5t-28.5 139.5zM483 671q0 -33 12.5 -63t34 -52.5t50.5 -36t62 -13.5q34 0 63 13.5t50.5 36t33.5 52.5t12 63q0 34 -12 64t-33.5 52.5t-50.5 35.5t-63 13q-33 0 -62 -13
t-50.5 -35.5t-34 -52.5t-12.5 -64z" />
    <glyph glyph-name="yen" unicode="&#xa5;" horiz-adv-x="1249" 
d="M936 715q34 0 57.5 -24t23.5 -59q0 -34 -23.5 -59t-57.5 -25h-596q-34 0 -57 25t-23 59q0 35 23 59t57 24h596zM937 442q34 0 57.5 -24t23.5 -59q0 -34 -23.5 -59t-57.5 -25h-597q-34 0 -57 25t-23 59q0 35 23 59t57 24h597zM520 684q0 24 9 45.5t25 37.5t37.5 25.5
t46.5 9.5q24 0 45.5 -9.5t37.5 -25.5t25.5 -37.5t9.5 -45.5v-586q0 -25 -9.5 -46.5t-25.5 -37.5t-37.5 -25t-45.5 -9q-25 0 -46.5 9t-37.5 25t-25 37.5t-9 46.5v586zM1029 1230q17 17 38.5 26t44 9.5t44.5 -8t40 -26.5q17 -17 26 -39t9 -44.5t-8.5 -44t-25.5 -38.5
l-490 -503q-18 -18 -27 -14.5t-16.5 18.5t-16 36t-25.5 39q-18 18 -27.5 39.5t-9.5 43.5t9 43.5t27 39.5zM655 807q18 -17 26.5 -38.5t8.5 -44t-9 -44t-27 -39.5q-17 -17 -27 -38t-18.5 -35.5t-18.5 -17.5t-27 15l-484 500q-18 17 -26.5 38.5t-8.5 44t9 44t27 39.5
t39.5 26.5t44 8t44 -9.5t38.5 -26z" />
    <glyph glyph-name="brokenbar" unicode="&#xa6;" horiz-adv-x="458" 
d="M228 1289q21 0 42 -8t38 -24t27.5 -39t10.5 -54v-516q0 -29 -10 -51t-26.5 -37.5t-38 -23.5t-43.5 -8q-23 0 -44 8t-37 23t-26 37.5t-10 51.5v516q0 31 10.5 54.5t27 39t37.5 23.5t42 8zM228 444q25 0 46.5 -10t37.5 -26.5t25 -38t9 -44.5v-519q0 -28 -10 -50
t-26.5 -37.5t-38 -23.5t-43.5 -8q-24 0 -45.5 8.5t-37 24.5t-25 37.5t-9.5 48.5v519q0 25 9.5 47t25.5 38t37.5 25t44.5 9z" />
    <glyph glyph-name="section" unicode="&#xa7;" horiz-adv-x="999" 
d="M494 -8q-65 0 -137.5 17.5t-135.5 51.5t-108 83t-53 112q-2 22 5.5 41.5t21 33.5t31 22.5t36.5 9.5q18 1 35.5 -10t37 -28t42.5 -37.5t52.5 -39t67.5 -33t88 -19.5q41 -3 80.5 -1t71 12t51 30.5t19.5 55.5q0 24 -27 43.5t-71 36.5t-99.5 34.5t-113 38t-111 46.5t-93 60.5
t-60.5 80t-13 104.5q6 43 31.5 89.5t72.5 84.5t117.5 62.5t165.5 24.5q100 0 183 -24q28 -9 58 -29.5t55 -47t43 -55.5t21 -54t-11 -43t-52 -22q-13 1 -18.5 8.5t-15.5 18.5t-30.5 24.5t-63.5 25.5q-45 13 -78.5 20.5t-65.5 5.5q-44 -1 -79 -12t-59.5 -28.5t-37.5 -39.5
t-13 -45q0 -17 9.5 -33.5t34.5 -32.5t69.5 -30.5t115.5 -27.5q60 -11 126 -32t121 -57t90.5 -89t35.5 -128q0 -76 -38 -129t-100 -86.5t-141.5 -48.5t-162.5 -15zM511 426q-50 0 -97 19t-101 41q-59 23 -91 50t-35.5 54t23 52t85.5 43q-1 -1 13.5 -12t39.5 -25t56.5 -28.5
t63.5 -21.5q47 -6 96.5 -5.5t90.5 11t68 32.5t30 60q3 35 -24.5 60.5t-73.5 46.5t-105 39t-120.5 38.5t-119.5 45t-101 58.5t-66 79.5t-14 107.5q6 43 31.5 87t72.5 79.5t117 57.5t165 22q70 0 133 -12.5t114 -37t89.5 -62t59.5 -88.5q4 -26 -3.5 -46t-21.5 -34.5
t-31.5 -22.5t-32.5 -9q-20 -6 -44.5 8.5t-56 35.5t-71 41t-88.5 26q-39 5 -75 1.5t-63.5 -14.5t-44 -29t-16.5 -43q0 -32 52.5 -63t168.5 -63q59 -17 124 -37.5t119.5 -53.5t90 -83.5t35.5 -125.5q0 -76 -37.5 -129t-99.5 -86.5t-141.5 -48.5t-163.5 -15z" />
    <glyph glyph-name="dieresis" unicode="&#xa8;" horiz-adv-x="759" 
d="M47 1400q0 22 8.5 41.5t22.5 34.5t33.5 23.5t42.5 8.5q22 0 41.5 -8.5t34.5 -23.5t23.5 -34.5t8.5 -41.5q0 -23 -8.5 -42.5t-23.5 -33.5t-34.5 -22.5t-41.5 -8.5q-23 0 -42.5 8.5t-33.5 22.5t-22.5 33.5t-8.5 42.5zM380 1400q0 22 8.5 41.5t22.5 34.5t33.5 23.5t41.5 8.5
t42 -8.5t34.5 -23.5t23 -34.5t8.5 -41.5q0 -23 -8.5 -42.5t-23 -33.5t-34.5 -22.5t-42 -8.5t-41.5 8.5t-33.5 22.5t-22.5 33.5t-8.5 42.5z" />
    <glyph glyph-name="copyright" unicode="&#xa9;" horiz-adv-x="1400" 
d="M45 633q0 88 24 170t67 153.5t103 130t132.5 100.5t155 65t171.5 23q88 0 171 -23t155.5 -65t132.5 -100.5t103 -130t67 -153.5t24 -170q0 -89 -24 -171t-67 -153.5t-103 -130t-132.5 -100.5t-155.5 -65t-171 -23t-171 23t-155.5 65t-132.5 100.5t-103 130t-67 153.5
t-24 171zM201 631q0 -98 40 -186t108.5 -154t158.5 -104.5t190 -38.5q99 0 189.5 38.5t158.5 105t108.5 154.5t40.5 187t-40.5 186.5t-108.5 153t-158.5 104t-189.5 38.5q-100 0 -190 -38.5t-158.5 -104.5t-108.5 -154t-40 -187zM876 800q-37 38 -81 59t-98 21
q-51 0 -95.5 -19.5t-78 -53.5t-52.5 -79t-19 -96q0 -50 19.5 -94.5t52.5 -78t77.5 -53.5t95.5 -20q32 0 59 7.5t50.5 20.5t45 30t42.5 37q14 9 38 11t42 -12q26 -21 26 -51q0 -26 -19 -48q-30 -33 -60.5 -56.5t-64 -39t-72.5 -23t-86 -7.5q-79 0 -148.5 30t-121 81
t-81.5 120t-30 147q0 79 30 148t81.5 121t121 82t148.5 30q81 0 147 -26t126 -92q8 -8 12.5 -20.5t4.5 -25.5q1 -11 -4 -25t-16 -25q-17 -14 -43 -17t-49 17z" />
    <glyph glyph-name="ordfeminine" unicode="&#xaa;" horiz-adv-x="1127" 
d="M1081 56q0 -37 -19 -56.5t-54 -19.5q-37 0 -60.5 21.5t-34.5 56.5l-43 171l-25 13v230q0 25 9.5 46t25.5 37t37.5 25t45.5 9q25 0 46.5 -9t37.5 -25t25 -37t9 -46v-416zM1021 474q0 -102 -29.5 -192t-85.5 -157t-136.5 -106t-182.5 -39t-191.5 39t-157 106t-106.5 157
t-39 192t39 191.5t106.5 156.5t157 106t191.5 39t182.5 -39t136.5 -106t85.5 -156.5t29.5 -191.5zM843 474q0 54 -20 102.5t-54.5 84.5t-81 57t-100.5 21t-101 -21t-81.5 -57t-54 -84.5t-19.5 -102.5q0 -55 19.5 -103.5t54 -84.5t81.5 -57t101 -21t100.5 21t81 57t54.5 84.5
t20 103.5zM1081 443q0 -25 -9 -46.5t-25 -37.5t-37.5 -25t-46.5 -9q-24 0 -45.5 9t-37.5 25t-25.5 37.5t-9.5 46.5v262l25 14l43 132q12 63 39.5 89.5t64.5 26.5q64 0 64 -64v-460z" />
    <glyph glyph-name="guillemotleft" unicode="&#xab;" horiz-adv-x="1260" 
d="M551 -6q-15 -6 -31.5 -3t-32.5 11t-30.5 19.5t-25.5 23.5l-332 328q-26 23 -43 51t-17 57q0 31 18.5 59t41.5 51l324 323q21 21 51 34.5t61 15.5t59.5 -11t46.5 -44q12 -19 12 -40.5t-7.5 -42.5t-22 -41t-31.5 -36l-300 -265l308 -278q28 -24 38.5 -58t3.5 -66t-30 -57
t-61 -31zM1056 -6q-15 -6 -31.5 -3t-32 11t-30 19.5t-26.5 23.5l-332 328q-26 23 -43 51t-17 57q0 31 18.5 59t41.5 51l324 323q21 21 51 34.5t61 15.5t59.5 -11t46.5 -44q12 -19 12.5 -40.5t-7.5 -42.5t-22 -41t-31 -36l-300 -265l307 -278q29 -24 39.5 -58t3.5 -66
t-30 -57t-62 -31z" />
    <glyph glyph-name="uni00AD" unicode="&#xad;" horiz-adv-x="919" 
d="M852 605q0 -24 -9 -45.5t-26.5 -37.5t-42.5 -25.5t-58 -9.5h-516q-66 0 -103.5 33t-37.5 85t37.5 85t103.5 33h516q33 0 58 -9.5t42.5 -26t26.5 -37.5t9 -45z" />
    <glyph glyph-name="registered" unicode="&#xae;" horiz-adv-x="1459" 
d="M45 633q0 88 24 170t67 153.5t103 130t132.5 100.5t155 65t171.5 23q88 0 171 -23t155.5 -65t132.5 -100.5t103 -130t67 -153.5t24 -170q0 -89 -24 -171t-67 -153.5t-103 -130t-132.5 -100.5t-155.5 -65t-171 -23t-171 23t-155.5 65t-132.5 100.5t-103 130t-67 153.5
t-24 171zM214 631q0 -64 18 -124t50 -112.5t77 -96t98.5 -75t114.5 -48.5t126 -17q97 0 184.5 38t154 102.5t106 151t39.5 183.5q0 96 -39.5 182t-106 150.5t-154 102t-184.5 37.5t-185 -38t-154.5 -102.5t-105.5 -150.5t-39 -183zM526 860q0 13 1.5 28t6 27.5t13.5 20.5
t24 8q30 0 49 -30.5t23 -93.5q29 45 72.5 76t94.5 42q34 3 60.5 -2.5t46.5 -16.5q10 -4 21 -9.5t20 -13t14.5 -17.5t5.5 -24q0 -19 -10.5 -34t-24.5 -23q-12 -4 -20.5 -6t-16 -3.5t-16 -2t-21.5 -0.5q-14 0 -29.5 0.5t-37.5 -1.5q-27 -6 -48.5 -24.5t-37 -46t-24 -62.5
t-8.5 -74q0 -37 -1 -73.5t-1 -73.5q-1 -24 -4.5 -49.5t-12.5 -46t-24 -34t-37 -13.5q-24 0 -39 14t-24 35t-12 47t-3 50v426z" />
    <glyph glyph-name="macron" unicode="&#xaf;" horiz-adv-x="931" 
d="M735 517q34 0 57.5 -24.5t23.5 -59.5q0 -33 -23.5 -58t-57.5 -25h-544q-33 0 -56.5 25t-23.5 58q0 35 23.5 59.5t56.5 24.5h544z" />
    <glyph glyph-name="degree" unicode="&#xb0;" horiz-adv-x="509" 
d="M81 1014q0 33 12.5 62t33.5 50.5t50 34t62 12.5t61.5 -12.5t50 -34t34 -50.5t12.5 -62q0 -32 -12.5 -61t-34 -50.5t-50 -34t-61.5 -12.5t-62 12.5t-50 34t-33.5 50.5t-12.5 61zM183 1014q0 -24 16 -41t40 -17t40 17t16 41t-16 41.5t-40 17.5t-40 -17.5t-16 -41.5z" />
    <glyph glyph-name="plusminus" unicode="&#xb1;" horiz-adv-x="914" 
d="M547 370q0 -34 -24 -57.5t-59 -23.5q-34 0 -58.5 23.5t-24.5 57.5v544q0 34 24.5 57t58.5 23q35 0 59 -23t24 -57v-544zM735 730q34 0 57.5 -24.5t23.5 -59.5q0 -33 -23.5 -58t-57.5 -25h-544q-33 0 -56.5 25t-23.5 58q0 35 23.5 59.5t56.5 24.5h544zM735 167
q34 0 57.5 -24t23.5 -59q0 -34 -23.5 -58.5t-57.5 -24.5h-544q-33 0 -56.5 24.5t-23.5 58.5q0 35 23.5 59t56.5 24h544z" />
    <glyph glyph-name="twosuperior" unicode="&#xb2;" horiz-adv-x="625" 
d="M540 538q0 -28 -20 -46.5t-50 -18.5h-310q-51 0 -69.5 20t-14.5 54q4 26 28 52.5t56.5 52t69.5 50t68.5 47t52.5 41.5t21 35q0 13 -9.5 21.5t-24 12.5t-31 3.5t-29.5 -3.5q-11 -2 -22 -6.5t-20.5 -11t-16 -14t-7.5 -16.5q-8 -18 -25 -29t-36 -9q-12 1 -23.5 8t-19.5 18
q-9 11 -11.5 29t0.5 35q5 24 22 46t44.5 39t64 27.5t81.5 10.5q57 0 98.5 -12.5t67.5 -32.5t38.5 -45.5t12.5 -50.5q-1 -25 -16.5 -50t-40 -47.5t-53 -43.5t-55 -39.5t-47.5 -33.5t-28 -26q7 0 31 -0.5t50.5 -0.5h49.5h29q18 0 35 -2.5t30 -9.5t21 -20t8 -34z" />
    <glyph glyph-name="threesuperior" unicode="&#xb3;" horiz-adv-x="414" 
d="M121 994h178q12 0 23 -6.5t18.5 -17t10 -22.5t-1.5 -23q-10 -14 -17.5 -24t-21.5 -20q-23 -17 -37 -27.5t-21.5 -16.5t-9.5 -8l-2 -2q27 -6 49.5 -20.5t39 -36.5t25.5 -49t9 -57q0 -41 -14.5 -75t-39.5 -58t-59 -37.5t-72 -13.5q-28 0 -57 9t-52 23.5t-38 32.5t-15 35
q0 20 13.5 35.5t27.5 19.5q6 2 16 1t17 -3q10 -6 19.5 -14t20 -14.5t22 -11.5t26.5 -5q35 0 56.5 22t21.5 57t-22.5 57.5t-57.5 22.5q-16 0 -26 -3.5t-19 -3.5q-30 -1 -46 15t-16 30q0 22 12 36.5t29 25.5t35.5 20t31.5 18h-72zM131 885h-58q-24 0 -41 16t-17 39
q0 22 15.5 38t40.5 16h59z" />
    <glyph glyph-name="acute" unicode="&#xb4;" horiz-adv-x="749" 
d="M219 1341q23 0 42 -9.5t32 -25.5t18.5 -36.5t1.5 -42.5q-4 -19 -27.5 -43.5t-53.5 -46.5t-61 -37t-49 -15q-24 -3 -48 8q-32 14 -39 47q-2 8 -2 16.5t2 17.5q0 15 19.5 43t47 55.5t59.5 48t58 20.5z" />
    <glyph glyph-name="mu" unicode="&#xb5;" horiz-adv-x="1213" 
d="M1101 769v-285q0 -102 -32.5 -191.5t-92 -156.5t-143 -106t-185.5 -39q-55 0 -105 15.5t-90 39.5t-68 51.5t-38 51.5l1 338q0 -53 22 -101.5t59.5 -85t86.5 -58.5t102 -22q54 0 99 21t78 57t51.5 84.5t18.5 102.5v249zM112 860q0 25 9 46.5t25 37.5t37.5 25t46.5 9
q24 0 45.5 -9t37.5 -25t25.5 -37.5t9.5 -46.5v-1057q0 -24 -9.5 -45.5t-25.5 -37.5t-37.5 -25.5t-45.5 -9.5q-25 0 -46.5 9.5t-37.5 25.5t-25 37.5t-9 45.5v1057zM865 699v138q0 27 7 52.5t21.5 45t37 31.5t52.5 12q26 0 48 -10.5t37.5 -28t24 -40.5t8.5 -48v-143z" />
    <glyph glyph-name="paragraph" unicode="&#xb6;" horiz-adv-x="1325" 
d="M50 911q0 78 31 144.5t84 116t123 77.5t148 28h247q38 0 50 -10t12 -27q0 -14 -4 -29t-4 -29v-790q0 -38 -26.5 -64t-64.5 -26q-18 0 -34.5 7t-29 19t-19.5 28.5t-7 35.5v164h-120q-78 0 -148 26.5t-123 73.5t-84 112t-31 143zM1268 1159q0 -26 -9.5 -47t-26 -37
t-39 -24.5t-48.5 -8.5h-25l-2 -933q0 -25 -9 -46.5t-24 -37.5t-36.5 -25t-46.5 -9q-26 0 -47.5 9t-36.5 25t-23.5 37.5t-8.5 46.5l-2 933h-297q-26 0 -48 8.5t-38.5 24t-26 37t-9.5 47.5q0 24 9 45.5t25.5 37.5t39 25.5t48.5 9.5h557q25 0 48 -8.5t39.5 -24t26.5 -37.5
t10 -48zM503 784q0 24 9 44.5t25 36t37 24.5t45 9t45.5 -9t37.5 -24.5t25.5 -36t9.5 -44.5v-680q0 -24 -9.5 -45t-25.5 -36t-37.5 -24t-45.5 -9t-45 9t-37 24t-25 36t-9 45v680z" />
    <glyph glyph-name="glyph120" unicode="&#xb7;" horiz-adv-x="352" 
d="M49 533q0 26 9.5 49t26.5 39.5t40 26t50 9.5q26 0 49 -9.5t40.5 -26t27.5 -39.5t10 -49q0 -27 -10 -49.5t-27.5 -39t-40.5 -26t-49 -9.5q-27 0 -50 9.5t-40 26t-26.5 39t-9.5 49.5z" />
    <glyph glyph-name="cedilla" unicode="&#xb8;" horiz-adv-x="580" 
d="M61 18h26t45.5 0.5t45.5 0.5h26v-26t1 -30t1.5 -27.5t2.5 -16.5q3 -8 8.5 -15.5t17.5 -12.5q33 -15 56 -38.5t36.5 -52t18.5 -61t1 -63.5q-11 -70 -61.5 -115.5t-125.5 -51.5q-35 -3 -67.5 7t-58.5 28.5t-44 43t-25 50.5q-6 15 -6.5 33t6.5 33t22 25.5t39 10.5
q25 0 38.5 -13.5t23.5 -30.5t21.5 -31.5t34.5 -14.5q11 0 22.5 3.5t21 11t15 20t5.5 29.5q-1 20 -12 33.5t-27 24t-35 20.5t-35 22t-27 28.5t-11 41.5v134z" />
    <glyph glyph-name="onesuperior" unicode="&#xb9;" horiz-adv-x="365" 
d="M143 644v153q-5 -2 -15.5 -8.5t-21.5 -6.5q-27 0 -39 17.5t-10 34.5q1 14 12 29.5t22 26.5l60 60q8 8 17 15t20 10q16 5 32 4q23 -4 39.5 -21t16.5 -44v-298zM143 657q8 0 28.5 -4t42.5 -10t40.5 -13t21.5 -14v-72q0 -8 -3 -18.5t-10 -20t-20 -17t-32 -7.5q-18 0 -31 6.5
t-21.5 16t-12 20.5t-3.5 21v112z" />
    <glyph glyph-name="ordmasculine" unicode="&#xba;" horiz-adv-x="905" 
d="M59 730q0 82 31 154t84.5 125t125 84t153.5 31t153.5 -31t125 -84t84.5 -125t31 -154t-31 -153.5t-84.5 -125t-125 -84.5t-153.5 -31t-153.5 31t-125 84.5t-84.5 125t-31 153.5zM849 117q0 -25 -9 -46.5t-25 -37.5t-38.5 -25t-48.5 -9h-549q-24 0 -46.5 8.5t-40 24
t-27.5 37.5t-10 48t10 47.5t26.5 37.5t39 24.5t48.5 8.5h549q25 0 47 -9t38.5 -25t26 -37.5t9.5 -46.5zM274 732q0 -40 14 -74t38 -59t56.5 -39t70.5 -14q37 0 69.5 14t57 39t38.5 59t14 74q0 38 -14 71.5t-38.5 58t-57 38.5t-69.5 14q-38 0 -70.5 -14t-56.5 -38.5t-38 -58
t-14 -71.5z" />
    <glyph glyph-name="guillemotright" unicode="&#xbb;" horiz-adv-x="1260" 
d="M683 -6q-39 6 -62 31t-30 57t3.5 66t39.5 58l307 278l-300 265q-17 16 -31 36t-22 41t-7.5 42.5t12.5 40.5q18 31 46.5 44t59.5 11t61 -15.5t51 -34.5l324 -323q23 -23 41.5 -51t18.5 -59q0 -29 -17 -57t-43 -51l-332 -328q-12 -12 -26.5 -23.5t-30 -19.5t-32 -11
t-31.5 3zM177 -6q-38 6 -61.5 31t-30 57t3.5 66t39 58l308 278l-300 265q-17 16 -31.5 36t-22 41t-7.5 42.5t12 40.5q18 31 46.5 44t59.5 11t61 -15.5t51 -34.5l324 -323q23 -23 41.5 -51t18.5 -59q0 -29 -17 -57t-43 -51l-332 -328q-11 -12 -25.5 -23.5t-30.5 -19.5
t-32.5 -11t-31.5 3z" />
    <glyph glyph-name="questiondown" unicode="&#xbf;" horiz-adv-x="1065" 
d="M691.068 607.068q0 -51.9902 -10.498 -88.4844q-10.498 -36.4932 -31.4941 -66.4873q-20.9961 -29.9951 -53.9902 -57.9893q-32.9941 -27.9951 -77.9854 -61.9893q-27.9951 -19.9961 -57.4893 -43.4922q-29.4951 -23.4951 -53.9902 -50.4902
q-24.4961 -26.9951 -40.4932 -57.4893q-15.9971 -30.4951 -15.9971 -66.4883q0 -48.9912 16.9971 -86.9844q16.9971 -37.9922 45.4922 -64.4873q28.4941 -26.4951 64.4883 -39.9932q35.9932 -13.4971 72.9863 -13.4971q37.9932 0 68.4873 9.49805t54.9902 25.9951
q24.4951 16.4971 43.4922 38.4932q18.9961 21.9961 32.9932 46.9912q21.9961 46.9912 56.4902 71.4873q34.4932 24.4951 76.4854 19.4961q22.9961 -3 42.9922 -14.9971q19.9971 -11.998 33.4941 -30.9941q13.498 -18.9971 17.9971 -42.9922
q4.49902 -23.9961 -5.49902 -52.9902q-14.9971 -56.9902 -52.4902 -110.48t-92.9834 -95.4824q-55.4893 -41.9922 -128.977 -67.4873q-73.4863 -25.4951 -160.471 -25.4951q-81.9844 0 -157.471 31.4941t-133.976 87.4834q-58.4893 55.9902 -93.4824 131.976
q-34.9941 75.9863 -34.9941 164.971q0 47.9912 10.998 89.4834t33.4941 80.4854q22.4961 38.9922 57.4893 76.9854t82.9844 77.9863q32.9941 25.9951 64.4883 45.9912t58.4893 43.4922q26.9951 23.4951 47.4912 53.9902q20.4971 30.4941 29.4951 76.4854
q4.99902 20.9961 14.9971 34.9941q9.99805 13.9971 22.4961 21.9961q12.498 7.99805 24.9951 11.498q12.498 3.49902 21.4961 3.49902q16.9971 0 35.4941 -4.49902q18.4961 -4.49902 33.9932 -16.4971t25.9951 -32.4941t10.498 -52.4902zM718.063 936.008
q0 -25.9951 -9.99805 -48.9912q-9.99805 -22.9951 -26.9951 -40.4922t-39.9922 -27.4951q-22.9961 -9.99805 -48.9912 -9.99805t-48.9912 9.99805t-40.4922 27.4951q-17.4971 17.4971 -27.4951 40.4922q-9.99805 22.9961 -9.99805 48.9912t9.99805 48.9912t27.4951 39.9922
q17.4961 16.9971 40.4922 26.9951t48.9912 9.99805t48.9912 -9.99805q22.9951 -9.99805 39.9922 -26.9951q16.9971 -16.9961 26.9951 -39.9922t9.99805 -48.9912z" />
    <glyph glyph-name="Agrave" unicode="&#xc0;" horiz-adv-x="1151" 
d="M567 1276q26 0 46 -11t35.5 -28.5t27 -39.5t21.5 -45l401 -1001q5 -11 7 -23.5t2 -23.5q0 -26 -12.5 -49.5t-35.5 -37.5q-22 -19 -49.5 -24.5t-53.5 2t-48 26.5t-33 49l-72 180h-466l-74 -181q-19 -45 -50 -64.5t-71 -16.5q-26 1 -48 12.5t-37 31t-21 45.5t1 55
q8 25 17 48.5t18 47.5l373 933q5 13 6.5 26t3.5 26q3 13 9 24.5t18 20t32.5 13.5t52.5 5zM388 439h364l-182 465zM436 1641q26 0 58 -20.5t60 -48t47 -55.5t20 -43q3 -20 -1 -34q-7 -33 -39 -47q-23 -11 -47 -8q-19 0 -49.5 15t-61 37t-53.5 46.5t-27 43.5q-5 22 1 42.5
t18.5 36.5t31.5 25.5t42 9.5z" />
    <glyph glyph-name="Aacute" unicode="&#xc1;" horiz-adv-x="1151" 
d="M567 1276q26 0 46 -11t35.5 -28.5t27 -39.5t21.5 -45l401 -1001q5 -11 7 -23.5t2 -23.5q0 -26 -12.5 -49.5t-35.5 -37.5q-22 -19 -49.5 -24.5t-53.5 2t-48 26.5t-33 49l-72 180h-466l-74 -181q-19 -45 -50 -64.5t-71 -16.5q-26 1 -48 12.5t-37 31t-21 45.5t1 55
q8 25 17 48.5t18 47.5l373 933q5 13 6.5 26t3.5 26q3 13 9 24.5t18 20t32.5 13.5t52.5 5zM388 439h364l-182 465zM674 1635q23 0 42 -9.5t32 -25.5t18.5 -36.5t1.5 -42.5q-4 -19 -27.5 -43.5t-53.5 -46.5t-61 -37t-49 -15q-24 -3 -48 8q-32 14 -39 47q-2 8 -2 16.5t2 17.5
q0 15 19.5 43t47 55.5t59.5 48t58 20.5z" />
    <glyph glyph-name="Acircumflex" unicode="&#xc2;" horiz-adv-x="1151" 
d="M567 1276q26 0 46 -11t35.5 -28.5t27 -39.5t21.5 -45l401 -1001q5 -11 7 -23.5t2 -23.5q0 -26 -12.5 -49.5t-35.5 -37.5q-22 -19 -49.5 -24.5t-53.5 2t-48 26.5t-33 49l-72 180h-466l-74 -181q-19 -45 -50 -64.5t-71 -16.5q-26 1 -48 12.5t-37 31t-21 45.5t1 55
q8 25 17 48.5t18 47.5l373 933q5 13 6.5 26t3.5 26q3 13 9 24.5t18 20t32.5 13.5t52.5 5zM388 439h364l-182 465zM506 1643q23 23 52 25t53 -16l175 -171q25 -26 28.5 -60t-21.5 -60q-26 -26 -61.5 -20.5t-65.5 35.5l-103 103l-102 -103q-30 -30 -65.5 -36t-62.5 21
q-15 15 -19 32.5t0.5 35t15 34t23.5 30.5z" />
    <glyph glyph-name="Atilde" unicode="&#xc3;" horiz-adv-x="1151" 
d="M567 1276q26 0 46 -11t35.5 -28.5t27 -39.5t21.5 -45l401 -1001q5 -11 7 -23.5t2 -23.5q0 -26 -12.5 -49.5t-35.5 -37.5q-22 -19 -49.5 -24.5t-53.5 2t-48 26.5t-33 49l-72 180h-466l-74 -181q-19 -45 -50 -64.5t-71 -16.5q-26 1 -48 12.5t-37 31t-21 45.5t1 55
q8 25 17 48.5t18 47.5l373 933q5 13 6.5 26t3.5 26q3 13 9 24.5t18 20t32.5 13.5t52.5 5zM388 439h364l-182 465zM777 1603q12 7 28.5 5t29.5 -12.5t19.5 -29.5t-2.5 -46q-8 -27 -24 -51t-39 -42t-52 -28.5t-63 -10.5q-42 0 -67.5 16.5t-45 37t-39.5 37t-51 16.5
q-24 0 -36.5 -11t-21.5 -24.5t-18.5 -26t-26.5 -15.5q-10 -1 -23 0q-18 3 -28.5 13t-14.5 22.5t-3.5 27.5t5.5 29q18 57 61 93q11 9 23 15.5t26 11.5q12 4 26 6.5t29 2.5q47 0 74.5 -16.5t47.5 -37t38.5 -37t48.5 -16.5q15 0 24 8t18 19t21.5 23t35.5 21z" />
    <glyph glyph-name="Adieresis" unicode="&#xc4;" horiz-adv-x="1151" 
d="M567 1276q26 0 46 -11t35.5 -28.5t27 -39.5t21.5 -45l401 -1001q5 -11 7 -23.5t2 -23.5q0 -26 -12.5 -49.5t-35.5 -37.5q-22 -19 -49.5 -24.5t-53.5 2t-48 26.5t-33 49l-72 180h-466l-74 -181q-19 -45 -50 -64.5t-71 -16.5q-26 1 -48 12.5t-37 31t-21 45.5t1 55
q8 25 17 48.5t18 47.5l373 933q5 13 6.5 26t3.5 26q3 13 9 24.5t18 20t32.5 13.5t52.5 5zM388 439h364l-182 465zM292 1472q0 22 8.5 41.5t22.5 34.5t33.5 23.5t42.5 8.5q22 0 41.5 -8.5t34.5 -23.5t23.5 -34.5t8.5 -41.5q0 -23 -8.5 -42.5t-23.5 -33.5t-34.5 -22.5
t-41.5 -8.5q-23 0 -42.5 8.5t-33.5 22.5t-22.5 33.5t-8.5 42.5zM625 1472q0 22 8.5 41.5t22.5 34.5t33.5 23.5t41.5 8.5t42 -8.5t34.5 -23.5t23 -34.5t8.5 -41.5q0 -23 -8.5 -42.5t-23 -33.5t-34.5 -22.5t-42 -8.5t-41.5 8.5t-33.5 22.5t-22.5 33.5t-8.5 42.5z" />
    <glyph glyph-name="Aring" unicode="&#xc5;" horiz-adv-x="1151" 
d="M567 1276q26 0 46 -11t35.5 -28.5t27 -39.5t21.5 -45l401 -1001q5 -11 7 -23.5t2 -23.5q0 -26 -12.5 -49.5t-35.5 -37.5q-22 -19 -49.5 -24.5t-53.5 2t-48 26.5t-33 49l-72 180h-466l-74 -181q-19 -45 -50 -64.5t-71 -16.5q-26 1 -48 12.5t-37 31t-21 45.5t1 55
q8 25 17 48.5t18 47.5l373 933q5 13 6.5 26t3.5 26q3 13 9 24.5t18 20t32.5 13.5t52.5 5zM388 439h364l-182 465zM410 1537q0 33 12.5 62t33.5 50.5t50 34t62 12.5t61.5 -12.5t50 -34t34 -50.5t12.5 -62q0 -32 -12.5 -61t-34 -50.5t-50 -34t-61.5 -12.5t-62 12.5t-50 34
t-33.5 50.5t-12.5 61zM512 1537q0 -24 16 -41t40 -17t40 17t16 41t-16 41.5t-40 17.5t-40 -17.5t-16 -41.5z" />
    <glyph glyph-name="AE" unicode="&#xc6;" horiz-adv-x="1655" 
d="M1331 0h-344q-29 0 -50.5 8.5t-38.5 28t-30.5 51t-25.5 76.5l-24 96h-477q-32 -59 -53.5 -96t-35.5 -60t-22 -35t-13 -20q-12 -21 -32 -34.5t-42.5 -18t-46.5 0t-44 20.5q-8 6 -18 17t-15 29t-2 43.5t22 60.5q5 9 10 19t14 27t24 45t40 74t61.5 113t88 163t120 223
t158.5 293q15 27 24.5 55.5t24 52t39.5 38.5t70 16h488l16 -225h-355q2 -10 4 -19t4 -17l66 -267h284l11 -219h-238l75 -303h268zM425 449h354l-110 452zM1214 758h93q27 0 51 -12t39.5 -32.5t20.5 -46.5t-5 -54q-11 -35 -39 -54.5t-66 -19.5h-88zM1201 1286h82
q32 0 58 -7.5t46 -21.5q30 -20 40.5 -53t2 -64.5t-36.5 -55t-76 -23.5h-100zM1336 236h149q26 0 49 -8t40.5 -23t28 -37t10.5 -50q0 -30 -11.5 -52.5t-30.5 -37t-45 -21.5t-54 -7h-141z" />
    <glyph glyph-name="Ccedilla" unicode="&#xc7;" horiz-adv-x="1274" 
d="M999 908q-60 61 -132 97t-163 36q-84 0 -158.5 -32.5t-129.5 -89t-87 -131t-32 -158.5t32 -158.5t87.5 -130.5t129.5 -88.5t158 -32.5q54 0 98.5 12.5t83.5 34.5t74 50.5t71 60.5q14 9 31.5 14.5t35.5 5.5t35 -5t32 -17q22 -14 35 -37t13 -50q0 -23 -8.5 -45t-27.5 -41
q-50 -56 -100.5 -96.5t-107 -66.5t-121.5 -38.5t-144 -12.5q-133 0 -250 50.5t-204.5 138t-138 204.5t-50.5 250q0 88 23 170t65 153.5t100.5 130t130 100.5t153.5 65t171 23q69 0 130.5 -10.5t117 -34t107 -61.5t101.5 -92q33 -36 35 -85q1 -22 -8.5 -45t-29.5 -40
q-14 -13 -32 -21t-38.5 -9t-43 6.5t-44.5 25.5zM621 44h26t45.5 0.5t45.5 0.5h26v-26t1 -30t1.5 -27.5t2.5 -16.5q3 -8 8.5 -15.5t17.5 -12.5q33 -15 56 -38.5t36.5 -52t18.5 -61t1 -63.5q-11 -70 -61.5 -115.5t-125.5 -51.5q-35 -3 -67.5 7t-58.5 28.5t-44 43t-25 50.5
q-6 15 -6.5 33t6.5 33t22 25.5t39 10.5q25 0 38.5 -13.5t23.5 -30.5t21.5 -31.5t34.5 -14.5q11 0 22.5 3.5t21 11t15 20t5.5 29.5q-1 20 -12 33.5t-27 24t-35 20.5t-35 22t-27 28.5t-11 41.5v134z" />
    <glyph glyph-name="Egrave" unicode="&#xc8;" horiz-adv-x="1108" 
d="M1064 108q0 -26 -10 -48t-27 -37.5t-40 -24t-49 -8.5h-671q-63 0 -98 37.5t-35 99.5v1017q-1 20 -6.5 41.5t-5.5 41.5q0 22 15 35.5t60 13.5h744q39 0 65.5 -16.5t40 -41.5t13.5 -54.5t-13 -54.5t-39 -41.5t-66 -16.5h-573v-308h445q27 0 51 -12.5t39.5 -32.5t21 -46
t-4.5 -54q-12 -35 -40 -54.5t-66 -19.5h-446v-298h567q26 0 49.5 -8t41 -23t27.5 -37t10 -50zM441 1645q26 0 58 -20.5t60 -48t47 -55.5t20 -43q3 -20 -1 -34q-7 -33 -39 -47q-23 -11 -47 -8q-19 0 -49.5 15t-61 37t-53.5 46.5t-27 43.5q-5 22 1 42.5t18.5 36.5t31.5 25.5
t42 9.5z" />
    <glyph glyph-name="Eacute" unicode="&#xc9;" horiz-adv-x="1108" 
d="M629 1652q23 0 42 -9.5t32 -25.5t18.5 -36.5t1.5 -42.5q-4 -19 -27.5 -43.5t-53.5 -46.5t-61 -37t-49 -15q-24 -3 -48 8q-32 14 -39 47q-2 8 -2 16.5t2 17.5q0 15 19.5 43t47 55.5t59.5 48t58 20.5zM1064 108q0 -26 -10 -48t-27 -37.5t-40 -24t-49 -8.5h-671
q-63 0 -98 37.5t-35 99.5v1017q-1 20 -6.5 41.5t-5.5 41.5q0 22 15 35.5t60 13.5h744q39 0 65.5 -16.5t40 -41.5t13.5 -54.5t-13 -54.5t-39 -41.5t-66 -16.5h-573v-308h445q27 0 51 -12.5t39.5 -32.5t21 -46t-4.5 -54q-12 -35 -40 -54.5t-66 -19.5h-446v-298h567
q26 0 49.5 -8t41 -23t27.5 -37t10 -50z" />
    <glyph glyph-name="Ecircumflex" unicode="&#xca;" horiz-adv-x="1108" 
d="M1064 108q0 -26 -10 -48t-27 -37.5t-40 -24t-49 -8.5h-671q-63 0 -98 37.5t-35 99.5v1017q-1 20 -6.5 41.5t-5.5 41.5q0 22 15 35.5t60 13.5h744q39 0 65.5 -16.5t40 -41.5t13.5 -54.5t-13 -54.5t-39 -41.5t-66 -16.5h-573v-308h445q27 0 51 -12.5t39.5 -32.5t21 -46
t-4.5 -54q-12 -35 -40 -54.5t-66 -19.5h-446v-298h567q26 0 49.5 -8t41 -23t27.5 -37t10 -50zM492 1697q23 23 52 25t53 -16l175 -171q25 -26 28.5 -60t-21.5 -60q-26 -26 -61.5 -20.5t-65.5 35.5l-103 103l-102 -103q-30 -30 -65.5 -36t-62.5 21q-15 15 -19 32.5t0.5 35
t15 34t23.5 30.5z" />
    <glyph glyph-name="Edieresis" unicode="&#xcb;" horiz-adv-x="1108" 
d="M1064 108q0 -26 -10 -48t-27 -37.5t-40 -24t-49 -8.5h-671q-63 0 -98 37.5t-35 99.5v1017q-1 20 -6.5 41.5t-5.5 41.5q0 22 15 35.5t60 13.5h744q39 0 65.5 -16.5t40 -41.5t13.5 -54.5t-13 -54.5t-39 -41.5t-66 -16.5h-573v-308h445q27 0 51 -12.5t39.5 -32.5t21 -46
t-4.5 -54q-12 -35 -40 -54.5t-66 -19.5h-446v-298h567q26 0 49.5 -8t41 -23t27.5 -37t10 -50zM294 1502q0 22 8.5 41.5t22.5 34.5t33.5 23.5t42.5 8.5q22 0 41.5 -8.5t34.5 -23.5t23.5 -34.5t8.5 -41.5q0 -23 -8.5 -42.5t-23.5 -33.5t-34.5 -22.5t-41.5 -8.5
q-23 0 -42.5 8.5t-33.5 22.5t-22.5 33.5t-8.5 42.5zM627 1502q0 22 8.5 41.5t22.5 34.5t33.5 23.5t41.5 8.5t42 -8.5t34.5 -23.5t23 -34.5t8.5 -41.5q0 -23 -8.5 -42.5t-23 -33.5t-34.5 -22.5t-42 -8.5t-41.5 8.5t-33.5 22.5t-22.5 33.5t-8.5 42.5z" />
    <glyph glyph-name="Igrave" unicode="&#xcc;" horiz-adv-x="491" 
d="M368 112q0 -24 -8.5 -46t-23.5 -39t-37 -27t-49 -10t-49 10.5t-37 28t-23 39t-8 44.5v1038q-1 20 -6 39.5t-5 37.5q0 11 3.5 20t12.5 15t25 9.5t41 3.5q34 0 63 -5t51 -18.5t35 -36.5t15 -59v-1044zM130 1672q26 0 58 -20.5t60 -48t47 -55.5t20 -43q3 -20 -1 -34
q-7 -33 -39 -47q-23 -11 -47 -8q-19 0 -49.5 15t-61 37t-53.5 46.5t-27 43.5q-5 22 1 42.5t18.5 36.5t31.5 25.5t42 9.5z" />
    <glyph glyph-name="Iacute" unicode="&#xcd;" horiz-adv-x="491" 
d="M368 112q0 -24 -8.5 -46t-23.5 -39t-37 -27t-49 -10t-49 10.5t-37 28t-23 39t-8 44.5v1038q-1 20 -6 39.5t-5 37.5q0 11 3.5 20t12.5 15t25 9.5t41 3.5q34 0 63 -5t51 -18.5t35 -36.5t15 -59v-1044zM331 1667q23 0 42 -9.5t32 -25.5t18.5 -36.5t1.5 -42.5
q-4 -19 -27.5 -43.5t-53.5 -46.5t-61 -37t-49 -15q-24 -3 -48 8q-32 14 -39 47q-2 8 -2 16.5t2 17.5q0 15 19.5 43t47 55.5t59.5 48t58 20.5z" />
    <glyph glyph-name="Icircumflex" unicode="&#xce;" horiz-adv-x="491" 
d="M368 112q0 -24 -8.5 -46t-23.5 -39t-37 -27t-49 -10t-49 10.5t-37 28t-23 39t-8 44.5v1038q-1 20 -6 39.5t-5 37.5q0 11 3.5 20t12.5 15t25 9.5t41 3.5q34 0 63 -5t51 -18.5t35 -36.5t15 -59v-1044zM178 1712q23 23 52 25t53 -16l175 -171q25 -26 28.5 -60t-21.5 -60
q-26 -26 -61.5 -20.5t-65.5 35.5l-103 103l-102 -103q-30 -30 -65.5 -36t-62.5 21q-15 15 -19 32.5t0.5 35t15 34t23.5 30.5z" />
    <glyph glyph-name="Idieresis" unicode="&#xcf;" horiz-adv-x="491" 
d="M368 112q0 -24 -8.5 -46t-23.5 -39t-37 -27t-49 -10t-49 10.5t-37 28t-23 39t-8 44.5v1038q-1 20 -6 39.5t-5 37.5q0 11 3.5 20t12.5 15t25 9.5t41 3.5q34 0 63 -5t51 -18.5t35 -36.5t15 -59v-1044zM-42 1532q0 22 8.5 41.5t22.5 34.5t33.5 23.5t42.5 8.5q22 0 41.5 -8.5
t34.5 -23.5t23.5 -34.5t8.5 -41.5q0 -23 -8.5 -42.5t-23.5 -33.5t-34.5 -22.5t-41.5 -8.5q-23 0 -42.5 8.5t-33.5 22.5t-22.5 33.5t-8.5 42.5zM291 1532q0 22 8.5 41.5t22.5 34.5t33.5 23.5t41.5 8.5t42 -8.5t34.5 -23.5t23 -34.5t8.5 -41.5q0 -23 -8.5 -42.5t-23 -33.5
t-34.5 -22.5t-42 -8.5t-41.5 8.5t-33.5 22.5t-22.5 33.5t-8.5 42.5z" />
    <glyph glyph-name="Eth" unicode="&#xd0;" horiz-adv-x="1265" 
d="M425 -10q-36 0 -64 19t-40 49q-7 33 -10.5 68.5t-2.5 72.5l2 360l-70 -3q-24 0 -45.5 9t-37.5 24.5t-25.5 37t-9.5 47.5q0 25 9 46.5t25 37t37.5 24.5t46.5 9l70 -3l-2 268q-1 43 -6 86t-5 86q0 11 3.5 20t12.5 15t24.5 9.5t40.5 3.5h171q148 0 282 -41.5t236 -123
t162.5 -201.5t60.5 -277q0 -89 -23 -171t-65 -153.5t-101 -130t-130.5 -100.5t-153.5 -65t-170 -23h-222zM725 674q0 -25 -9.5 -46.5t-25.5 -37.5t-37.5 -25t-45.5 -9l-64 3v-337h38t39 1q87 0 166 30.5t139 85t95 129.5t35 165q0 77 -28 146t-77 123t-114 89.5t-140 45.5
q-38 5 -78 4.5t-78 1.5v-255l67 3q25 0 46.5 -9t37.5 -25t25 -37t9 -46z" />
    <glyph glyph-name="Ntilde" unicode="&#xd1;" horiz-adv-x="1379" 
d="M1257 119q0 -26 -8 -49.5t-23.5 -41t-37 -28t-48.5 -10.5q-29 0 -56.5 16.5t-47.5 39.5l-669 786v-175t-0.5 -187.5t-0.5 -187v-174.5q0 -25 -9 -46.5t-24.5 -37.5t-36.5 -25t-46 -9t-46.5 9.5t-37 25t-24.5 37t-9 45.5v1043q-1 20 -6 38.5t-5 39.5q0 10 3.5 19t12.5 15
t25 9.5t41 3.5q27 0 47.5 -2.5t37.5 -9t32 -17.5t32 -28l669 -789l-1 718q0 23 -5 41.5t-5 38.5q0 13 3 22t14 15t31 8.5t55 2.5q32 0 58.5 -5.5t45 -19.5t29 -37t10.5 -57v-1037zM882 1608q12 7 28.5 5t29.5 -12.5t19.5 -29.5t-2.5 -46q-8 -27 -24 -51t-39 -42t-52 -28.5
t-63 -10.5q-42 0 -67.5 16.5t-45 37t-39.5 37t-51 16.5q-24 0 -36.5 -11t-21.5 -24.5t-18.5 -26t-26.5 -15.5q-10 -1 -23 0q-18 3 -28.5 13t-14.5 22.5t-3.5 27.5t5.5 29q18 57 61 93q11 9 23 15.5t26 11.5q12 4 26 6.5t29 2.5q47 0 74.5 -16.5t47.5 -37t38.5 -37
t48.5 -16.5q15 0 24 8t18 19t21.5 23t35.5 21z" />
    <glyph glyph-name="Ograve" unicode="&#xd2;" horiz-adv-x="1408" 
d="M61 633q0 88 23 170t65 153.5t100.5 130t130 100.5t153.5 65t171 23q88 0 170 -23t153.5 -65t130 -100.5t100.5 -130t65 -153.5t23 -170q0 -89 -23 -171t-65 -153.5t-100.5 -130t-130 -100.5t-153.5 -65t-170 -23q-133 0 -250 50.5t-204.5 138t-138 204.5t-50.5 250z
M297 631q0 -84 32 -158.5t87 -130.5t129.5 -88.5t158.5 -32.5t158 32.5t129.5 89t87.5 131.5t32 159t-32 158t-87.5 130t-129.5 88.5t-158 32.5t-158.5 -32.5t-129.5 -89t-87 -131t-32 -158.5zM588 1663q26 0 58 -20.5t60 -48t47 -55.5t20 -43q3 -20 -1 -34q-7 -33 -39 -47
q-23 -11 -47 -8q-19 0 -49.5 15t-61 37t-53.5 46.5t-27 43.5q-5 22 1 42.5t18.5 36.5t31.5 25.5t42 9.5z" />
    <glyph glyph-name="Oacute" unicode="&#xd3;" horiz-adv-x="1408" 
d="M61 633q0 88 23 170t65 153.5t100.5 130t130 100.5t153.5 65t171 23q88 0 170 -23t153.5 -65t130 -100.5t100.5 -130t65 -153.5t23 -170q0 -89 -23 -171t-65 -153.5t-100.5 -130t-130 -100.5t-153.5 -65t-170 -23q-133 0 -250 50.5t-204.5 138t-138 204.5t-50.5 250z
M297 631q0 -84 32 -158.5t87 -130.5t129.5 -88.5t158.5 -32.5t158 32.5t129.5 89t87.5 131.5t32 159t-32 158t-87.5 130t-129.5 88.5t-158 32.5t-158.5 -32.5t-129.5 -89t-87 -131t-32 -158.5zM800 1643q23 0 42 -9.5t32 -25.5t18.5 -36.5t1.5 -42.5q-4 -19 -27.5 -43.5
t-53.5 -46.5t-61 -37t-49 -15q-24 -3 -48 8q-32 14 -39 47q-2 8 -2 16.5t2 17.5q0 15 19.5 43t47 55.5t59.5 48t58 20.5z" />
    <glyph glyph-name="Ocircumflex" unicode="&#xd4;" horiz-adv-x="1408" 
d="M61 633q0 88 23 170t65 153.5t100.5 130t130 100.5t153.5 65t171 23q88 0 170 -23t153.5 -65t130 -100.5t100.5 -130t65 -153.5t23 -170q0 -89 -23 -171t-65 -153.5t-100.5 -130t-130 -100.5t-153.5 -65t-170 -23q-133 0 -250 50.5t-204.5 138t-138 204.5t-50.5 250z
M297 631q0 -84 32 -158.5t87 -130.5t129.5 -88.5t158.5 -32.5t158 32.5t129.5 89t87.5 131.5t32 159t-32 158t-87.5 130t-129.5 88.5t-158 32.5t-158.5 -32.5t-129.5 -89t-87 -131t-32 -158.5zM638 1674q23 23 52 25t53 -16l175 -171q25 -26 28.5 -60t-21.5 -60
q-26 -26 -61.5 -20.5t-65.5 35.5l-103 103l-102 -103q-30 -30 -65.5 -36t-62.5 21q-15 15 -19 32.5t0.5 35t15 34t23.5 30.5z" />
    <glyph glyph-name="Otilde" unicode="&#xd5;" horiz-adv-x="1408" 
d="M61 633q0 88 23 170t65 153.5t100.5 130t130 100.5t153.5 65t171 23q88 0 170 -23t153.5 -65t130 -100.5t100.5 -130t65 -153.5t23 -170q0 -89 -23 -171t-65 -153.5t-100.5 -130t-130 -100.5t-153.5 -65t-170 -23q-133 0 -250 50.5t-204.5 138t-138 204.5t-50.5 250z
M297 631q0 -84 32 -158.5t87 -130.5t129.5 -88.5t158.5 -32.5t158 32.5t129.5 89t87.5 131.5t32 159t-32 158t-87.5 130t-129.5 88.5t-158 32.5t-158.5 -32.5t-129.5 -89t-87 -131t-32 -158.5zM894 1609q12 7 28.5 5t29.5 -12.5t19.5 -29.5t-2.5 -46q-8 -27 -24 -51t-39 -42
t-52 -28.5t-63 -10.5q-42 0 -67.5 16.5t-45 37t-39.5 37t-51 16.5q-24 0 -36.5 -11t-21.5 -24.5t-18.5 -26t-26.5 -15.5q-10 -1 -23 0q-18 3 -28.5 13t-14.5 22.5t-3.5 27.5t5.5 29q18 57 61 93q11 9 23 15.5t26 11.5q12 4 26 6.5t29 2.5q47 0 74.5 -16.5t47.5 -37t38.5 -37
t48.5 -16.5q15 0 24 8t18 19t21.5 23t35.5 21z" />
    <glyph glyph-name="Odieresis" unicode="&#xd6;" horiz-adv-x="1408" 
d="M61 633q0 88 23 170t65 153.5t100.5 130t130 100.5t153.5 65t171 23q88 0 170 -23t153.5 -65t130 -100.5t100.5 -130t65 -153.5t23 -170q0 -89 -23 -171t-65 -153.5t-100.5 -130t-130 -100.5t-153.5 -65t-170 -23q-133 0 -250 50.5t-204.5 138t-138 204.5t-50.5 250z
M297 631q0 -84 32 -158.5t87 -130.5t129.5 -88.5t158.5 -32.5t158 32.5t129.5 89t87.5 131.5t32 159t-32 158t-87.5 130t-129.5 88.5t-158 32.5t-158.5 -32.5t-129.5 -89t-87 -131t-32 -158.5zM409 1501q0 22 8.5 41.5t22.5 34.5t33.5 23.5t42.5 8.5q22 0 41.5 -8.5
t34.5 -23.5t23.5 -34.5t8.5 -41.5q0 -23 -8.5 -42.5t-23.5 -33.5t-34.5 -22.5t-41.5 -8.5q-23 0 -42.5 8.5t-33.5 22.5t-22.5 33.5t-8.5 42.5zM742 1501q0 22 8.5 41.5t22.5 34.5t33.5 23.5t41.5 8.5t42 -8.5t34.5 -23.5t23 -34.5t8.5 -41.5q0 -23 -8.5 -42.5t-23 -33.5
t-34.5 -22.5t-42 -8.5t-41.5 8.5t-33.5 22.5t-22.5 33.5t-8.5 42.5z" />
    <glyph glyph-name="multiply" unicode="&#xd7;" horiz-adv-x="889" 
d="M316 267q-24 -23 -58 -23t-58 25q-12 12 -18.5 27t-6.5 30.5t5.5 31t17.5 27.5l385 385q12 12 27 17.5t30.5 5t30.5 -7t27 -18.5t18.5 -27t7 -31t-5 -30.5t-17.5 -26.5zM703 388q12 -12 18 -27t5.5 -30.5t-7 -31t-18.5 -27.5t-27 -18t-30.5 -6t-31 5.5t-27.5 17.5
l-385 385q-12 12 -17.5 26.5t-5 30.5t7 31t18.5 27t27.5 18.5t31 6.5t30 -5.5t26.5 -17.5z" />
    <glyph glyph-name="Oslash" unicode="&#xd8;" horiz-adv-x="1408" 
d="M537 69l-81 -141q-20 -36 -48 -61.5t-68 -24.5q-24 0 -46.5 9t-39 24.5t-26.5 36t-10 42.5q0 10 2.5 21t10.5 25l99 176zM884 1203l79 139q19 35 48.5 56.5t67.5 21.5q25 0 47 -9.5t37.5 -25t23.5 -36.5t6 -43q-1 -7 -9.5 -26.5t-19 -41t-20 -40t-11.5 -23.5l-44 -80z
M61 632q0 88 23 170t65 153.5t100.5 130t130 100.5t153.5 65t171 23q88 0 170 -23t153.5 -65t130 -100.5t100.5 -130t65 -153.5t23 -170q0 -89 -23 -171t-65 -153.5t-100.5 -130t-130 -100.5t-153.5 -65t-170 -23q-133 0 -250 50.5t-204.5 138t-138 204.5t-50.5 250z
M297 630q0 -84 32 -158.5t87 -130.5t129.5 -88.5t158.5 -32.5t158 32.5t129.5 89t87.5 131.5t32 159t-32 158t-87.5 130t-129.5 88.5t-158 32.5t-158.5 -32.5t-129.5 -89t-87 -131t-32 -158.5z" />
    <glyph glyph-name="Ugrave" unicode="&#xd9;" horiz-adv-x="1274" 
d="M84 1150q-1 20 -6 39.5t-5 37.5q0 11 3.5 20t12.5 15t25 9.5t41 3.5q33 0 62 -5.5t51.5 -20.5t35.5 -41.5t15 -68.5v-638q0 -61 22 -114.5t63.5 -93t100.5 -62.5t134 -23q69 0 127.5 23t101.5 62.5t67.5 93t24.5 114.5l-1 649q-1 20 -6 39.5t-5 37.5q0 11 3.5 20t12.5 15
t25 9.5t41 3.5q32 0 61.5 -5t52.5 -20t36.5 -42t13.5 -70l1 -636q-1 -109 -43.5 -205t-117 -168t-176 -114t-219.5 -42q-121 0 -223 41.5t-176 113t-115.5 168t-41.5 206.5zM505 1652q26 0 58 -20.5t60 -48t47 -55.5t20 -43q3 -20 -1 -34q-7 -33 -39 -47q-23 -11 -47 -8
q-19 0 -49.5 15t-61 37t-53.5 46.5t-27 43.5q-5 22 1 42.5t18.5 36.5t31.5 25.5t42 9.5z" />
    <glyph glyph-name="Uacute" unicode="&#xda;" horiz-adv-x="1274" 
d="M84 1150q-1 20 -6 39.5t-5 37.5q0 11 3.5 20t12.5 15t25 9.5t41 3.5q33 0 62 -5.5t51.5 -20.5t35.5 -41.5t15 -68.5v-638q0 -61 22 -114.5t63.5 -93t100.5 -62.5t134 -23q69 0 127.5 23t101.5 62.5t67.5 93t24.5 114.5l-1 649q-1 20 -6 39.5t-5 37.5q0 11 3.5 20t12.5 15
t25 9.5t41 3.5q32 0 61.5 -5t52.5 -20t36.5 -42t13.5 -70l1 -636q-1 -109 -43.5 -205t-117 -168t-176 -114t-219.5 -42q-121 0 -223 41.5t-176 113t-115.5 168t-41.5 206.5zM712 1647q23 0 42 -9.5t32 -25.5t18.5 -36.5t1.5 -42.5q-4 -19 -27.5 -43.5t-53.5 -46.5t-61 -37
t-49 -15q-24 -3 -48 8q-32 14 -39 47q-2 8 -2 16.5t2 17.5q0 15 19.5 43t47 55.5t59.5 48t58 20.5z" />
    <glyph glyph-name="Ucircumflex" unicode="&#xdb;" horiz-adv-x="1274" 
d="M84 1150q-1 20 -6 39.5t-5 37.5q0 11 3.5 20t12.5 15t25 9.5t41 3.5q33 0 62 -5.5t51.5 -20.5t35.5 -41.5t15 -68.5v-638q0 -61 22 -114.5t63.5 -93t100.5 -62.5t134 -23q69 0 127.5 23t101.5 62.5t67.5 93t24.5 114.5l-1 649q-1 20 -6 39.5t-5 37.5q0 11 3.5 20t12.5 15
t25 9.5t41 3.5q32 0 61.5 -5t52.5 -20t36.5 -42t13.5 -70l1 -636q-1 -109 -43.5 -205t-117 -168t-176 -114t-219.5 -42q-121 0 -223 41.5t-176 113t-115.5 168t-41.5 206.5zM582 1676q23 23 52 25t53 -16l175 -171q25 -26 28.5 -60t-21.5 -60q-26 -26 -61.5 -20.5
t-65.5 35.5l-103 103l-102 -103q-30 -30 -65.5 -36t-62.5 21q-15 15 -19 32.5t0.5 35t15 34t23.5 30.5z" />
    <glyph glyph-name="Udieresis" unicode="&#xdc;" horiz-adv-x="1274" 
d="M84 1150q-1 20 -6 39.5t-5 37.5q0 11 3.5 20t12.5 15t25 9.5t41 3.5q33 0 62 -5.5t51.5 -20.5t35.5 -41.5t15 -68.5v-638q0 -61 22 -114.5t63.5 -93t100.5 -62.5t134 -23q69 0 127.5 23t101.5 62.5t67.5 93t24.5 114.5l-1 649q-1 20 -6 39.5t-5 37.5q0 11 3.5 20t12.5 15
t25 9.5t41 3.5q32 0 61.5 -5t52.5 -20t36.5 -42t13.5 -70l1 -636q-1 -109 -43.5 -205t-117 -168t-176 -114t-219.5 -42q-121 0 -223 41.5t-176 113t-115.5 168t-41.5 206.5zM339 1526q0 22 8.5 41.5t22.5 34.5t33.5 23.5t42.5 8.5q22 0 41.5 -8.5t34.5 -23.5t23.5 -34.5
t8.5 -41.5q0 -23 -8.5 -42.5t-23.5 -33.5t-34.5 -22.5t-41.5 -8.5q-23 0 -42.5 8.5t-33.5 22.5t-22.5 33.5t-8.5 42.5zM672 1526q0 22 8.5 41.5t22.5 34.5t33.5 23.5t41.5 8.5t42 -8.5t34.5 -23.5t23 -34.5t8.5 -41.5q0 -23 -8.5 -42.5t-23 -33.5t-34.5 -22.5t-42 -8.5
t-41.5 8.5t-33.5 22.5t-22.5 33.5t-8.5 42.5z" />
    <glyph glyph-name="Yacute" unicode="&#xdd;" horiz-adv-x="1210" 
d="M490 624q0 24 9 45.5t24.5 37.5t37 25t46.5 9t46.5 -9t37.5 -25t25 -37.5t9 -45.5v-517q0 -25 -9 -46.5t-25 -37.5t-37.5 -25t-46.5 -9t-46.5 9t-37 25t-24.5 37.5t-9 46.5v517zM989 1240q15 19 36 28t44 8.5t45.5 -9.5t40.5 -26q17 -17 25.5 -38.5t8.5 -44t-8.5 -44.5
t-24.5 -40l-479 -573q-18 -18 -27.5 -14t-17 19t-16 36t-25.5 38q-18 18 -26.5 39t-7.5 42.5t10.5 42t27.5 38.5zM619 742q18 -18 27.5 -38.5t10.5 -42t-7.5 -42.5t-26.5 -39q-17 -17 -27 -38t-18 -35.5t-18 -17.5t-28 15l-474 570q-16 19 -24.5 40.5t-8.5 44t8 43.5t26 39
q18 17 40.5 26t45.5 9.5t44 -8.5t36 -28zM693 1643q23 0 42 -9.5t32 -25.5t18.5 -36.5t1.5 -42.5q-4 -19 -27.5 -43.5t-53.5 -46.5t-61 -37t-49 -15q-24 -3 -48 8q-32 14 -39 47q-2 8 -2 16.5t2 17.5q0 15 19.5 43t47 55.5t59.5 48t58 20.5z" />
    <glyph glyph-name="Thorn" unicode="&#xde;" horiz-adv-x="1102" 
d="M1041 634q0 -103 -41.5 -187.5t-111.5 -145t-163 -94t-196 -33.5h-166v-16q0 -17 -9.5 -36t-24.5 -29.5t-34.5 -6t-39.5 34t-38.5 90.5t-32.5 164t-21.5 254t-4.5 361q-1 20 -5.5 39.5t-4.5 36.5q0 11 3.5 20t12.5 15.5t24.5 10t40.5 3.5h300q103 0 196 -36.5t163 -101
t111.5 -152.5t41.5 -191zM810 627q0 58 -22 107.5t-60.5 86t-89.5 57.5t-109 21l-165 2v-522l165 2q58 0 109 16.5t89.5 48t60.5 77t22 104.5zM368 137q0 -31 -8 -57.5t-23 -46.5t-37 -31.5t-50 -11.5t-50 11.5t-37 31.5t-22.5 46.5t-7.5 57.5v1013q-1 20 -6 39.5t-5 37.5
q0 11 3.5 20t12.5 15t25 9.5t41 3.5q34 0 63 -5t51 -18.5t35 -36.5t15 -59v-1019z" />
    <glyph glyph-name="germandbls" unicode="&#xdf;" horiz-adv-x="1068" 
d="M488 675q0 29 15 53t40 35q34 5 68.5 13.5t62.5 25.5t45.5 44t17.5 69q0 30 -16 57t-40.5 47.5t-54.5 32t-58 11.5q-47 0 -89.5 -9t-75 -34t-51.5 -68t-17 -110v-186.5t0.5 -177.5t0.5 -177.5v-186.5q0 -24 -8 -46.5t-23 -40t-36.5 -28t-48.5 -10.5t-49 10.5t-37 27.5
t-23.5 40t-8.5 47v746q-1 35 3.5 80t20 91.5t44.5 91.5t76 80t114.5 56.5t160.5 21.5q75 0 146.5 -21.5t128.5 -62.5t94.5 -99.5t46.5 -132.5q2 -21 1.5 -40.5t-2.5 -39.5q-4 -29 -13.5 -58t-23.5 -55t-32 -48t-39 -37q38 -17 71.5 -49t58 -72.5t39 -87.5t14.5 -94
q0 -84 -27.5 -156t-78.5 -125t-122 -83t-158 -30q-60 0 -98 29.5t-38 86.5q0 18 5.5 30.5t15 22t21.5 16.5t26 14q42 12 85 29t78 41.5t57.5 58t22.5 79.5q0 42 -17 75.5t-45 57t-63 36.5t-72 13q-54 0 -84.5 24t-30.5 72z" />
    <glyph glyph-name="agrave" unicode="&#xe0;" 
d="M446 1366q26 0 58 -20.5t60 -48t47 -55.5t20 -43q3 -20 -1 -34q-7 -33 -39 -47q-23 -11 -47 -8q-19 0 -49.5 15t-61 37t-53.5 46.5t-27 43.5q-5 22 1 42.5t18.5 36.5t31.5 25.5t42 9.5zM1052 65q0 -37 -19 -56.5t-54 -19.5q-37 0 -60.5 21.5t-34.5 56.5l-43 171l-25 13
v230q0 25 9.5 46t25.5 37t37.5 25t45.5 9q25 0 46.5 -9t37.5 -25t25 -37t9 -46v-416zM992 483q0 -102 -29.5 -192t-85.5 -157t-136.5 -106t-182.5 -39t-191.5 39t-157 106t-106.5 157t-39 192t39 191.5t106.5 156.5t157 106t191.5 39t182.5 -39t136.5 -106t85.5 -156.5
t29.5 -191.5zM814 483q0 54 -20 102.5t-54.5 84.5t-81 57t-100.5 21t-101 -21t-81.5 -57t-54 -84.5t-19.5 -102.5q0 -55 19.5 -103.5t54 -84.5t81.5 -57t101 -21t100.5 21t81 57t54.5 84.5t20 103.5zM1052 452q0 -25 -9 -46.5t-25 -37.5t-37.5 -25t-46.5 -9q-24 0 -45.5 9
t-37.5 25t-25.5 37.5t-9.5 46.5v262l25 14l43 132q12 63 39.5 89.5t64.5 26.5q64 0 64 -64v-460z" />
    <glyph glyph-name="aacute" unicode="&#xe1;" 
d="M695 1352q23 0 42 -9.5t32 -25.5t18.5 -36.5t1.5 -42.5q-4 -19 -27.5 -43.5t-53.5 -46.5t-61 -37t-49 -15q-24 -3 -48 8q-32 14 -39 47q-2 8 -2 16.5t2 17.5q0 15 19.5 43t47 55.5t59.5 48t58 20.5zM1052 65q0 -37 -19 -56.5t-54 -19.5q-37 0 -60.5 21.5t-34.5 56.5
l-43 171l-25 13v230q0 25 9.5 46t25.5 37t37.5 25t45.5 9q25 0 46.5 -9t37.5 -25t25 -37t9 -46v-416zM992 483q0 -102 -29.5 -192t-85.5 -157t-136.5 -106t-182.5 -39t-191.5 39t-157 106t-106.5 157t-39 192t39 191.5t106.5 156.5t157 106t191.5 39t182.5 -39t136.5 -106
t85.5 -156.5t29.5 -191.5zM814 483q0 54 -20 102.5t-54.5 84.5t-81 57t-100.5 21t-101 -21t-81.5 -57t-54 -84.5t-19.5 -102.5q0 -55 19.5 -103.5t54 -84.5t81.5 -57t101 -21t100.5 21t81 57t54.5 84.5t20 103.5zM1052 452q0 -25 -9 -46.5t-25 -37.5t-37.5 -25t-46.5 -9
q-24 0 -45.5 9t-37.5 25t-25.5 37.5t-9.5 46.5v262l25 14l43 132q12 63 39.5 89.5t64.5 26.5q64 0 64 -64v-460z" />
    <glyph glyph-name="acircumflex" unicode="&#xe2;" 
d="M510 1387q23 23 52 25t53 -16l175 -171q25 -26 28.5 -60t-21.5 -60q-26 -26 -61.5 -20.5t-65.5 35.5l-103 103l-102 -103q-30 -30 -65.5 -36t-62.5 21q-15 15 -19 32.5t0.5 35t15 34t23.5 30.5zM1052 65q0 -37 -19 -56.5t-54 -19.5q-37 0 -60.5 21.5t-34.5 56.5l-43 171
l-25 13v230q0 25 9.5 46t25.5 37t37.5 25t45.5 9q25 0 46.5 -9t37.5 -25t25 -37t9 -46v-416zM992 483q0 -102 -29.5 -192t-85.5 -157t-136.5 -106t-182.5 -39t-191.5 39t-157 106t-106.5 157t-39 192t39 191.5t106.5 156.5t157 106t191.5 39t182.5 -39t136.5 -106
t85.5 -156.5t29.5 -191.5zM814 483q0 54 -20 102.5t-54.5 84.5t-81 57t-100.5 21t-101 -21t-81.5 -57t-54 -84.5t-19.5 -102.5q0 -55 19.5 -103.5t54 -84.5t81.5 -57t101 -21t100.5 21t81 57t54.5 84.5t20 103.5zM1052 452q0 -25 -9 -46.5t-25 -37.5t-37.5 -25t-46.5 -9
q-24 0 -45.5 9t-37.5 25t-25.5 37.5t-9.5 46.5v262l25 14l43 132q12 63 39.5 89.5t64.5 26.5q64 0 64 -64v-460z" />
    <glyph glyph-name="atilde" unicode="&#xe3;" 
d="M770 1312q12 7 28.5 5t29.5 -12.5t19.5 -29.5t-2.5 -46q-8 -27 -24 -51t-39 -42t-52 -28.5t-63 -10.5q-42 0 -67.5 16.5t-45 37t-39.5 37t-51 16.5q-24 0 -36.5 -11t-21.5 -24.5t-18.5 -26t-26.5 -15.5q-10 -1 -23 0q-18 3 -28.5 13t-14.5 22.5t-3.5 27.5t5.5 29
q18 57 61 93q11 9 23 15.5t26 11.5q12 4 26 6.5t29 2.5q47 0 74.5 -16.5t47.5 -37t38.5 -37t48.5 -16.5q15 0 24 8t18 19t21.5 23t35.5 21zM1052 65q0 -37 -19 -56.5t-54 -19.5q-37 0 -60.5 21.5t-34.5 56.5l-43 171l-25 13v230q0 25 9.5 46t25.5 37t37.5 25t45.5 9
q25 0 46.5 -9t37.5 -25t25 -37t9 -46v-416zM992 483q0 -102 -29.5 -192t-85.5 -157t-136.5 -106t-182.5 -39t-191.5 39t-157 106t-106.5 157t-39 192t39 191.5t106.5 156.5t157 106t191.5 39t182.5 -39t136.5 -106t85.5 -156.5t29.5 -191.5zM814 483q0 54 -20 102.5
t-54.5 84.5t-81 57t-100.5 21t-101 -21t-81.5 -57t-54 -84.5t-19.5 -102.5q0 -55 19.5 -103.5t54 -84.5t81.5 -57t101 -21t100.5 21t81 57t54.5 84.5t20 103.5zM1052 452q0 -25 -9 -46.5t-25 -37.5t-37.5 -25t-46.5 -9q-24 0 -45.5 9t-37.5 25t-25.5 37.5t-9.5 46.5v262
l25 14l43 132q12 63 39.5 89.5t64.5 26.5q64 0 64 -64v-460z" />
    <glyph glyph-name="adieresis" unicode="&#xe4;" 
d="M291 1220q0 22 8.5 41.5t22.5 34.5t33.5 23.5t42.5 8.5q22 0 41.5 -8.5t34.5 -23.5t23.5 -34.5t8.5 -41.5q0 -23 -8.5 -42.5t-23.5 -33.5t-34.5 -22.5t-41.5 -8.5q-23 0 -42.5 8.5t-33.5 22.5t-22.5 33.5t-8.5 42.5zM624 1220q0 22 8.5 41.5t22.5 34.5t33.5 23.5
t41.5 8.5t42 -8.5t34.5 -23.5t23 -34.5t8.5 -41.5q0 -23 -8.5 -42.5t-23 -33.5t-34.5 -22.5t-42 -8.5t-41.5 8.5t-33.5 22.5t-22.5 33.5t-8.5 42.5zM1052 65q0 -37 -19 -56.5t-54 -19.5q-37 0 -60.5 21.5t-34.5 56.5l-43 171l-25 13v230q0 25 9.5 46t25.5 37t37.5 25t45.5 9
q25 0 46.5 -9t37.5 -25t25 -37t9 -46v-416zM992 483q0 -102 -29.5 -192t-85.5 -157t-136.5 -106t-182.5 -39t-191.5 39t-157 106t-106.5 157t-39 192t39 191.5t106.5 156.5t157 106t191.5 39t182.5 -39t136.5 -106t85.5 -156.5t29.5 -191.5zM814 483q0 54 -20 102.5
t-54.5 84.5t-81 57t-100.5 21t-101 -21t-81.5 -57t-54 -84.5t-19.5 -102.5q0 -55 19.5 -103.5t54 -84.5t81.5 -57t101 -21t100.5 21t81 57t54.5 84.5t20 103.5zM1052 452q0 -25 -9 -46.5t-25 -37.5t-37.5 -25t-46.5 -9q-24 0 -45.5 9t-37.5 25t-25.5 37.5t-9.5 46.5v262
l25 14l43 132q12 63 39.5 89.5t64.5 26.5q64 0 64 -64v-460z" />
    <glyph glyph-name="aring" unicode="&#xe5;" 
d="M435 1253q0 33 12.5 62t33.5 50.5t50 34t62 12.5t61.5 -12.5t50 -34t34 -50.5t12.5 -62q0 -32 -12.5 -61t-34 -50.5t-50 -34t-61.5 -12.5t-62 12.5t-50 34t-33.5 50.5t-12.5 61zM537 1253q0 -24 16 -41t40 -17t40 17t16 41t-16 41.5t-40 17.5t-40 -17.5t-16 -41.5z
M1052 65q0 -37 -19 -56.5t-54 -19.5q-37 0 -60.5 21.5t-34.5 56.5l-43 171l-25 13v230q0 25 9.5 46t25.5 37t37.5 25t45.5 9q25 0 46.5 -9t37.5 -25t25 -37t9 -46v-416zM992 483q0 -102 -29.5 -192t-85.5 -157t-136.5 -106t-182.5 -39t-191.5 39t-157 106t-106.5 157
t-39 192t39 191.5t106.5 156.5t157 106t191.5 39t182.5 -39t136.5 -106t85.5 -156.5t29.5 -191.5zM814 483q0 54 -20 102.5t-54.5 84.5t-81 57t-100.5 21t-101 -21t-81.5 -57t-54 -84.5t-19.5 -102.5q0 -55 19.5 -103.5t54 -84.5t81.5 -57t101 -21t100.5 21t81 57t54.5 84.5
t20 103.5zM1052 452q0 -25 -9 -46.5t-25 -37.5t-37.5 -25t-46.5 -9q-24 0 -45.5 9t-37.5 25t-25.5 37.5t-9.5 46.5v262l25 14l43 132q12 63 39.5 89.5t64.5 26.5q64 0 64 -64v-460z" />
    <glyph glyph-name="ae" unicode="&#xe6;" horiz-adv-x="1926" 
d="M1066 65q0 -37 -19 -56.5t-54 -19.5q-37 0 -60.5 21.5t-34.5 56.5l-43 171l-25 13v230q0 25 9.5 46t25.5 37t37.5 25t45.5 9q25 0 46.5 -9t37.5 -25t25 -37t9 -46v-416zM1006 483q0 -102 -29.5 -192t-85.5 -157t-136.5 -106t-182.5 -39t-191.5 39t-157 106t-106.5 157
t-39 192t39 191.5t106.5 156.5t157 106t191.5 39t182.5 -39t136.5 -106t85.5 -156.5t29.5 -191.5zM828 483q0 54 -20 102.5t-54.5 84.5t-81 57t-100.5 21t-101 -21t-81.5 -57t-54 -84.5t-19.5 -102.5q0 -55 19.5 -103.5t54 -84.5t81.5 -57t101 -21t100.5 21t81 57t54.5 84.5
t20 103.5zM1066 452q0 -25 -9 -46.5t-25 -37.5t-37.5 -25t-46.5 -9q-24 0 -45.5 9t-37.5 25t-25.5 37.5t-9.5 46.5v262l25 14l43 132q12 63 39.5 89.5t64.5 26.5q64 0 64 -64v-460zM1397 -10q-102 0 -191.5 39t-157 105.5t-106.5 156.5t-39 192q0 108 40 198.5t109 156
t160 102.5t193 37t190.5 -36t154.5 -100t104 -152t38 -191q0 -50 -26 -67t-89 -17h-632q4 -46 25.5 -87.5t55.5 -73t78 -50.5t94 -19q48 0 93 16.5t81 47.5q21 12 50 13t56 -9t46 -32.5t19 -56.5q0 -39 -32 -71t-82 -54.5t-112 -35t-120 -12.5zM1405 785q-49 0 -94 -17
t-80 -47t-58.5 -70.5t-29.5 -88.5h511q-4 48 -25.5 88.5t-55 70.5t-77 47t-91.5 17z" />
    <glyph glyph-name="ccedilla" unicode="&#xe7;" horiz-adv-x="1008" 
d="M906 840q38 -41 38 -84q0 -24 -10 -45.5t-27 -36t-40 -21t-48 -1.5q-51 25 -103 49.5t-112 35.5q-57 7 -112 -7t-98 -47t-69 -83.5t-26 -116.5q0 -64 24.5 -114.5t66.5 -84t97 -48.5t117 -7q48 5 93.5 24t80.5 51q23 12 51.5 15t54.5 -8q28 -11 45 -37.5t17 -61.5
q0 -40 -31 -80t-84.5 -71.5t-125 -51.5t-151.5 -20q-102 0 -191.5 39t-156.5 106t-106 157t-39 192t39 191.5t106 156.5t156.5 106t191.5 39q50 0 100 -9t96.5 -26.5t86.5 -42.5t69 -58zM458 71h26t45.5 0.5t45.5 0.5h26v-26t1 -30t1.5 -27.5t2.5 -16.5q3 -8 8.5 -15.5
t17.5 -12.5q33 -15 56 -38.5t36.5 -52t18.5 -61t1 -63.5q-11 -70 -61.5 -115.5t-125.5 -51.5q-35 -3 -67.5 7t-58.5 28.5t-44 43t-25 50.5q-6 15 -6.5 33t6.5 33t22 25.5t39 10.5q25 0 38.5 -13.5t23.5 -30.5t21.5 -31.5t34.5 -14.5q11 0 22.5 3.5t21 11t15 20t5.5 29.5
q-1 20 -12 33.5t-27 24t-35 20.5t-35 22t-27 28.5t-11 41.5v134z" />
    <glyph glyph-name="egrave" unicode="&#xe8;" horiz-adv-x="1111" 
d="M555 -10q-102 0 -191.5 39t-157 105.5t-106.5 156.5t-39 192q0 108 40 198.5t109 156t160 102.5t193 37t190.5 -36t154.5 -100t104 -152t38 -191q0 -50 -26 -67t-89 -17h-632q4 -46 25.5 -87.5t55.5 -73t78 -50.5t94 -19q48 0 93 16.5t81 47.5q21 12 50 13t56 -9
t46 -32.5t19 -56.5q0 -39 -32 -71t-82 -54.5t-112 -35t-120 -12.5zM563 785q-49 0 -94 -17t-80 -47t-58.5 -70.5t-29.5 -88.5h511q-4 48 -25.5 88.5t-55 70.5t-77 47t-91.5 17zM435 1349q26 0 58 -20.5t60 -48t47 -55.5t20 -43q3 -20 -1 -34q-7 -33 -39 -47q-23 -11 -47 -8
q-19 0 -49.5 15t-61 37t-53.5 46.5t-27 43.5q-5 22 1 42.5t18.5 36.5t31.5 25.5t42 9.5z" />
    <glyph glyph-name="eacute" unicode="&#xe9;" horiz-adv-x="1111" 
d="M555 -10q-102 0 -191.5 39t-157 105.5t-106.5 156.5t-39 192q0 108 40 198.5t109 156t160 102.5t193 37t190.5 -36t154.5 -100t104 -152t38 -191q0 -50 -26 -67t-89 -17h-632q4 -46 25.5 -87.5t55.5 -73t78 -50.5t94 -19q48 0 93 16.5t81 47.5q21 12 50 13t56 -9
t46 -32.5t19 -56.5q0 -39 -32 -71t-82 -54.5t-112 -35t-120 -12.5zM563 785q-49 0 -94 -17t-80 -47t-58.5 -70.5t-29.5 -88.5h511q-4 48 -25.5 88.5t-55 70.5t-77 47t-91.5 17zM669 1345q23 0 42 -9.5t32 -25.5t18.5 -36.5t1.5 -42.5q-4 -19 -27.5 -43.5t-53.5 -46.5
t-61 -37t-49 -15q-24 -3 -48 8q-32 14 -39 47q-2 8 -2 16.5t2 17.5q0 15 19.5 43t47 55.5t59.5 48t58 20.5z" />
    <glyph glyph-name="ecircumflex" unicode="&#xea;" horiz-adv-x="1111" 
d="M555 -10q-102 0 -191.5 39t-157 105.5t-106.5 156.5t-39 192q0 108 40 198.5t109 156t160 102.5t193 37t190.5 -36t154.5 -100t104 -152t38 -191q0 -50 -26 -67t-89 -17h-632q4 -46 25.5 -87.5t55.5 -73t78 -50.5t94 -19q48 0 93 16.5t81 47.5q21 12 50 13t56 -9
t46 -32.5t19 -56.5q0 -39 -32 -71t-82 -54.5t-112 -35t-120 -12.5zM563 785q-49 0 -94 -17t-80 -47t-58.5 -70.5t-29.5 -88.5h511q-4 48 -25.5 88.5t-55 70.5t-77 47t-91.5 17zM504 1360q23 23 52 25t53 -16l175 -171q25 -26 28.5 -60t-21.5 -60q-26 -26 -61.5 -20.5
t-65.5 35.5l-103 103l-102 -103q-30 -30 -65.5 -36t-62.5 21q-15 15 -19 32.5t0.5 35t15 34t23.5 30.5z" />
    <glyph glyph-name="edieresis" unicode="&#xeb;" horiz-adv-x="1111" 
d="M555 -10q-102 0 -191.5 39t-157 105.5t-106.5 156.5t-39 192q0 108 40 198.5t109 156t160 102.5t193 37t190.5 -36t154.5 -100t104 -152t38 -191q0 -50 -26 -67t-89 -17h-632q4 -46 25.5 -87.5t55.5 -73t78 -50.5t94 -19q48 0 93 16.5t81 47.5q21 12 50 13t56 -9
t46 -32.5t19 -56.5q0 -39 -32 -71t-82 -54.5t-112 -35t-120 -12.5zM563 785q-49 0 -94 -17t-80 -47t-58.5 -70.5t-29.5 -88.5h511q-4 48 -25.5 88.5t-55 70.5t-77 47t-91.5 17zM269 1190q0 22 8.5 41.5t22.5 34.5t33.5 23.5t42.5 8.5q22 0 41.5 -8.5t34.5 -23.5t23.5 -34.5
t8.5 -41.5q0 -23 -8.5 -42.5t-23.5 -33.5t-34.5 -22.5t-41.5 -8.5q-23 0 -42.5 8.5t-33.5 22.5t-22.5 33.5t-8.5 42.5zM602 1190q0 22 8.5 41.5t22.5 34.5t33.5 23.5t41.5 8.5t42 -8.5t34.5 -23.5t23 -34.5t8.5 -41.5q0 -23 -8.5 -42.5t-23 -33.5t-34.5 -22.5t-42 -8.5
t-41.5 8.5t-33.5 22.5t-22.5 33.5t-8.5 42.5z" />
    <glyph glyph-name="igrave" unicode="&#xec;" horiz-adv-x="459" 
d="M115 1349q26 0 58 -20.5t60 -48t47 -55.5t20 -43q3 -20 -1 -34q-7 -33 -39 -47q-23 -11 -47 -8q-19 0 -49.5 15t-61 37t-53.5 46.5t-27 43.5q-5 22 1 42.5t18.5 36.5t31.5 25.5t42 9.5zM111 861q0 24 9 45.5t25 37.5t37.5 25t46.5 9q24 0 45.5 -9t37.5 -25t25.5 -37.5
t9.5 -45.5v-753q0 -25 -9.5 -46.5t-25.5 -37.5t-37.5 -25t-45.5 -9q-25 0 -46.5 9t-37.5 25t-25 37.5t-9 46.5v753z" />
    <glyph glyph-name="iacute" unicode="&#xed;" horiz-adv-x="459" 
d="M369 1352q23 0 42 -9.5t32 -25.5t18.5 -36.5t1.5 -42.5q-4 -19 -27.5 -43.5t-53.5 -46.5t-61 -37t-49 -15q-24 -3 -48 8q-32 14 -39 47q-2 8 -2 16.5t2 17.5q0 15 19.5 43t47 55.5t59.5 48t58 20.5zM111 861q0 24 9 45.5t25 37.5t37.5 25t46.5 9q24 0 45.5 -9t37.5 -25
t25.5 -37.5t9.5 -45.5v-753q0 -25 -9.5 -46.5t-25.5 -37.5t-37.5 -25t-45.5 -9q-25 0 -46.5 9t-37.5 25t-25 37.5t-9 46.5v753z" />
    <glyph glyph-name="icircumflex" unicode="&#xee;" horiz-adv-x="459" 
d="M111 861q0 24 9 45.5t25 37.5t37.5 25t46.5 9q24 0 45.5 -9t37.5 -25t25.5 -37.5t9.5 -45.5v-753q0 -25 -9.5 -46.5t-25.5 -37.5t-37.5 -25t-45.5 -9q-25 0 -46.5 9t-37.5 25t-25 37.5t-9 46.5v753zM172 1385q23 23 52 25t53 -16l175 -171q25 -26 28.5 -60t-21.5 -60
q-26 -26 -61.5 -20.5t-65.5 35.5l-103 103l-102 -103q-30 -30 -65.5 -36t-62.5 21q-15 15 -19 32.5t0.5 35t15 34t23.5 30.5z" />
    <glyph glyph-name="idieresis" unicode="&#xef;" horiz-adv-x="459" 
d="M-48 1228q0 22 8.5 41.5t22.5 34.5t33.5 23.5t42.5 8.5q22 0 41.5 -8.5t34.5 -23.5t23.5 -34.5t8.5 -41.5q0 -23 -8.5 -42.5t-23.5 -33.5t-34.5 -22.5t-41.5 -8.5q-23 0 -42.5 8.5t-33.5 22.5t-22.5 33.5t-8.5 42.5zM285 1228q0 22 8.5 41.5t22.5 34.5t33.5 23.5
t41.5 8.5t42 -8.5t34.5 -23.5t23 -34.5t8.5 -41.5q0 -23 -8.5 -42.5t-23 -33.5t-34.5 -22.5t-42 -8.5t-41.5 8.5t-33.5 22.5t-22.5 33.5t-8.5 42.5zM111 861q0 24 9 45.5t25 37.5t37.5 25t46.5 9q24 0 45.5 -9t37.5 -25t25.5 -37.5t9.5 -45.5v-753q0 -25 -9.5 -46.5
t-25.5 -37.5t-37.5 -25t-45.5 -9q-25 0 -46.5 9t-37.5 25t-25 37.5t-9 46.5v753z" />
    <glyph glyph-name="eth" unicode="&#xf0;" horiz-adv-x="1093" 
d="M521 1325q12 2 23 1t22 -3q23 -5 40 -21t29 -39l327 -548q29 -46 48 -101.5t24 -115.5q7 -98 -25.5 -187.5t-95 -159t-149 -113.5t-187.5 -51q-102 -8 -195 23.5t-165 91.5t-117 143.5t-52 181.5q-7 86 17 166t72.5 145.5t118 113t153.5 68.5q46 9 90 8.5t86 -9.5
q-18 25 -41.5 64t-47 80t-44 80t-32.5 66q-2 20 1.5 36.5t17.5 31.5q14 20 34 32.5t48 15.5zM778 491q-6 52 -29.5 95t-60 72.5t-82.5 43.5t-97 8t-92.5 -31t-70 -62.5t-41 -85t-6.5 -98.5t30 -94t60 -72.5t82.5 -43.5t97.5 -8t92.5 31t69.5 62t40.5 84.5t6.5 98.5z
M745 1326q29 15 60 4.5t47 -40.5q16 -29 6.5 -60.5t-38.5 -46.5l-391 -225q-15 -8 -30.5 -8.5t-30 5t-27 16t-20.5 25.5q-15 29 -6 60t39 47z" />
    <glyph glyph-name="ntilde" unicode="&#xf1;" horiz-adv-x="1213" 
d="M865 483q0 54 -18.5 102.5t-51.5 84.5t-78 57t-99 21q-53 0 -102 -22t-86.5 -58.5t-59.5 -85t-22 -101.5l-85 308q34 41 78.5 75.5t95 59t104.5 38.5t107 14q102 0 185.5 -39t143 -105.5t92 -156t32.5 -191.5v-376q0 -23 -8.5 -44t-24.5 -37.5t-37.5 -26.5t-46.5 -10
t-46.5 9.5t-37.5 25.5t-25.5 37.5t-9.5 45.5v375zM112 913q0 64 64 64q37 0 64 -25.5t40 -90.5l43 -182l25 -14v-557q0 -25 -9.5 -46.5t-25.5 -37.5t-37.5 -25t-45.5 -9q-25 0 -46.5 9t-37.5 25t-25 37.5t-9 46.5v805zM827 1336q12 7 28.5 5t29.5 -12.5t19.5 -29.5t-2.5 -46
q-8 -27 -24 -51t-39 -42t-52 -28.5t-63 -10.5q-42 0 -67.5 16.5t-45 37t-39.5 37t-51 16.5q-24 0 -36.5 -11t-21.5 -24.5t-18.5 -26t-26.5 -15.5q-10 -1 -23 0q-18 3 -28.5 13t-14.5 22.5t-3.5 27.5t5.5 29q18 57 61 93q11 9 23 15.5t26 11.5q12 4 26 6.5t29 2.5
q47 0 74.5 -16.5t47.5 -37t38.5 -37t48.5 -16.5q15 0 24 8t18 19t21.5 23t35.5 21z" />
    <glyph glyph-name="ograve" unicode="&#xf2;" horiz-adv-x="1110" 
d="M61 484q0 102 39 191.5t106.5 156.5t157 106t191.5 39t191.5 -39t157 -106t106.5 -156.5t39 -191.5t-39 -192t-106.5 -157t-157 -106t-191.5 -39t-191.5 39t-157 106t-106.5 157t-39 192zM299 484q0 -55 19.5 -103.5t54 -84.5t81.5 -57t101 -21t100.5 21t81 57t54.5 84.5
t20 103.5q0 54 -20 102.5t-54.5 84.5t-81 57t-100.5 21t-101 -21t-81.5 -57t-54 -84.5t-19.5 -102.5zM440 1346q26 0 58 -20.5t60 -48t47 -55.5t20 -43q3 -20 -1 -34q-7 -33 -39 -47q-23 -11 -47 -8q-19 0 -49.5 15t-61 37t-53.5 46.5t-27 43.5q-5 22 1 42.5t18.5 36.5
t31.5 25.5t42 9.5z" />
    <glyph glyph-name="oacute" unicode="&#xf3;" horiz-adv-x="1110" 
d="M61 484q0 102 39 191.5t106.5 156.5t157 106t191.5 39t191.5 -39t157 -106t106.5 -156.5t39 -191.5t-39 -192t-106.5 -157t-157 -106t-191.5 -39t-191.5 39t-157 106t-106.5 157t-39 192zM299 484q0 -55 19.5 -103.5t54 -84.5t81.5 -57t101 -21t100.5 21t81 57t54.5 84.5
t20 103.5q0 54 -20 102.5t-54.5 84.5t-81 57t-100.5 21t-101 -21t-81.5 -57t-54 -84.5t-19.5 -102.5zM666 1336q23 0 42 -9.5t32 -25.5t18.5 -36.5t1.5 -42.5q-4 -19 -27.5 -43.5t-53.5 -46.5t-61 -37t-49 -15q-24 -3 -48 8q-32 14 -39 47q-2 8 -2 16.5t2 17.5q0 15 19.5 43
t47 55.5t59.5 48t58 20.5z" />
    <glyph glyph-name="ocircumflex" unicode="&#xf4;" horiz-adv-x="1110" 
d="M61 484q0 102 39 191.5t106.5 156.5t157 106t191.5 39t191.5 -39t157 -106t106.5 -156.5t39 -191.5t-39 -192t-106.5 -157t-157 -106t-191.5 -39t-191.5 39t-157 106t-106.5 157t-39 192zM299 484q0 -55 19.5 -103.5t54 -84.5t81.5 -57t101 -21t100.5 21t81 57t54.5 84.5
t20 103.5q0 54 -20 102.5t-54.5 84.5t-81 57t-100.5 21t-101 -21t-81.5 -57t-54 -84.5t-19.5 -102.5zM495 1359q23 23 52 25t53 -16l175 -171q25 -26 28.5 -60t-21.5 -60q-26 -26 -61.5 -20.5t-65.5 35.5l-103 103l-102 -103q-30 -30 -65.5 -36t-62.5 21q-15 15 -19 32.5
t0.5 35t15 34t23.5 30.5z" />
    <glyph glyph-name="otilde" unicode="&#xf5;" horiz-adv-x="1110" 
d="M61 484q0 102 39 191.5t106.5 156.5t157 106t191.5 39t191.5 -39t157 -106t106.5 -156.5t39 -191.5t-39 -192t-106.5 -157t-157 -106t-191.5 -39t-191.5 39t-157 106t-106.5 157t-39 192zM299 484q0 -55 19.5 -103.5t54 -84.5t81.5 -57t101 -21t100.5 21t81 57t54.5 84.5
t20 103.5q0 54 -20 102.5t-54.5 84.5t-81 57t-100.5 21t-101 -21t-81.5 -57t-54 -84.5t-19.5 -102.5zM770 1309q12 7 28.5 5t29.5 -12.5t19.5 -29.5t-2.5 -46q-8 -27 -24 -51t-39 -42t-52 -28.5t-63 -10.5q-42 0 -67.5 16.5t-45 37t-39.5 37t-51 16.5q-24 0 -36.5 -11
t-21.5 -24.5t-18.5 -26t-26.5 -15.5q-10 -1 -23 0q-18 3 -28.5 13t-14.5 22.5t-3.5 27.5t5.5 29q18 57 61 93q11 9 23 15.5t26 11.5q12 4 26 6.5t29 2.5q47 0 74.5 -16.5t47.5 -37t38.5 -37t48.5 -16.5q15 0 24 8t18 19t21.5 23t35.5 21z" />
    <glyph glyph-name="odieresis" unicode="&#xf6;" horiz-adv-x="1110" 
d="M61 484q0 102 39 191.5t106.5 156.5t157 106t191.5 39t191.5 -39t157 -106t106.5 -156.5t39 -191.5t-39 -192t-106.5 -157t-157 -106t-191.5 -39t-191.5 39t-157 106t-106.5 157t-39 192zM299 484q0 -55 19.5 -103.5t54 -84.5t81.5 -57t101 -21t100.5 21t81 57t54.5 84.5
t20 103.5q0 54 -20 102.5t-54.5 84.5t-81 57t-100.5 21t-101 -21t-81.5 -57t-54 -84.5t-19.5 -102.5zM279 1186q0 22 8.5 41.5t22.5 34.5t33.5 23.5t42.5 8.5q22 0 41.5 -8.5t34.5 -23.5t23.5 -34.5t8.5 -41.5q0 -23 -8.5 -42.5t-23.5 -33.5t-34.5 -22.5t-41.5 -8.5
q-23 0 -42.5 8.5t-33.5 22.5t-22.5 33.5t-8.5 42.5zM612 1186q0 22 8.5 41.5t22.5 34.5t33.5 23.5t41.5 8.5t42 -8.5t34.5 -23.5t23 -34.5t8.5 -41.5q0 -23 -8.5 -42.5t-23 -33.5t-34.5 -22.5t-42 -8.5t-41.5 8.5t-33.5 22.5t-22.5 33.5t-8.5 42.5z" />
    <glyph glyph-name="divide" unicode="&#xf7;" horiz-adv-x="918" 
d="M342 258q0 25 9.5 47t26 38.5t38.5 26t47 9.5t47 -9.5t38.5 -26t26 -38.5t9.5 -47t-9.5 -47t-26 -38.5t-38.5 -26t-47 -9.5t-47 9.5t-38.5 26t-26 38.5t-9.5 47zM584 1039q0 -26 -10 -48t-26.5 -38t-38.5 -25.5t-46 -9.5q-26 0 -48 9.5t-38 25.5t-25.5 38t-9.5 48
q0 24 9.5 46t25.5 38.5t38 26.5t48 10q24 0 46 -10t38.5 -26.5t26.5 -38.5t10 -46zM740 725q36 0 61.5 -25.5t25.5 -63.5q0 -36 -25.5 -62t-61.5 -26h-553q-36 0 -61 26t-25 62q0 38 25 63.5t61 25.5h553z" />
    <glyph glyph-name="oslash" unicode="&#xf8;" horiz-adv-x="1109" 
d="M63 512q6 101 50 188.5t115 150.5t162.5 96.5t193.5 27.5q23 -2 45 -7.5t44 -13.5q11 20 25.5 45.5t32 50t38 45.5t42.5 33q19 11 39 14t43 -5q36 -14 56.5 -43.5t18.5 -61.5q-1 -7 -3 -15t-10 -26.5t-25.5 -52.5t-49.5 -92q84 -70 129.5 -172t36.5 -220
q-6 -102 -50 -189t-114.5 -150t-162.5 -96.5t-193 -27.5q-26 2 -47 6.5t-41 12.5l-30 -52q-12 -23 -26 -45.5t-30.5 -40t-36 -28.5t-42.5 -9q-27 1 -49.5 11.5t-39 27t-25 38t-6.5 44.5q1 6 4 14.5t11.5 25.5t23.5 45t39 73q-85 72 -131 175t-37 223zM300 507
q-5 -54 10 -104.5t46 -89.5t75.5 -64.5t98.5 -30.5t102.5 11.5t86 49.5t62 79.5t29.5 100.5t-10.5 104t-46.5 89t-75.5 64t-98.5 30t-102.5 -11.5t-86 -49t-61.5 -78.5t-29 -100z" />
    <glyph glyph-name="ugrave" unicode="&#xf9;" horiz-adv-x="1212" 
d="M348 485q0 -55 18.5 -103.5t51.5 -84.5t78 -57t99 -21q53 0 102 22t86.5 59t59.5 85.5t22 101.5l86 -309q-35 -41 -79.5 -75.5t-95 -59t-104.5 -38.5t-107 -14q-102 0 -185.5 39t-143 105.5t-92 156.5t-32.5 192v376q0 22 8.5 43.5t24.5 37.5t37 26t47 10q25 0 46.5 -9
t37.5 -25t25.5 -37.5t9.5 -45.5v-375zM1101 54q0 -64 -64 -64q-36 0 -63.5 25.5t-40.5 90.5l-43 183l-25 13v558q0 25 9.5 46t25.5 37t37.5 25t45.5 9q25 0 46.5 -9t37.5 -25t25 -37t9 -46v-806zM514 1337q26 0 58 -20.5t60 -48t47 -55.5t20 -43q3 -20 -1 -34
q-7 -33 -39 -47q-23 -11 -47 -8q-19 0 -49.5 15t-61 37t-53.5 46.5t-27 43.5q-5 22 1 42.5t18.5 36.5t31.5 25.5t42 9.5z" />
    <glyph glyph-name="uacute" unicode="&#xfa;" horiz-adv-x="1212" 
d="M348 485q0 -55 18.5 -103.5t51.5 -84.5t78 -57t99 -21q53 0 102 22t86.5 59t59.5 85.5t22 101.5l86 -309q-35 -41 -79.5 -75.5t-95 -59t-104.5 -38.5t-107 -14q-102 0 -185.5 39t-143 105.5t-92 156.5t-32.5 192v376q0 22 8.5 43.5t24.5 37.5t37 26t47 10q25 0 46.5 -9
t37.5 -25t25.5 -37.5t9.5 -45.5v-375zM1101 54q0 -64 -64 -64q-36 0 -63.5 25.5t-40.5 90.5l-43 183l-25 13v558q0 25 9.5 46t25.5 37t37.5 25t45.5 9q25 0 46.5 -9t37.5 -25t25 -37t9 -46v-806zM700 1337q23 0 42 -9.5t32 -25.5t18.5 -36.5t1.5 -42.5q-4 -19 -27.5 -43.5
t-53.5 -46.5t-61 -37t-49 -15q-24 -3 -48 8q-32 14 -39 47q-2 8 -2 16.5t2 17.5q0 15 19.5 43t47 55.5t59.5 48t58 20.5z" />
    <glyph glyph-name="ucircumflex" unicode="&#xfb;" horiz-adv-x="1212" 
d="M348 485q0 -55 18.5 -103.5t51.5 -84.5t78 -57t99 -21q53 0 102 22t86.5 59t59.5 85.5t22 101.5l86 -309q-35 -41 -79.5 -75.5t-95 -59t-104.5 -38.5t-107 -14q-102 0 -185.5 39t-143 105.5t-92 156.5t-32.5 192v376q0 22 8.5 43.5t24.5 37.5t37 26t47 10q25 0 46.5 -9
t37.5 -25t25.5 -37.5t9.5 -45.5v-375zM1101 54q0 -64 -64 -64q-36 0 -63.5 25.5t-40.5 90.5l-43 183l-25 13v558q0 25 9.5 46t25.5 37t37.5 25t45.5 9q25 0 46.5 -9t37.5 -25t25 -37t9 -46v-806zM537 1393q23 23 52 25t53 -16l175 -171q25 -26 28.5 -60t-21.5 -60
q-26 -26 -61.5 -20.5t-65.5 35.5l-103 103l-102 -103q-30 -30 -65.5 -36t-62.5 21q-15 15 -19 32.5t0.5 35t15 34t23.5 30.5z" />
    <glyph glyph-name="udieresis" unicode="&#xfc;" horiz-adv-x="1212" 
d="M348 485q0 -55 18.5 -103.5t51.5 -84.5t78 -57t99 -21q53 0 102 22t86.5 59t59.5 85.5t22 101.5l86 -309q-35 -41 -79.5 -75.5t-95 -59t-104.5 -38.5t-107 -14q-102 0 -185.5 39t-143 105.5t-92 156.5t-32.5 192v376q0 22 8.5 43.5t24.5 37.5t37 26t47 10q25 0 46.5 -9
t37.5 -25t25.5 -37.5t9.5 -45.5v-375zM1101 54q0 -64 -64 -64q-36 0 -63.5 25.5t-40.5 90.5l-43 183l-25 13v558q0 25 9.5 46t25.5 37t37.5 25t45.5 9q25 0 46.5 -9t37.5 -25t25 -37t9 -46v-806zM320 1208q0 22 8.5 41.5t22.5 34.5t33.5 23.5t42.5 8.5q22 0 41.5 -8.5
t34.5 -23.5t23.5 -34.5t8.5 -41.5q0 -23 -8.5 -42.5t-23.5 -33.5t-34.5 -22.5t-41.5 -8.5q-23 0 -42.5 8.5t-33.5 22.5t-22.5 33.5t-8.5 42.5zM653 1208q0 22 8.5 41.5t22.5 34.5t33.5 23.5t41.5 8.5t42 -8.5t34.5 -23.5t23 -34.5t8.5 -41.5q0 -23 -8.5 -42.5t-23 -33.5
t-34.5 -22.5t-42 -8.5t-41.5 8.5t-33.5 22.5t-22.5 33.5t-8.5 42.5z" />
    <glyph glyph-name="yacute" unicode="&#xfd;" horiz-adv-x="1010" 
d="M386 84q0 1 -14.5 32t-37.5 82t-52.5 115.5t-60.5 132.5l-164 360q-21 49 -9 95.5t60 69.5q22 10 47 11.5t48 -7t41.5 -26.5t28.5 -45l236 -602q54 138 96.5 247t72.5 187t47 122.5t21 53.5q9 21 26 37.5t38 25t45.5 8.5t50.5 -12q13 -6 29 -20t26 -34t11.5 -47
t-13.5 -59l-398 -894q-22 -50 -50.5 -89.5t-66.5 -67.5t-87 -44t-112 -18q-58 -1 -95.5 29t-37.5 87q0 28 11.5 44.5t30.5 27t43 17.5t48.5 15t48 19.5t40.5 31.5zM609 1297q23 0 42 -9.5t32 -25.5t18.5 -36.5t1.5 -42.5q-4 -19 -27.5 -43.5t-53.5 -46.5t-61 -37t-49 -15
q-24 -3 -48 8q-32 14 -39 47q-2 8 -2 16.5t2 17.5q0 15 19.5 43t47 55.5t59.5 48t58 20.5z" />
    <glyph glyph-name="thorn" unicode="&#xfe;" horiz-adv-x="1171" 
d="M241 -284q-32 0 -54 17.5t-36 45.5t-20.5 61.5t-6.5 66.5v1192q0 32 6.5 65.5t21 61t36.5 45t53 17.5t53 -17t36 -43t20.5 -58t6.5 -63v-289q10 25 38.5 53t68 51t87.5 38.5t98 15.5q102 0 186.5 -39t146 -106t95.5 -156.5t34 -191.5t-34 -192t-95.5 -157t-146 -106
t-186.5 -39q-47 0 -91 11.5t-82 30.5t-68 44.5t-49 53.5v-235q0 -31 -6.5 -62.5t-21 -57t-37 -42t-53.5 -16.5zM873 483q0 54 -17.5 102.5t-50 84.5t-77.5 57t-99 21q-53 0 -101.5 -21.5t-85 -58t-58.5 -84.5t-22 -101q0 -55 21.5 -103.5t58 -84.5t85 -57t102.5 -21t99 21
t77.5 57t50 84.5t17.5 103.5z" />
    <glyph glyph-name="ydieresis" unicode="&#xff;" horiz-adv-x="1010" 
d="M386 84q0 1 -14.5 32t-37.5 82t-52.5 115.5t-60.5 132.5l-164 360q-21 49 -9 95.5t60 69.5q22 10 47 11.5t48 -7t41.5 -26.5t28.5 -45l236 -602q54 138 96.5 247t72.5 187t47 122.5t21 53.5q9 21 26 37.5t38 25t45.5 8.5t50.5 -12q13 -6 29 -20t26 -34t11.5 -47
t-13.5 -59l-398 -894q-22 -50 -50.5 -89.5t-66.5 -67.5t-87 -44t-112 -18q-58 -1 -95.5 29t-37.5 87q0 28 11.5 44.5t30.5 27t43 17.5t48.5 15t48 19.5t40.5 31.5zM245 1145q0 22 8.5 41.5t22.5 34.5t33.5 23.5t42.5 8.5q22 0 41.5 -8.5t34.5 -23.5t23.5 -34.5t8.5 -41.5
q0 -23 -8.5 -42.5t-23.5 -33.5t-34.5 -22.5t-41.5 -8.5q-23 0 -42.5 8.5t-33.5 22.5t-22.5 33.5t-8.5 42.5zM578 1145q0 22 8.5 41.5t22.5 34.5t33.5 23.5t41.5 8.5t42 -8.5t34.5 -23.5t23 -34.5t8.5 -41.5q0 -23 -8.5 -42.5t-23 -33.5t-34.5 -22.5t-42 -8.5t-41.5 8.5
t-33.5 22.5t-22.5 33.5t-8.5 42.5z" />
    <glyph glyph-name="Amacron" unicode="&#x100;" horiz-adv-x="1151" 
d="M567 1276q26 0 46 -11t35.5 -28.5t27 -39.5t21.5 -45l401 -1001q5 -11 7 -23.5t2 -23.5q0 -26 -12.5 -49.5t-35.5 -37.5q-22 -19 -49.5 -24.5t-53.5 2t-48 26.5t-33 49l-72 180h-466l-74 -181q-19 -45 -50 -64.5t-71 -16.5q-26 1 -48 12.5t-37 31t-21 45.5t1 55
q8 25 17 48.5t18 47.5l373 933q5 13 6.5 26t3.5 26q3 13 9 24.5t18 20t32.5 13.5t52.5 5zM388 439h364l-182 465zM827 1540q34 0 57.5 -24.5t23.5 -59.5q0 -33 -23.5 -58t-57.5 -25h-544q-33 0 -56.5 25t-23.5 58q0 35 23.5 59.5t56.5 24.5h544z" />
    <glyph glyph-name="amacron" unicode="&#x101;" 
d="M845 1237q34 0 57.5 -24.5t23.5 -59.5q0 -33 -23.5 -58t-57.5 -25h-544q-33 0 -56.5 25t-23.5 58q0 35 23.5 59.5t56.5 24.5h544zM1052 65q0 -37 -19 -56.5t-54 -19.5q-37 0 -60.5 21.5t-34.5 56.5l-43 171l-25 13v230q0 25 9.5 46t25.5 37t37.5 25t45.5 9q25 0 46.5 -9
t37.5 -25t25 -37t9 -46v-416zM992 483q0 -102 -29.5 -192t-85.5 -157t-136.5 -106t-182.5 -39t-191.5 39t-157 106t-106.5 157t-39 192t39 191.5t106.5 156.5t157 106t191.5 39t182.5 -39t136.5 -106t85.5 -156.5t29.5 -191.5zM814 483q0 54 -20 102.5t-54.5 84.5t-81 57
t-100.5 21t-101 -21t-81.5 -57t-54 -84.5t-19.5 -102.5q0 -55 19.5 -103.5t54 -84.5t81.5 -57t101 -21t100.5 21t81 57t54.5 84.5t20 103.5zM1052 452q0 -25 -9 -46.5t-25 -37.5t-37.5 -25t-46.5 -9q-24 0 -45.5 9t-37.5 25t-25.5 37.5t-9.5 46.5v262l25 14l43 132
q12 63 39.5 89.5t64.5 26.5q64 0 64 -64v-460z" />
    <glyph glyph-name="Abreve" unicode="&#x102;" horiz-adv-x="1151" 
d="M567 1276q26 0 46 -11t35.5 -28.5t27 -39.5t21.5 -45l401 -1001q5 -11 7 -23.5t2 -23.5q0 -26 -12.5 -49.5t-35.5 -37.5q-22 -19 -49.5 -24.5t-53.5 2t-48 26.5t-33 49l-72 180h-466l-74 -181q-19 -45 -50 -64.5t-71 -16.5q-26 1 -48 12.5t-37 31t-21 45.5t1 55
q8 25 17 48.5t18 47.5l373 933q5 13 6.5 26t3.5 26q3 13 9 24.5t18 20t32.5 13.5t52.5 5zM388 439h364l-182 465zM565 1382q-43 0 -82 15.5t-68 42.5t-46.5 62.5t-17.5 75.5q0 33 23 57t57 24q23 0 35 -9.5t18 -24t9.5 -31.5t10.5 -31.5t20.5 -24t40.5 -9.5q26 0 40 9.5
t21.5 24t11 31.5t9.5 31.5t18 24t35 9.5q34 0 56.5 -23.5t22.5 -56.5q0 -41 -17.5 -77t-47 -62.5t-68 -42t-81.5 -15.5z" />
    <glyph glyph-name="abreve" unicode="&#x103;" 
d="M574 1100q-43 0 -82 15.5t-68 42.5t-46.5 62.5t-17.5 75.5q0 33 23 57t57 24q23 0 35 -9.5t18 -24t9.5 -31.5t10.5 -31.5t20.5 -24t40.5 -9.5q26 0 40 9.5t21.5 24t11 31.5t9.5 31.5t18 24t35 9.5q34 0 56.5 -23.5t22.5 -56.5q0 -41 -17.5 -77t-47 -62.5t-68 -42
t-81.5 -15.5zM1052 65q0 -37 -19 -56.5t-54 -19.5q-37 0 -60.5 21.5t-34.5 56.5l-43 171l-25 13v230q0 25 9.5 46t25.5 37t37.5 25t45.5 9q25 0 46.5 -9t37.5 -25t25 -37t9 -46v-416zM992 483q0 -102 -29.5 -192t-85.5 -157t-136.5 -106t-182.5 -39t-191.5 39t-157 106
t-106.5 157t-39 192t39 191.5t106.5 156.5t157 106t191.5 39t182.5 -39t136.5 -106t85.5 -156.5t29.5 -191.5zM814 483q0 54 -20 102.5t-54.5 84.5t-81 57t-100.5 21t-101 -21t-81.5 -57t-54 -84.5t-19.5 -102.5q0 -55 19.5 -103.5t54 -84.5t81.5 -57t101 -21t100.5 21
t81 57t54.5 84.5t20 103.5zM1052 452q0 -25 -9 -46.5t-25 -37.5t-37.5 -25t-46.5 -9q-24 0 -45.5 9t-37.5 25t-25.5 37.5t-9.5 46.5v262l25 14l43 132q12 63 39.5 89.5t64.5 26.5q64 0 64 -64v-460z" />
    <glyph glyph-name="Aogonek" unicode="&#x104;" horiz-adv-x="1151" 
d="M567 1276q26 0 46 -11t35.5 -28.5t27 -39.5t21.5 -45l401 -1001q5 -11 7 -23.5t2 -23.5q0 -26 -12.5 -49.5t-35.5 -37.5q-22 -19 -49.5 -24.5t-53.5 2t-48 26.5t-33 49l-72 180h-466l-74 -181q-19 -45 -50 -64.5t-71 -16.5q-26 1 -48 12.5t-37 31t-21 45.5t1 55
q8 25 17 48.5t18 47.5l373 933q5 13 6.5 26t3.5 26q3 13 9 24.5t18 20t32.5 13.5t52.5 5zM388 439h364l-182 465zM978.288 114.848q13.4785 13.4863 29.8457 15.4121q16.3672 1.92676 31.7715 -3.85254t26.957 -18.3018q11.5537 -12.5225 16.8486 -27.9346t1.44434 -31.7881
q-3.85156 -16.375 -19.2559 -30.8242l-63.542 -56.832q-18.293 -17.3379 -33.2158 -30.3418t-25.5137 -24.5635q-10.5898 -11.5596 -16.3672 -23.1182q-5.77637 -11.5586 -5.77637 -25.0449q0 -19.2646 11.0723 -33.7139q11.0713 -14.4482 35.1406 -14.4482
q16.3672 0 25.0322 7.70508q8.66504 7.70703 13.96 19.2656t9.62793 25.0449q4.33203 13.4854 11.5527 25.0449q7.2207 11.5586 19.7373 19.2646q12.5156 7.70605 34.6592 7.70605q23.1064 0 43.3252 -16.375q20.2178 -16.376 20.2178 -42.3838
q0 -39.4932 -14.4414 -72.7256t-39.4736 -57.7959q-25.0322 -24.5625 -58.2471 -38.5303q-33.2158 -13.9668 -71.7266 -13.9668q-39.4736 0 -73.6523 13.9668q-34.1777 13.9678 -59.21 38.5303q-25.0322 24.5635 -39.4736 57.7959t-14.4414 72.7256
q0 32.751 12.9971 61.6484q12.998 28.8975 38.9922 58.2773q25.9951 29.3789 64.0244 63.0928q38.0293 33.7148 87.1309 77.0605z" />
    <glyph glyph-name="aogonek" unicode="&#x105;" 
d="M937 98q14 14 31 16t33 -4t28 -19t17.5 -29t1.5 -33t-20 -32l-66 -59q-19 -18 -34.5 -31.5t-26.5 -25.5t-17 -24t-6 -26q0 -20 11.5 -35t36.5 -15q17 0 26 8t14.5 20t10 26t12 26t20.5 20t36 8q24 0 45 -17t21 -44q0 -41 -15 -75.5t-41 -60t-60.5 -40t-74.5 -14.5
q-41 0 -76.5 14.5t-61.5 40t-41 60t-15 75.5q0 34 13.5 64t40.5 60.5t66.5 65.5t90.5 80zM1052 65q0 -37 -19 -56.5t-54 -19.5q-37 0 -60.5 21.5t-34.5 56.5l-43 171l-25 13v230q0 25 9.5 46t25.5 37t37.5 25t45.5 9q25 0 46.5 -9t37.5 -25t25 -37t9 -46v-416zM992 483
q0 -102 -29.5 -192t-85.5 -157t-136.5 -106t-182.5 -39t-191.5 39t-157 106t-106.5 157t-39 192t39 191.5t106.5 156.5t157 106t191.5 39t182.5 -39t136.5 -106t85.5 -156.5t29.5 -191.5zM814 483q0 54 -20 102.5t-54.5 84.5t-81 57t-100.5 21t-101 -21t-81.5 -57t-54 -84.5
t-19.5 -102.5q0 -55 19.5 -103.5t54 -84.5t81.5 -57t101 -21t100.5 21t81 57t54.5 84.5t20 103.5zM1052 452q0 -25 -9 -46.5t-25 -37.5t-37.5 -25t-46.5 -9q-24 0 -45.5 9t-37.5 25t-25.5 37.5t-9.5 46.5v262l25 14l43 132q12 63 39.5 89.5t64.5 26.5q64 0 64 -64v-460z" />
    <glyph glyph-name="Cacute" unicode="&#x106;" horiz-adv-x="1274" 
d="M999 908q-60 61 -132 97t-163 36q-84 0 -158.5 -32.5t-129.5 -89t-87 -131t-32 -158.5t32 -158.5t87.5 -130.5t129.5 -88.5t158 -32.5q54 0 98.5 12.5t83.5 34.5t74 50.5t71 60.5q14 9 31.5 14.5t35.5 5.5t35 -5t32 -17q22 -14 35 -37t13 -50q0 -23 -8.5 -45t-27.5 -41
q-50 -56 -100.5 -96.5t-107 -66.5t-121.5 -38.5t-144 -12.5q-133 0 -250 50.5t-204.5 138t-138 204.5t-50.5 250q0 88 23 170t65 153.5t100.5 130t130 100.5t153.5 65t171 23q69 0 130.5 -10.5t117 -34t107 -61.5t101.5 -92q33 -36 35 -85q1 -22 -8.5 -45t-29.5 -40
q-14 -13 -32 -21t-38.5 -9t-43 6.5t-44.5 25.5zM787 1632q23 0 42 -9.5t32 -25.5t18.5 -36.5t1.5 -42.5q-4 -19 -27.5 -43.5t-53.5 -46.5t-61 -37t-49 -15q-24 -3 -48 8q-32 14 -39 47q-2 8 -2 16.5t2 17.5q0 15 19.5 43t47 55.5t59.5 48t58 20.5z" />
    <glyph glyph-name="cacute" unicode="&#x107;" horiz-adv-x="1008" 
d="M906 840q38 -41 38 -84q0 -24 -10 -45.5t-27 -36t-40 -21t-48 -1.5q-51 25 -103 49.5t-112 35.5q-57 7 -112 -7t-98 -47t-69 -83.5t-26 -116.5q0 -64 24.5 -114.5t66.5 -84t97 -48.5t117 -7q48 5 93.5 24t80.5 51q23 12 51.5 15t54.5 -8q28 -11 45 -37.5t17 -61.5
q0 -40 -31 -80t-84.5 -71.5t-125 -51.5t-151.5 -20q-102 0 -191.5 39t-156.5 106t-106 157t-39 192t39 191.5t106 156.5t156.5 106t191.5 39q50 0 100 -9t96.5 -26.5t86.5 -42.5t69 -58zM645 1363q23 0 42 -9.5t32 -25.5t18.5 -36.5t1.5 -42.5q-4 -19 -27.5 -43.5
t-53.5 -46.5t-61 -37t-49 -15q-24 -3 -48 8q-32 14 -39 47q-2 8 -2 16.5t2 17.5q0 15 19.5 43t47 55.5t59.5 48t58 20.5z" />
    <glyph glyph-name="Ccircumflex" unicode="&#x108;" horiz-adv-x="1274" 
d="M999 908q-60 61 -132 97t-163 36q-84 0 -158.5 -32.5t-129.5 -89t-87 -131t-32 -158.5t32 -158.5t87.5 -130.5t129.5 -88.5t158 -32.5q54 0 98.5 12.5t83.5 34.5t74 50.5t71 60.5q14 9 31.5 14.5t35.5 5.5t35 -5t32 -17q22 -14 35 -37t13 -50q0 -23 -8.5 -45t-27.5 -41
q-50 -56 -100.5 -96.5t-107 -66.5t-121.5 -38.5t-144 -12.5q-133 0 -250 50.5t-204.5 138t-138 204.5t-50.5 250q0 88 23 170t65 153.5t100.5 130t130 100.5t153.5 65t171 23q69 0 130.5 -10.5t117 -34t107 -61.5t101.5 -92q33 -36 35 -85q1 -22 -8.5 -45t-29.5 -40
q-14 -13 -32 -21t-38.5 -9t-43 6.5t-44.5 25.5zM641 1660q23 23 52 25t53 -16l175 -171q25 -26 28.5 -60t-21.5 -60q-26 -26 -61.5 -20.5t-65.5 35.5l-103 103l-102 -103q-30 -30 -65.5 -36t-62.5 21q-15 15 -19 32.5t0.5 35t15 34t23.5 30.5z" />
    <glyph glyph-name="ccircumflex" unicode="&#x109;" horiz-adv-x="1008" 
d="M906 840q38 -41 38 -84q0 -24 -10 -45.5t-27 -36t-40 -21t-48 -1.5q-51 25 -103 49.5t-112 35.5q-57 7 -112 -7t-98 -47t-69 -83.5t-26 -116.5q0 -64 24.5 -114.5t66.5 -84t97 -48.5t117 -7q48 5 93.5 24t80.5 51q23 12 51.5 15t54.5 -8q28 -11 45 -37.5t17 -61.5
q0 -40 -31 -80t-84.5 -71.5t-125 -51.5t-151.5 -20q-102 0 -191.5 39t-156.5 106t-106 157t-39 192t39 191.5t106 156.5t156.5 106t191.5 39q50 0 100 -9t96.5 -26.5t86.5 -42.5t69 -58zM493 1359q23 23 52 25t53 -16l175 -171q25 -26 28.5 -60t-21.5 -60
q-26 -26 -61.5 -20.5t-65.5 35.5l-103 103l-102 -103q-30 -30 -65.5 -36t-62.5 21q-15 15 -19 32.5t0.5 35t15 34t23.5 30.5z" />
    <glyph glyph-name="Cdotaccent" unicode="&#x10a;" horiz-adv-x="1274" 
d="M999 908q-60 61 -132 97t-163 36q-84 0 -158.5 -32.5t-129.5 -89t-87 -131t-32 -158.5t32 -158.5t87.5 -130.5t129.5 -88.5t158 -32.5q54 0 98.5 12.5t83.5 34.5t74 50.5t71 60.5q14 9 31.5 14.5t35.5 5.5t35 -5t32 -17q22 -14 35 -37t13 -50q0 -23 -8.5 -45t-27.5 -41
q-50 -56 -100.5 -96.5t-107 -66.5t-121.5 -38.5t-144 -12.5q-133 0 -250 50.5t-204.5 138t-138 204.5t-50.5 250q0 88 23 170t65 153.5t100.5 130t130 100.5t153.5 65t171 23q69 0 130.5 -10.5t117 -34t107 -61.5t101.5 -92q33 -36 35 -85q1 -22 -8.5 -45t-29.5 -40
q-14 -13 -32 -21t-38.5 -9t-43 6.5t-44.5 25.5zM565 1494q0 27 9.5 49.5t26.5 39.5t39.5 26.5t49.5 9.5q26 0 49 -9.5t40.5 -26.5t27.5 -39.5t10 -49.5t-10 -49.5t-27.5 -39t-40.5 -25.5t-49 -9q-27 0 -49.5 9t-39.5 25.5t-26.5 39t-9.5 49.5z" />
    <glyph glyph-name="cdotaccent" unicode="&#x10b;" horiz-adv-x="1008" 
d="M906 840q38 -41 38 -84q0 -24 -10 -45.5t-27 -36t-40 -21t-48 -1.5q-51 25 -103 49.5t-112 35.5q-57 7 -112 -7t-98 -47t-69 -83.5t-26 -116.5q0 -64 24.5 -114.5t66.5 -84t97 -48.5t117 -7q48 5 93.5 24t80.5 51q23 12 51.5 15t54.5 -8q28 -11 45 -37.5t17 -61.5
q0 -40 -31 -80t-84.5 -71.5t-125 -51.5t-151.5 -20q-102 0 -191.5 39t-156.5 106t-106 157t-39 192t39 191.5t106 156.5t156.5 106t191.5 39q50 0 100 -9t96.5 -26.5t86.5 -42.5t69 -58zM422 1220q0 27 9.5 49.5t26.5 39.5t39.5 26.5t49.5 9.5q26 0 49 -9.5t40.5 -26.5
t27.5 -39.5t10 -49.5t-10 -49.5t-27.5 -39t-40.5 -25.5t-49 -9q-27 0 -49.5 9t-39.5 25.5t-26.5 39t-9.5 49.5z" />
    <glyph glyph-name="Ccaron" unicode="&#x10c;" horiz-adv-x="1274" 
d="M999 908q-60 61 -132 97t-163 36q-84 0 -158.5 -32.5t-129.5 -89t-87 -131t-32 -158.5t32 -158.5t87.5 -130.5t129.5 -88.5t158 -32.5q54 0 98.5 12.5t83.5 34.5t74 50.5t71 60.5q14 9 31.5 14.5t35.5 5.5t35 -5t32 -17q22 -14 35 -37t13 -50q0 -23 -8.5 -45t-27.5 -41
q-50 -56 -100.5 -96.5t-107 -66.5t-121.5 -38.5t-144 -12.5q-133 0 -250 50.5t-204.5 138t-138 204.5t-50.5 250q0 88 23 170t65 153.5t100.5 130t130 100.5t153.5 65t171 23q69 0 130.5 -10.5t117 -34t107 -61.5t101.5 -92q33 -36 35 -85q1 -22 -8.5 -45t-29.5 -40
q-14 -13 -32 -21t-38.5 -9t-43 6.5t-44.5 25.5zM481 1539q-13 13 -23.5 30t-15 34.5t-0.5 35t19 32.5q28 27 63 21t66 -36l101 -103l104 103q30 30 65.5 35.5t61.5 -20.5q25 -26 21.5 -60t-29.5 -60l-175 -171q-23 -18 -52 -16t-52 25z" />
    <glyph glyph-name="ccaron" unicode="&#x10d;" horiz-adv-x="1008" 
d="M906 840q38 -41 38 -84q0 -24 -10 -45.5t-27 -36t-40 -21t-48 -1.5q-51 25 -103 49.5t-112 35.5q-57 7 -112 -7t-98 -47t-69 -83.5t-26 -116.5q0 -64 24.5 -114.5t66.5 -84t97 -48.5t117 -7q48 5 93.5 24t80.5 51q23 12 51.5 15t54.5 -8q28 -11 45 -37.5t17 -61.5
q0 -40 -31 -80t-84.5 -71.5t-125 -51.5t-151.5 -20q-102 0 -191.5 39t-156.5 106t-106 157t-39 192t39 191.5t106 156.5t156.5 106t191.5 39q50 0 100 -9t96.5 -26.5t86.5 -42.5t69 -58zM335 1238q-13 13 -23.5 30t-15 34.5t-0.5 35t19 32.5q28 27 63 21t66 -36l101 -103
l104 103q30 30 65.5 35.5t61.5 -20.5q25 -26 21.5 -60t-29.5 -60l-175 -171q-23 -18 -52 -16t-52 25z" />
    <glyph glyph-name="Dcaron" unicode="&#x10e;" horiz-adv-x="1265" 
d="M250 -10q-44 0 -75.5 26.5t-39.5 66.5q-2 6 -2 12v13v1043q-1 20 -6 39.5t-5 37.5q0 11 3.5 20t12.5 15t25 9.5t41 3.5h356q88 0 170 -23t153.5 -65t130.5 -101t101.5 -130.5t65.5 -153.5t23 -170q0 -89 -23 -171t-65.5 -153.5t-101.5 -130t-130.5 -100.5t-153.5 -65
t-170 -23h-310zM968 633q0 90 -32.5 166.5t-88 132.5t-129.5 88t-158 33h-192v-831h192q84 2 158 34t129.5 86.5t88 129t32.5 161.5zM250 1552q-13 13 -23.5 30t-15 34.5t-0.5 35t19 32.5q28 27 63 21t66 -36l101 -103l104 103q30 30 65.5 35.5t61.5 -20.5q25 -26 21.5 -60
t-29.5 -60l-175 -171q-23 -18 -52 -16t-52 25z" />
    <glyph glyph-name="dcaron" unicode="&#x10f;" horiz-adv-x="1171" 
d="M813 1173q0 25 9.5 46.5t25.5 37.5t37.5 25t45.5 9q25 0 46.5 -9t37.5 -25t25 -37.5t9 -46.5v-1120q0 -64 -65 -64q-36 0 -64 27t-39 89l-43 133l-25 13v922zM976 483q0 -102 -31 -192t-88.5 -157t-139 -106t-183.5 -39t-188.5 39t-149.5 106t-99 157t-36 192t36 191.5
t99 156.5t149.5 106t188.5 39q85 0 165 -39t141.5 -106t98.5 -156.5t37 -191.5zM813 483q0 54 -20 102.5t-55 84.5t-82 57t-101 21t-101 -21t-81.5 -57t-54 -84.5t-19.5 -102.5q0 -55 19.5 -103.5t54 -84.5t81.5 -57t101 -21t101 21t82 57t55 84.5t20 103.5zM286 1258
q-13 13 -23.5 30t-15 34.5t-0.5 35t19 32.5q28 27 63 21t66 -36l101 -103l104 103q30 30 65.5 35.5t61.5 -20.5q25 -26 21.5 -60t-29.5 -60l-175 -171q-23 -18 -52 -16t-52 25z" />
    <glyph glyph-name="Dcroat" unicode="&#x110;" horiz-adv-x="1303" 
d="M287 -10q-44 0 -75.5 26.5t-39.5 66.5q-2 6 -2 12v13v1043q-1 20 -6 39.5t-5 37.5q0 11 3.5 20t12.5 15t25 9.5t41 3.5h356q88 0 170 -23t153.5 -65t130.5 -101t101.5 -130.5t65.5 -153.5t23 -170q0 -89 -23 -171t-65.5 -153.5t-101.5 -130t-130.5 -100.5t-153.5 -65
t-170 -23h-310zM1005 633q0 90 -32.5 166.5t-88 132.5t-129.5 88t-158 33h-192v-831h192q84 2 158 34t129.5 86.5t88 129t32.5 161.5zM633 723q34 0 57.5 -24.5t23.5 -59.5q0 -33 -23.5 -58t-57.5 -25h-544q-33 0 -56.5 25t-23.5 58q0 35 23.5 59.5t56.5 24.5h544z" />
    <glyph glyph-name="dcroat" unicode="&#x111;" horiz-adv-x="1171" 
d="M813 1173q0 25 9.5 46.5t25.5 37.5t37.5 25t45.5 9q25 0 46.5 -9t37.5 -25t25 -37.5t9 -46.5v-1120q0 -64 -65 -64q-36 0 -64 27t-39 89l-43 133l-25 13v922zM976 483q0 -102 -31 -192t-88.5 -157t-139 -106t-183.5 -39t-188.5 39t-149.5 106t-99 157t-36 192t36 191.5
t99 156.5t149.5 106t188.5 39q85 0 165 -39t141.5 -106t98.5 -156.5t37 -191.5zM813 483q0 54 -20 102.5t-55 84.5t-82 57t-101 21t-101 -21t-81.5 -57t-54 -84.5t-19.5 -102.5q0 -55 19.5 -103.5t54 -84.5t81.5 -57t101 -21t101 21t82 57t55 84.5t20 103.5zM1204 1185
q34 0 57.5 -24.5t23.5 -59.5q0 -33 -23.5 -58t-57.5 -25h-544q-33 0 -56.5 25t-23.5 58q0 35 23.5 59.5t56.5 24.5h544z" />
    <glyph glyph-name="Emacron" unicode="&#x112;" horiz-adv-x="1108" 
d="M1064 108q0 -26 -10 -48t-27 -37.5t-40 -24t-49 -8.5h-671q-63 0 -98 37.5t-35 99.5v1017q-1 20 -6.5 41.5t-5.5 41.5q0 22 15 35.5t60 13.5h744q39 0 65.5 -16.5t40 -41.5t13.5 -54.5t-13 -54.5t-39 -41.5t-66 -16.5h-573v-308h445q27 0 51 -12.5t39.5 -32.5t21 -46
t-4.5 -54q-12 -35 -40 -54.5t-66 -19.5h-446v-298h567q26 0 49.5 -8t41 -23t27.5 -37t10 -50zM815 1528q34 0 57.5 -24.5t23.5 -59.5q0 -33 -23.5 -58t-57.5 -25h-544q-33 0 -56.5 25t-23.5 58q0 35 23.5 59.5t56.5 24.5h544z" />
    <glyph glyph-name="emacron" unicode="&#x113;" horiz-adv-x="1111" 
d="M555 -10q-102 0 -191.5 39t-157 105.5t-106.5 156.5t-39 192q0 108 40 198.5t109 156t160 102.5t193 37t190.5 -36t154.5 -100t104 -152t38 -191q0 -50 -26 -67t-89 -17h-632q4 -46 25.5 -87.5t55.5 -73t78 -50.5t94 -19q48 0 93 16.5t81 47.5q21 12 50 13t56 -9
t46 -32.5t19 -56.5q0 -39 -32 -71t-82 -54.5t-112 -35t-120 -12.5zM563 785q-49 0 -94 -17t-80 -47t-58.5 -70.5t-29.5 -88.5h511q-4 48 -25.5 88.5t-55 70.5t-77 47t-91.5 17zM822 1222q34 0 57.5 -24.5t23.5 -59.5q0 -33 -23.5 -58t-57.5 -25h-544q-33 0 -56.5 25
t-23.5 58q0 35 23.5 59.5t56.5 24.5h544z" />
    <glyph glyph-name="Ebreve" unicode="&#x114;" horiz-adv-x="1108" 
d="M1064 108q0 -26 -10 -48t-27 -37.5t-40 -24t-49 -8.5h-671q-63 0 -98 37.5t-35 99.5v1017q-1 20 -6.5 41.5t-5.5 41.5q0 22 15 35.5t60 13.5h744q39 0 65.5 -16.5t40 -41.5t13.5 -54.5t-13 -54.5t-39 -41.5t-66 -16.5h-573v-308h445q27 0 51 -12.5t39.5 -32.5t21 -46
t-4.5 -54q-12 -35 -40 -54.5t-66 -19.5h-446v-298h567q26 0 49.5 -8t41 -23t27.5 -37t10 -50zM543 1394q-43 0 -82 15.5t-68 42.5t-46.5 62.5t-17.5 75.5q0 33 23 57t57 24q23 0 35 -9.5t18 -24t9.5 -31.5t10.5 -31.5t20.5 -24t40.5 -9.5q26 0 40 9.5t21.5 24t11 31.5
t9.5 31.5t18 24t35 9.5q34 0 56.5 -23.5t22.5 -56.5q0 -41 -17.5 -77t-47 -62.5t-68 -42t-81.5 -15.5z" />
    <glyph glyph-name="ebreve" unicode="&#x115;" horiz-adv-x="1111" 
d="M555 -10q-102 0 -191.5 39t-157 105.5t-106.5 156.5t-39 192q0 108 40 198.5t109 156t160 102.5t193 37t190.5 -36t154.5 -100t104 -152t38 -191q0 -50 -26 -67t-89 -17h-632q4 -46 25.5 -87.5t55.5 -73t78 -50.5t94 -19q48 0 93 16.5t81 47.5q21 12 50 13t56 -9
t46 -32.5t19 -56.5q0 -39 -32 -71t-82 -54.5t-112 -35t-120 -12.5zM563 785q-49 0 -94 -17t-80 -47t-58.5 -70.5t-29.5 -88.5h511q-4 48 -25.5 88.5t-55 70.5t-77 47t-91.5 17zM574 1084q-43 0 -82 15.5t-68 42.5t-46.5 62.5t-17.5 75.5q0 33 23 57t57 24q23 0 35 -9.5
t18 -24t9.5 -31.5t10.5 -31.5t20.5 -24t40.5 -9.5q26 0 40 9.5t21.5 24t11 31.5t9.5 31.5t18 24t35 9.5q34 0 56.5 -23.5t22.5 -56.5q0 -41 -17.5 -77t-47 -62.5t-68 -42t-81.5 -15.5z" />
    <glyph glyph-name="Edotaccent" unicode="&#x116;" horiz-adv-x="1108" 
d="M1064 108q0 -26 -10 -48t-27 -37.5t-40 -24t-49 -8.5h-671q-63 0 -98 37.5t-35 99.5v1017q-1 20 -6.5 41.5t-5.5 41.5q0 22 15 35.5t60 13.5h744q39 0 65.5 -16.5t40 -41.5t13.5 -54.5t-13 -54.5t-39 -41.5t-66 -16.5h-573v-308h445q27 0 51 -12.5t39.5 -32.5t21 -46
t-4.5 -54q-12 -35 -40 -54.5t-66 -19.5h-446v-298h567q26 0 49.5 -8t41 -23t27.5 -37t10 -50zM426 1518q0 27 9.5 49.5t26.5 39.5t39.5 26.5t49.5 9.5q26 0 49 -9.5t40.5 -26.5t27.5 -39.5t10 -49.5t-10 -49.5t-27.5 -39t-40.5 -25.5t-49 -9q-27 0 -49.5 9t-39.5 25.5
t-26.5 39t-9.5 49.5z" />
    <glyph glyph-name="edotaccent" unicode="&#x117;" horiz-adv-x="1111" 
d="M555 -10q-102 0 -191.5 39t-157 105.5t-106.5 156.5t-39 192q0 108 40 198.5t109 156t160 102.5t193 37t190.5 -36t154.5 -100t104 -152t38 -191q0 -50 -26 -67t-89 -17h-632q4 -46 25.5 -87.5t55.5 -73t78 -50.5t94 -19q48 0 93 16.5t81 47.5q21 12 50 13t56 -9
t46 -32.5t19 -56.5q0 -39 -32 -71t-82 -54.5t-112 -35t-120 -12.5zM563 785q-49 0 -94 -17t-80 -47t-58.5 -70.5t-29.5 -88.5h511q-4 48 -25.5 88.5t-55 70.5t-77 47t-91.5 17zM444 1209q0 27 9.5 49.5t26.5 39.5t39.5 26.5t49.5 9.5q26 0 49 -9.5t40.5 -26.5t27.5 -39.5
t10 -49.5t-10 -49.5t-27.5 -39t-40.5 -25.5t-49 -9q-27 0 -49.5 9t-39.5 25.5t-26.5 39t-9.5 49.5z" />
    <glyph glyph-name="Eogonek" unicode="&#x118;" horiz-adv-x="1108" 
d="M1064 108q0 -26 -10 -48t-27 -37.5t-40 -24t-49 -8.5h-671q-63 0 -98 37.5t-35 99.5v1017q-1 20 -6.5 41.5t-5.5 41.5q0 22 15 35.5t60 13.5h744q39 0 65.5 -16.5t40 -41.5t13.5 -54.5t-13 -54.5t-39 -41.5t-66 -16.5h-573v-308h445q27 0 51 -12.5t39.5 -32.5t21 -46
t-4.5 -54q-12 -35 -40 -54.5t-66 -19.5h-446v-298h567q26 0 49.5 -8t41 -23t27.5 -37t10 -50zM869 113q14 14 31 16t33 -4t28 -19t17.5 -29t1.5 -33t-20 -32l-66 -59q-19 -18 -34.5 -31.5t-26.5 -25.5t-17 -24t-6 -26q0 -20 11.5 -35t36.5 -15q17 0 26 8t14.5 20t10 26
t12 26t20.5 20t36 8q24 0 45 -17t21 -44q0 -41 -15 -75.5t-41 -60t-60.5 -40t-74.5 -14.5q-41 0 -76.5 14.5t-61.5 40t-41 60t-15 75.5q0 34 13.5 64t40.5 60.5t66.5 65.5t90.5 80z" />
    <glyph glyph-name="eogonek" unicode="&#x119;" horiz-adv-x="1111" 
d="M555 -10q-102 0 -191.5 39t-157 105.5t-106.5 156.5t-39 192q0 108 40 198.5t109 156t160 102.5t193 37t190.5 -36t154.5 -100t104 -152t38 -191q0 -50 -26 -67t-89 -17h-632q4 -46 25.5 -87.5t55.5 -73t78 -50.5t94 -19q48 0 93 16.5t81 47.5q21 12 50 13t56 -9
t46 -32.5t19 -56.5q0 -39 -32 -71t-82 -54.5t-112 -35t-120 -12.5zM563 785q-49 0 -94 -17t-80 -47t-58.5 -70.5t-29.5 -88.5h511q-4 48 -25.5 88.5t-55 70.5t-77 47t-91.5 17zM783 202q14 14 31 16t33 -4t28 -19t17.5 -29t1.5 -33t-20 -32l-66 -59q-19 -18 -34.5 -31.5
t-26.5 -25.5t-17 -24t-6 -26q0 -20 11.5 -35t36.5 -15q17 0 26 8t14.5 20t10 26t12 26t20.5 20t36 8q24 0 45 -17t21 -44q0 -41 -15 -75.5t-41 -60t-60.5 -40t-74.5 -14.5q-41 0 -76.5 14.5t-61.5 40t-41 60t-15 75.5q0 34 13.5 64t40.5 60.5t66.5 65.5t90.5 80z" />
    <glyph glyph-name="Ecaron" unicode="&#x11a;" horiz-adv-x="1108" 
d="M1064 108q0 -26 -10 -48t-27 -37.5t-40 -24t-49 -8.5h-671q-63 0 -98 37.5t-35 99.5v1017q-1 20 -6.5 41.5t-5.5 41.5q0 22 15 35.5t60 13.5h744q39 0 65.5 -16.5t40 -41.5t13.5 -54.5t-13 -54.5t-39 -41.5t-66 -16.5h-573v-308h445q27 0 51 -12.5t39.5 -32.5t21 -46
t-4.5 -54q-12 -35 -40 -54.5t-66 -19.5h-446v-298h567q26 0 49.5 -8t41 -23t27.5 -37t10 -50zM361 1554q-13 13 -23.5 30t-15 34.5t-0.5 35t19 32.5q28 27 63 21t66 -36l101 -103l104 103q30 30 65.5 35.5t61.5 -20.5q25 -26 21.5 -60t-29.5 -60l-175 -171q-23 -18 -52 -16
t-52 25z" />
    <glyph glyph-name="ecaron" unicode="&#x11b;" horiz-adv-x="1111" 
d="M555 -10q-102 0 -191.5 39t-157 105.5t-106.5 156.5t-39 192q0 108 40 198.5t109 156t160 102.5t193 37t190.5 -36t154.5 -100t104 -152t38 -191q0 -50 -26 -67t-89 -17h-632q4 -46 25.5 -87.5t55.5 -73t78 -50.5t94 -19q48 0 93 16.5t81 47.5q21 12 50 13t56 -9
t46 -32.5t19 -56.5q0 -39 -32 -71t-82 -54.5t-112 -35t-120 -12.5zM563 785q-49 0 -94 -17t-80 -47t-58.5 -70.5t-29.5 -88.5h511q-4 48 -25.5 88.5t-55 70.5t-77 47t-91.5 17zM347 1237q-13 13 -23.5 30t-15 34.5t-0.5 35t19 32.5q28 27 63 21t66 -36l101 -103l104 103
q30 30 65.5 35.5t61.5 -20.5q25 -26 21.5 -60t-29.5 -60l-175 -171q-23 -18 -52 -16t-52 25z" />
    <glyph glyph-name="Gcircumflex" unicode="&#x11c;" horiz-adv-x="1323" 
d="M702 218q48 0 95 19.5t87 52.5t68.5 76t40.5 91q34 27 65 32.5t54.5 -3.5t38 -30t16.5 -47t-10 -53.5t-41 -50.5q-16 -44 -51.5 -99t-89 -103t-124 -80.5t-155.5 -32.5q-133 0 -249 50.5t-201.5 138t-135 204.5t-49.5 250q0 88 23 170t65 153.5t100.5 130t130 100.5
t153.5 65t171 23q78 0 143 -13.5t121.5 -40.5t107 -68t100.5 -95q16 -18 25 -38.5t9 -44.5q0 -35 -20 -62.5t-49 -40.5q-26 -11 -54 -10.5t-54 16.5q-41 32 -76 62t-72.5 52.5t-80.5 36t-100 13.5q-84 0 -158.5 -32.5t-129.5 -89t-87 -131t-32 -158.5q0 -89 31 -164.5
t86 -130.5t128.5 -86.5t159.5 -31.5zM1022 388h-208q-23 0 -41 9t-31.5 22.5t-21 29.5t-7.5 32q-1 17 6.5 34.5t21.5 31.5t34.5 23t46.5 9h328q42 -1 67.5 -25t25.5 -84v-384q0 -41 -26.5 -67.5t-70.5 -26.5q-45 0 -69 28.5t-24 74.5v293h-31zM643 1668q23 23 52 25t53 -16
l175 -171q25 -26 28.5 -60t-21.5 -60q-26 -26 -61.5 -20.5t-65.5 35.5l-103 103l-102 -103q-30 -30 -65.5 -36t-62.5 21q-15 15 -19 32.5t0.5 35t15 34t23.5 30.5z" />
    <glyph glyph-name="gcircumflex" unicode="&#x11d;" 
d="M597 -182q128 4 184 87t46 247q-13 -32 -42 -61t-69.5 -52t-89.5 -36.5t-101 -13.5q-102 0 -187 39t-146.5 106t-95.5 157t-34 192t34 191.5t95.5 156.5t146.5 106t187 39q60 0 115 -16t101.5 -41t83 -56.5t59.5 -61.5q7 85 32 129.5t66 44.5q20 0 33.5 -12t21 -30.5
t10.5 -41t3 -43.5v-763q0 -119 -37.5 -209t-99.5 -150t-142.5 -90t-166.5 -30q-53 0 -101 8t-85 25.5t-58.5 44t-21.5 62.5q0 22 9 40t23.5 30t34 17.5t40.5 4.5q37 -5 71 -13t81 -7zM301 483q0 -55 17.5 -103.5t50 -84.5t77.5 -57t99 -21t102.5 21t85 57t58 84.5
t21.5 103.5q0 53 -22 101t-58.5 84.5t-85 58t-101.5 21.5q-54 0 -99 -21t-77.5 -57t-50 -84.5t-17.5 -102.5zM508 1380q23 23 52 25t53 -16l175 -171q25 -26 28.5 -60t-21.5 -60q-26 -26 -61.5 -20.5t-65.5 35.5l-103 103l-102 -103q-30 -30 -65.5 -36t-62.5 21
q-15 15 -19 32.5t0.5 35t15 34t23.5 30.5z" />
    <glyph glyph-name="Gbreve" unicode="&#x11e;" horiz-adv-x="1323" 
d="M702 218q48 0 95 19.5t87 52.5t68.5 76t40.5 91q34 27 65 32.5t54.5 -3.5t38 -30t16.5 -47t-10 -53.5t-41 -50.5q-16 -44 -51.5 -99t-89 -103t-124 -80.5t-155.5 -32.5q-133 0 -249 50.5t-201.5 138t-135 204.5t-49.5 250q0 88 23 170t65 153.5t100.5 130t130 100.5
t153.5 65t171 23q78 0 143 -13.5t121.5 -40.5t107 -68t100.5 -95q16 -18 25 -38.5t9 -44.5q0 -35 -20 -62.5t-49 -40.5q-26 -11 -54 -10.5t-54 16.5q-41 32 -76 62t-72.5 52.5t-80.5 36t-100 13.5q-84 0 -158.5 -32.5t-129.5 -89t-87 -131t-32 -158.5q0 -89 31 -164.5
t86 -130.5t128.5 -86.5t159.5 -31.5zM1022 388h-208q-23 0 -41 9t-31.5 22.5t-21 29.5t-7.5 32q-1 17 6.5 34.5t21.5 31.5t34.5 23t46.5 9h328q42 -1 67.5 -25t25.5 -84v-384q0 -41 -26.5 -67.5t-70.5 -26.5q-45 0 -69 28.5t-24 74.5v293h-31zM695 1388q-43 0 -82 15.5
t-68 42.5t-46.5 62.5t-17.5 75.5q0 33 23 57t57 24q23 0 35 -9.5t18 -24t9.5 -31.5t10.5 -31.5t20.5 -24t40.5 -9.5q26 0 40 9.5t21.5 24t11 31.5t9.5 31.5t18 24t35 9.5q34 0 56.5 -23.5t22.5 -56.5q0 -41 -17.5 -77t-47 -62.5t-68 -42t-81.5 -15.5z" />
    <glyph glyph-name="gbreve" unicode="&#x11f;" 
d="M597 -182q128 4 184 87t46 247q-13 -32 -42 -61t-69.5 -52t-89.5 -36.5t-101 -13.5q-102 0 -187 39t-146.5 106t-95.5 157t-34 192t34 191.5t95.5 156.5t146.5 106t187 39q60 0 115 -16t101.5 -41t83 -56.5t59.5 -61.5q7 85 32 129.5t66 44.5q20 0 33.5 -12t21 -30.5
t10.5 -41t3 -43.5v-763q0 -119 -37.5 -209t-99.5 -150t-142.5 -90t-166.5 -30q-53 0 -101 8t-85 25.5t-58.5 44t-21.5 62.5q0 22 9 40t23.5 30t34 17.5t40.5 4.5q37 -5 71 -13t81 -7zM301 483q0 -55 17.5 -103.5t50 -84.5t77.5 -57t99 -21t102.5 21t85 57t58 84.5
t21.5 103.5q0 53 -22 101t-58.5 84.5t-85 58t-101.5 21.5q-54 0 -99 -21t-77.5 -57t-50 -84.5t-17.5 -102.5zM575 1088q-43 0 -82 15.5t-68 42.5t-46.5 62.5t-17.5 75.5q0 33 23 57t57 24q23 0 35 -9.5t18 -24t9.5 -31.5t10.5 -31.5t20.5 -24t40.5 -9.5q26 0 40 9.5t21.5 24
t11 31.5t9.5 31.5t18 24t35 9.5q34 0 56.5 -23.5t22.5 -56.5q0 -41 -17.5 -77t-47 -62.5t-68 -42t-81.5 -15.5z" />
    <glyph glyph-name="Gdotaccent" unicode="&#x120;" horiz-adv-x="1323" 
d="M702 218q48 0 95 19.5t87 52.5t68.5 76t40.5 91q34 27 65 32.5t54.5 -3.5t38 -30t16.5 -47t-10 -53.5t-41 -50.5q-16 -44 -51.5 -99t-89 -103t-124 -80.5t-155.5 -32.5q-133 0 -249 50.5t-201.5 138t-135 204.5t-49.5 250q0 88 23 170t65 153.5t100.5 130t130 100.5
t153.5 65t171 23q78 0 143 -13.5t121.5 -40.5t107 -68t100.5 -95q16 -18 25 -38.5t9 -44.5q0 -35 -20 -62.5t-49 -40.5q-26 -11 -54 -10.5t-54 16.5q-41 32 -76 62t-72.5 52.5t-80.5 36t-100 13.5q-84 0 -158.5 -32.5t-129.5 -89t-87 -131t-32 -158.5q0 -89 31 -164.5
t86 -130.5t128.5 -86.5t159.5 -31.5zM1022 388h-208q-23 0 -41 9t-31.5 22.5t-21 29.5t-7.5 32q-1 17 6.5 34.5t21.5 31.5t34.5 23t46.5 9h328q42 -1 67.5 -25t25.5 -84v-384q0 -41 -26.5 -67.5t-70.5 -26.5q-45 0 -69 28.5t-24 74.5v293h-31zM546 1523q0 27 9.5 49.5
t26.5 39.5t39.5 26.5t49.5 9.5q26 0 49 -9.5t40.5 -26.5t27.5 -39.5t10 -49.5t-10 -49.5t-27.5 -39t-40.5 -25.5t-49 -9q-27 0 -49.5 9t-39.5 25.5t-26.5 39t-9.5 49.5z" />
    <glyph glyph-name="gdotaccent" unicode="&#x121;" 
d="M597 -182q128 4 184 87t46 247q-13 -32 -42 -61t-69.5 -52t-89.5 -36.5t-101 -13.5q-102 0 -187 39t-146.5 106t-95.5 157t-34 192t34 191.5t95.5 156.5t146.5 106t187 39q60 0 115 -16t101.5 -41t83 -56.5t59.5 -61.5q7 85 32 129.5t66 44.5q20 0 33.5 -12t21 -30.5
t10.5 -41t3 -43.5v-763q0 -119 -37.5 -209t-99.5 -150t-142.5 -90t-166.5 -30q-53 0 -101 8t-85 25.5t-58.5 44t-21.5 62.5q0 22 9 40t23.5 30t34 17.5t40.5 4.5q37 -5 71 -13t81 -7zM301 483q0 -55 17.5 -103.5t50 -84.5t77.5 -57t99 -21t102.5 21t85 57t58 84.5
t21.5 103.5q0 53 -22 101t-58.5 84.5t-85 58t-101.5 21.5q-54 0 -99 -21t-77.5 -57t-50 -84.5t-17.5 -102.5zM452 1212q0 27 9.5 49.5t26.5 39.5t39.5 26.5t49.5 9.5q26 0 49 -9.5t40.5 -26.5t27.5 -39.5t10 -49.5t-10 -49.5t-27.5 -39t-40.5 -25.5t-49 -9q-27 0 -49.5 9
t-39.5 25.5t-26.5 39t-9.5 49.5z" />
    <glyph glyph-name="Gcommaaccent" unicode="&#x122;" horiz-adv-x="1323" 
d="M702 218q48 0 95 19.5t87 52.5t68.5 76t40.5 91q34 27 65 32.5t54.5 -3.5t38 -30t16.5 -47t-10 -53.5t-41 -50.5q-16 -44 -51.5 -99t-89 -103t-124 -80.5t-155.5 -32.5q-133 0 -249 50.5t-201.5 138t-135 204.5t-49.5 250q0 88 23 170t65 153.5t100.5 130t130 100.5
t153.5 65t171 23q78 0 143 -13.5t121.5 -40.5t107 -68t100.5 -95q16 -18 25 -38.5t9 -44.5q0 -35 -20 -62.5t-49 -40.5q-26 -11 -54 -10.5t-54 16.5q-41 32 -76 62t-72.5 52.5t-80.5 36t-100 13.5q-84 0 -158.5 -32.5t-129.5 -89t-87 -131t-32 -158.5q0 -89 31 -164.5
t86 -130.5t128.5 -86.5t159.5 -31.5zM1022 388h-208q-23 0 -41 9t-31.5 22.5t-21 29.5t-7.5 32q-1 17 6.5 34.5t21.5 31.5t34.5 23t46.5 9h328q42 -1 67.5 -25t25.5 -84v-384q0 -41 -26.5 -67.5t-70.5 -26.5q-45 0 -69 28.5t-24 74.5v293h-31zM681 -139q24 0 46.5 -9
t39.5 -25.5t27 -39.5t9 -52q-7 -51 -28.5 -94t-49 -73.5t-58.5 -48t-57 -18.5q-26 0 -43 22.5t-22 62.5q-5 26 -3 66t7 76q2 27 13 51.5t28 42.5t40.5 28.5t50.5 10.5z" />
    <glyph glyph-name="gcommaaccent" unicode="&#x123;" 
d="M544.013 1102.01q-23.999 0 -46.4971 8.99902q-22.499 9 -39.498 25.499q-16.999 16.498 -26.998 39.4971t-8.99902 51.9971q6.99902 50.9971 28.498 93.9941t48.9971 73.4951t58.4961 47.9971t56.9971 18.499q25.998 0 42.9971 -22.498q16.999 -22.499 21.998 -62.4971
q5 -25.998 3 -65.9951q-2 -39.998 -6.99902 -75.9961q-2 -26.998 -12.999 -51.4961q-11 -24.499 -27.999 -42.498t-40.4971 -28.498q-23.499 -10.499 -50.4971 -10.499zM597 -182q128 4 184 87t46 247q-13 -32 -42 -61t-69.5 -52t-89.5 -36.5t-101 -13.5q-102 0 -187 39
t-146.5 106t-95.5 157t-34 192t34 191.5t95.5 156.5t146.5 106t187 39q60 0 115 -16t101.5 -41t83 -56.5t59.5 -61.5q7 85 32 129.5t66 44.5q20 0 33.5 -12t21 -30.5t10.5 -41t3 -43.5v-763q0 -119 -37.5 -209t-99.5 -150t-142.5 -90t-166.5 -30q-53 0 -101 8t-85 25.5
t-58.5 44t-21.5 62.5q0 22 9 40t23.5 30t34 17.5t40.5 4.5q37 -5 71 -13t81 -7zM301 483q0 -55 17.5 -103.5t50 -84.5t77.5 -57t99 -21t102.5 21t85 57t58 84.5t21.5 103.5q0 53 -22 101t-58.5 84.5t-85 58t-101.5 21.5q-54 0 -99 -21t-77.5 -57t-50 -84.5t-17.5 -102.5z
" />
    <glyph glyph-name="Hcircumflex" unicode="&#x124;" horiz-adv-x="1314" 
d="M1198 114q0 -26 -9 -48.5t-24.5 -39.5t-37.5 -26.5t-47 -9.5q-26 0 -47.5 10t-37 27t-24 39.5t-8.5 47.5v387h-595v-387q0 -25 -8.5 -47.5t-23.5 -39.5t-37 -27t-49 -10t-48.5 10t-37 27.5t-23.5 40t-8 46.5v1037q-1 20 -6 39.5t-5 37.5q0 11 3 20t11.5 15t24 9.5
t40.5 3.5q37 0 67.5 -6t52.5 -19.5t34.5 -36.5t12.5 -56v-421h595v414q-1 20 -6 39.5t-5 37.5q0 11 3.5 20t12.5 15t25 9.5t41 3.5q32 0 61.5 -5t52.5 -18.5t36.5 -36t13.5 -58.5v-1044zM569 1681q23 23 52 25t53 -16l175 -171q25 -26 28.5 -60t-21.5 -60
q-26 -26 -61.5 -20.5t-65.5 35.5l-103 103l-102 -103q-30 -30 -65.5 -36t-62.5 21q-15 15 -19 32.5t0.5 35t15 34t23.5 30.5z" />
    <glyph glyph-name="hcircumflex" unicode="&#x125;" horiz-adv-x="1212" 
d="M168 1656q23 23 52 25t53 -16l175 -171q25 -26 28.5 -60t-21.5 -60q-26 -26 -61.5 -20.5t-65.5 35.5l-103 103l-102 -103q-30 -30 -65.5 -36t-62.5 21q-15 15 -19 32.5t0.5 35t15 34t23.5 30.5zM865 234v252q0 54 -18.5 102.5t-51.5 84.5t-78 57t-99 21q-55 0 -104 -24.5
t-86 -65t-58.5 -91.5t-21.5 -104l-9 317q10 30 38.5 64.5t70.5 63.5t94 48.5t111 19.5q100 0 183 -39t141.5 -105.5t91 -156t32.5 -191.5v-288zM112 1165q0 24 9 45.5t25 37.5t37.5 25t46.5 9q24 0 45.5 -9t37.5 -25t25.5 -37.5t9.5 -45.5v-1057q0 -25 -9.5 -46.5
t-25.5 -37.5t-37.5 -25t-45.5 -9q-25 0 -46.5 9t-37.5 25t-25 37.5t-9 46.5v1057zM1101 260v-150q0 -23 -9 -45t-24.5 -38.5t-37.5 -26.5t-47 -10q-30 0 -52 11.5t-36.5 30t-22 42.5t-7.5 50v144z" />
    <glyph glyph-name="Hbar" unicode="&#x126;" horiz-adv-x="1314" 
d="M1217 1043q33 0 56.5 -24t23.5 -59q0 -33 -23.5 -58t-56.5 -25h-1105q-35 0 -58 25t-23 58q0 35 23 59t58 24h1105zM1198 114q0 -26 -9 -48.5t-24.5 -39.5t-37.5 -26.5t-47 -9.5q-26 0 -47.5 10t-37 27t-24 39.5t-8.5 47.5v387h-595v-387q0 -25 -8.5 -47.5t-23.5 -39.5
t-37 -27t-49 -10t-48.5 10t-37 27.5t-23.5 40t-8 46.5v1037q-1 20 -6 39.5t-5 37.5q0 11 3 20t11.5 15t24 9.5t40.5 3.5q37 0 67.5 -6t52.5 -19.5t34.5 -36.5t12.5 -56v-421h595v414q-1 20 -6 39.5t-5 37.5q0 11 3.5 20t12.5 15t25 9.5t41 3.5q32 0 61.5 -5t52.5 -18.5
t36.5 -36t13.5 -58.5v-1044z" />
    <glyph glyph-name="hbar" unicode="&#x127;" horiz-adv-x="1211" 
d="M487.797 1218.58q32.3262 0 54.668 -24.8066q22.3428 -24.8057 22.3428 -60.2441q0 -33.4131 -22.3428 -58.7256q-22.3418 -25.3125 -54.668 -25.3125h-517.205q-31.374 0 -53.7168 25.3125t-22.3428 58.7256q0 35.4385 22.3428 60.2441q22.3428 24.8066 53.7168 24.8066
h517.205zM865 234v252q0 54 -18.5 102.5t-51.5 84.5t-78 57t-99 21q-55 0 -104 -24.5t-86 -65t-58.5 -91.5t-21.5 -104l-9 317q10 30 38.5 64.5t70.5 63.5t94 48.5t111 19.5q100 0 183 -39t141.5 -105.5t91 -156t32.5 -191.5v-288zM112 1165q0 24 9 45.5t25 37.5t37.5 25
t46.5 9q24 0 45.5 -9t37.5 -25t25.5 -37.5t9.5 -45.5v-1057q0 -25 -9.5 -46.5t-25.5 -37.5t-37.5 -25t-45.5 -9q-25 0 -46.5 9t-37.5 25t-25 37.5t-9 46.5v1057zM1101 260v-150q0 -23 -9 -45t-24.5 -38.5t-37.5 -26.5t-47 -10q-30 0 -52 11.5t-36.5 30t-22 42.5t-7.5 50v144
z" />
    <glyph glyph-name="Itilde" unicode="&#x128;" horiz-adv-x="491" 
d="M368 112q0 -24 -8.5 -46t-23.5 -39t-37 -27t-49 -10t-49 10.5t-37 28t-23 39t-8 44.5v1038q-1 20 -6 39.5t-5 37.5q0 11 3.5 20t12.5 15t25 9.5t41 3.5q34 0 63 -5t51 -18.5t35 -36.5t15 -59v-1044zM435 1648q12 7 28.5 5t29.5 -12.5t19.5 -29.5t-2.5 -46q-8 -27 -24 -51
t-39 -42t-52 -28.5t-63 -10.5q-42 0 -67.5 16.5t-45 37t-39.5 37t-51 16.5q-24 0 -36.5 -11t-21.5 -24.5t-18.5 -26t-26.5 -15.5q-10 -1 -23 0q-18 3 -28.5 13t-14.5 22.5t-3.5 27.5t5.5 29q18 57 61 93q11 9 23 15.5t26 11.5q12 4 26 6.5t29 2.5q47 0 74.5 -16.5t47.5 -37
t38.5 -37t48.5 -16.5q15 0 24 8t18 19t21.5 23t35.5 21z" />
    <glyph glyph-name="itilde" unicode="&#x129;" horiz-adv-x="459" 
d="M440 1330q12 7 28.5 5t29.5 -12.5t19.5 -29.5t-2.5 -46q-8 -27 -24 -51t-39 -42t-52 -28.5t-63 -10.5q-42 0 -67.5 16.5t-45 37t-39.5 37t-51 16.5q-24 0 -36.5 -11t-21.5 -24.5t-18.5 -26t-26.5 -15.5q-10 -1 -23 0q-18 3 -28.5 13t-14.5 22.5t-3.5 27.5t5.5 29
q18 57 61 93q11 9 23 15.5t26 11.5q12 4 26 6.5t29 2.5q47 0 74.5 -16.5t47.5 -37t38.5 -37t48.5 -16.5q15 0 24 8t18 19t21.5 23t35.5 21zM111 861q0 24 9 45.5t25 37.5t37.5 25t46.5 9q24 0 45.5 -9t37.5 -25t25.5 -37.5t9.5 -45.5v-753q0 -25 -9.5 -46.5t-25.5 -37.5
t-37.5 -25t-45.5 -9q-25 0 -46.5 9t-37.5 25t-25 37.5t-9 46.5v753z" />
    <glyph glyph-name="Imacron" unicode="&#x12a;" horiz-adv-x="491" 
d="M368 112q0 -24 -8.5 -46t-23.5 -39t-37 -27t-49 -10t-49 10.5t-37 28t-23 39t-8 44.5v1038q-1 20 -6 39.5t-5 37.5q0 11 3.5 20t12.5 15t25 9.5t41 3.5q34 0 63 -5t51 -18.5t35 -36.5t15 -59v-1044zM507 1572q34 0 57.5 -24.5t23.5 -59.5q0 -33 -23.5 -58t-57.5 -25h-544
q-33 0 -56.5 25t-23.5 58q0 35 23.5 59.5t56.5 24.5h544z" />
    <glyph glyph-name="imacron" unicode="&#x12b;" horiz-adv-x="459" 
d="M504 1229q34 0 57.5 -24.5t23.5 -59.5q0 -33 -23.5 -58t-57.5 -25h-544q-33 0 -56.5 25t-23.5 58q0 35 23.5 59.5t56.5 24.5h544zM111 861q0 24 9 45.5t25 37.5t37.5 25t46.5 9q24 0 45.5 -9t37.5 -25t25.5 -37.5t9.5 -45.5v-753q0 -25 -9.5 -46.5t-25.5 -37.5t-37.5 -25
t-45.5 -9q-25 0 -46.5 9t-37.5 25t-25 37.5t-9 46.5v753z" />
    <glyph glyph-name="Ibreve" unicode="&#x12c;" horiz-adv-x="491" 
d="M368 112q0 -24 -8.5 -46t-23.5 -39t-37 -27t-49 -10t-49 10.5t-37 28t-23 39t-8 44.5v1038q-1 20 -6 39.5t-5 37.5q0 11 3.5 20t12.5 15t25 9.5t41 3.5q34 0 63 -5t51 -18.5t35 -36.5t15 -59v-1044zM246 1416q-43 0 -82 15.5t-68 42.5t-46.5 62.5t-17.5 75.5q0 33 23 57
t57 24q23 0 35 -9.5t18 -24t9.5 -31.5t10.5 -31.5t20.5 -24t40.5 -9.5q26 0 40 9.5t21.5 24t11 31.5t9.5 31.5t18 24t35 9.5q34 0 56.5 -23.5t22.5 -56.5q0 -41 -17.5 -77t-47 -62.5t-68 -42t-81.5 -15.5z" />
    <glyph glyph-name="ibreve" unicode="&#x12d;" horiz-adv-x="459" 
d="M226 1116q-43 0 -82 15.5t-68 42.5t-46.5 62.5t-17.5 75.5q0 33 23 57t57 24q23 0 35 -9.5t18 -24t9.5 -31.5t10.5 -31.5t20.5 -24t40.5 -9.5q26 0 40 9.5t21.5 24t11 31.5t9.5 31.5t18 24t35 9.5q34 0 56.5 -23.5t22.5 -56.5q0 -41 -17.5 -77t-47 -62.5t-68 -42
t-81.5 -15.5zM111 861q0 24 9 45.5t25 37.5t37.5 25t46.5 9q24 0 45.5 -9t37.5 -25t25.5 -37.5t9.5 -45.5v-753q0 -25 -9.5 -46.5t-25.5 -37.5t-37.5 -25t-45.5 -9q-25 0 -46.5 9t-37.5 25t-25 37.5t-9 46.5v753z" />
    <glyph glyph-name="Iogonek" unicode="&#x12e;" horiz-adv-x="491" 
d="M368 112q0 -24 -8.5 -46t-23.5 -39t-37 -27t-49 -10t-49 10.5t-37 28t-23 39t-8 44.5v1038q-1 20 -6 39.5t-5 37.5q0 11 3.5 20t12.5 15t25 9.5t41 3.5q34 0 63 -5t51 -18.5t35 -36.5t15 -59v-1044zM235 118q14 14 31 16t33 -4t28 -19t17.5 -29t1.5 -33t-20 -32l-66 -59
q-19 -18 -34.5 -31.5t-26.5 -25.5t-17 -24t-6 -26q0 -20 11.5 -35t36.5 -15q17 0 26 8t14.5 20t10 26t12 26t20.5 20t36 8q24 0 45 -17t21 -44q0 -41 -15 -75.5t-41 -60t-60.5 -40t-74.5 -14.5q-41 0 -76.5 14.5t-61.5 40t-41 60t-15 75.5q0 34 13.5 64t40.5 60.5t66.5 65.5
t90.5 80z" />
    <glyph glyph-name="iogonek" unicode="&#x12f;" horiz-adv-x="459" 
d="M112 861q0 24 9 45.5t24.5 37.5t37 25t46.5 9q24 0 45.5 -9t37.5 -25t25.5 -37.5t9.5 -45.5v-753q0 -25 -9.5 -46.5t-25.5 -37.5t-37.5 -25t-45.5 -9q-25 0 -46.5 9t-37 25t-24.5 37.5t-9 46.5v753zM100 1230q0 27 10 50.5t27.5 40.5t41.5 27t51 10t50.5 -10t41.5 -27
t28 -40.5t10 -50.5t-10 -50.5t-28 -40.5t-41.5 -26.5t-50.5 -9.5t-51 9.5t-41.5 26.5t-27.5 40.5t-10 50.5zM222 125q14 14 31 16t33 -4t28 -19t17.5 -29t1.5 -33t-20 -32l-66 -59q-19 -18 -34.5 -31.5t-26.5 -25.5t-17 -24t-6 -26q0 -20 11.5 -35t36.5 -15q17 0 26 8
t14.5 20t10 26t12 26t20.5 20t36 8q24 0 45 -17t21 -44q0 -41 -15 -75.5t-41 -60t-60.5 -40t-74.5 -14.5q-41 0 -76.5 14.5t-61.5 40t-41 60t-15 75.5q0 34 13.5 64t40.5 60.5t66.5 65.5t90.5 80z" />
    <glyph glyph-name="Idotaccent" unicode="&#x130;" horiz-adv-x="491" 
d="M368 112q0 -24 -8.5 -46t-23.5 -39t-37 -27t-49 -10t-49 10.5t-37 28t-23 39t-8 44.5v1038q-1 20 -6 39.5t-5 37.5q0 11 3.5 20t12.5 15t25 9.5t41 3.5q34 0 63 -5t51 -18.5t35 -36.5t15 -59v-1044zM111 1535q0 27 9.5 49.5t26.5 39.5t39.5 26.5t49.5 9.5q26 0 49 -9.5
t40.5 -26.5t27.5 -39.5t10 -49.5t-10 -49.5t-27.5 -39t-40.5 -25.5t-49 -9q-27 0 -49.5 9t-39.5 25.5t-26.5 39t-9.5 49.5z" />
    <glyph glyph-name="dotlessi" unicode="&#x131;" horiz-adv-x="459" 
d="M111 861q0 24 9 45.5t25 37.5t37.5 25t46.5 9q24 0 45.5 -9t37.5 -25t25.5 -37.5t9.5 -45.5v-753q0 -25 -9.5 -46.5t-25.5 -37.5t-37.5 -25t-45.5 -9q-25 0 -46.5 9t-37.5 25t-25 37.5t-9 46.5v753z" />
    <glyph glyph-name="IJ" unicode="&#x132;" horiz-adv-x="990" 
d="M368 112q0 -24 -8.5 -46t-23.5 -39t-37 -27t-49 -10t-49 10.5t-37 28t-23 39t-8 44.5v1038q-1 20 -6 39.5t-5 37.5q0 11 3.5 20t12.5 15t25 9.5t41 3.5q34 0 63 -5t51 -18.5t35 -36.5t15 -59v-1044zM391 -205q0 24 9 45.5t25.5 37.5t38 25t47.5 9q34 1 59 15.5t42 40
t25.5 60t8.5 75.5l-1 1041q0 16 -1.5 27t-4 20t-4 17t-1.5 19q0 21 15.5 34.5t64.5 13.5q36 0 66.5 -6.5t53 -22t35.5 -42.5t13 -69v-973q0 -106 -22.5 -195t-68 -153.5t-116 -100.5t-166.5 -36q-25 0 -46.5 9t-37.5 25t-25 37.5t-9 46.5z" />
    <glyph glyph-name="ij" unicode="&#x133;" horiz-adv-x="916" 
d="M112 861q0 24 9 45.5t24.5 37.5t37 25t46.5 9q24 0 45.5 -9t37.5 -25t25.5 -37.5t9.5 -45.5v-753q0 -25 -9.5 -46.5t-25.5 -37.5t-37.5 -25t-45.5 -9q-25 0 -46.5 9t-37 25t-24.5 37.5t-9 46.5v753zM100 1230q0 27 10 50.5t27.5 40.5t41.5 27t51 10t50.5 -10t41.5 -27
t28 -40.5t10 -50.5t-10 -50.5t-28 -40.5t-41.5 -26.5t-50.5 -9.5t-51 9.5t-41.5 26.5t-27.5 40.5t-10 50.5zM299 -247q0 35 19 63.5t51 40.5q37 8 70.5 20t58.5 34.5t40 58t16 89.5v792q0 25 8.5 48t24 40t37.5 27.5t48 10.5t48 -10.5t37.5 -28t24 -40t8.5 -47.5v-742
q0 -104 -23 -191t-69.5 -150t-116.5 -98t-164 -35q-24 0 -45.5 9t-37.5 25t-25.5 37.5t-9.5 46.5zM546 1233q0 26 9.5 49t26.5 39.5t40 26t50 9.5q26 0 49 -9.5t40.5 -26t27.5 -39.5t10 -49q0 -27 -10 -49.5t-27.5 -39t-40.5 -26t-49 -9.5q-27 0 -50 9.5t-40 26t-26.5 39
t-9.5 49.5z" />
    <glyph glyph-name="Jcircumflex" unicode="&#x134;" horiz-adv-x="481" 
d="M-121 -205q0 24 9 45.5t25.5 37.5t38 25t47.5 9q34 1 59 15.5t42 40t25.5 60t8.5 75.5l-1 1041q0 16 -1.5 27t-4 20t-4 17t-1.5 19q0 21 15.5 34.5t64.5 13.5q36 0 66.5 -6.5t53 -22t35.5 -42.5t13 -69v-973q0 -106 -22.5 -195t-68 -153.5t-116 -100.5t-166.5 -36
q-25 0 -46.5 9t-37.5 25t-25 37.5t-9 46.5zM182 1663q23 23 52 25t53 -16l175 -171q25 -26 28.5 -60t-21.5 -60q-26 -26 -61.5 -20.5t-65.5 35.5l-103 103l-102 -103q-30 -30 -65.5 -36t-62.5 21q-15 15 -19 32.5t0.5 35t15 34t23.5 30.5z" />
    <glyph glyph-name="jcircumflex" unicode="&#x135;" horiz-adv-x="460" 
d="M-143 -247q0 35 19 63.5t51 40.5q37 8 70.5 20t58.5 34.5t40 58t16 89.5v792q0 25 8.5 48t24 40t37.5 27.5t48 10.5t48 -10.5t37.5 -28t24 -40t8.5 -47.5v-742q0 -104 -23 -191t-69.5 -150t-116.5 -98t-164 -35q-24 0 -45.5 9t-37.5 25t-25.5 37.5t-9.5 46.5zM181 1409
q23 23 52 25t53 -16l175 -171q25 -26 28.5 -60t-21.5 -60q-26 -26 -61.5 -20.5t-65.5 35.5l-103 103l-102 -103q-30 -30 -65.5 -36t-62.5 21q-15 15 -19 32.5t0.5 35t15 34t23.5 30.5z" />
    <glyph glyph-name="Kcommaaccent" unicode="&#x136;" horiz-adv-x="1208" 
d="M204 1282q33 0 63 -6t52 -21.5t35.5 -42.5t13.5 -70v-403l578 498q29 26 60 33.5t60 -1.5q12 -3 24 -8.5t23 -14t19.5 -19.5t11.5 -24q14 -39 4 -78t-45 -67l-353 -285l382 -591q24 -38 25.5 -65.5t-11.5 -59.5q-12 -29 -40 -49t-67 -20q-32 0 -59.5 16.5t-53.5 58.5
l-354 572l-205 -171l1 -333q0 -30 -8 -56t-23 -44.5t-37 -29.5t-50 -11q-57 0 -87 39.5t-30 100.5v1027q-1 20 -6 39.5t-5 37.5q0 11 3.5 20t12.5 15t25 9.5t41 3.5zM627 -140q24 0 46.5 -9t39.5 -25.5t27 -39.5t9 -52q-7 -51 -28.5 -94t-49 -73.5t-58.5 -48t-57 -18.5
q-26 0 -43 22.5t-22 62.5q-5 26 -3 66t7 76q2 27 13 51.5t28 42.5t40.5 28.5t50.5 10.5z" />
    <glyph glyph-name="kcommaaccent" unicode="&#x137;" horiz-adv-x="1107" 
d="M348 554l448 347q27 20 57 39.5t61 34.5q15 5 31.5 6.5t33.5 -3.5q24 -7 44.5 -26t28.5 -45q7 -22 6 -46q-1 -15 -8.5 -30.5t-19 -30t-25 -27.5t-26.5 -23l-201 -155l259 -415q22 -26 26 -57t-7 -58.5t-35.5 -47t-58.5 -22.5q-16 -4 -31.5 -1t-29 10.5t-25 18t-20.5 21.5
l-260 417q-39 -31 -73 -57t-64 -49t-57 -44.5t-54 -42.5v286zM112 1165q0 24 9 45.5t25 37.5t37.5 25t46.5 9q24 0 45.5 -9t37.5 -25t25.5 -37.5t9.5 -45.5v-1057q0 -25 -9.5 -46.5t-25.5 -37.5t-37.5 -25t-45.5 -9q-25 0 -46.5 9t-37.5 25t-25 37.5t-9 46.5v1057zM609 -61
q24 0 46.5 -9t39.5 -25.5t27 -39.5t9 -52q-7 -51 -28.5 -94t-49 -73.5t-58.5 -48t-57 -18.5q-26 0 -43 22.5t-22 62.5q-5 26 -3 66t7 76q2 27 13 51.5t28 42.5t40.5 28.5t50.5 10.5z" />
    <glyph glyph-name="kgreenlandic" unicode="&#x138;" horiz-adv-x="1107" 
d="M348 554l448 347q27 20 56.5 40t61.5 34q16 5 32 6.5t33 -3.5q24 -7 44.5 -26t28.5 -45q7 -22 6 -46q-1 -15 -8.5 -30.5t-19 -30t-25 -27.5t-26.5 -23l-201 -155l261 -417q13 -18 20 -36.5t7 -38.5q0 -22 -9.5 -42.5t-25 -36t-36.5 -25t-45 -9.5q-17 0 -32.5 8t-30.5 21
t-28 29t-25 32l-238 381q-39 -31 -73 -57t-64 -49t-57 -44.5t-54 -42.5v286zM112 858q0 24 9 45.5t25 37.5t37.5 25t46.5 9q24 0 45.5 -9t37.5 -25t25.5 -37.5t9.5 -45.5v-750q0 -25 -9.5 -46.5t-25.5 -37.5t-37.5 -25t-45.5 -9q-25 0 -46.5 9t-37.5 25t-25 37.5t-9 46.5
v750z" />
    <glyph glyph-name="Lacute" unicode="&#x139;" horiz-adv-x="1090" 
d="M1036 119q0 -27 -9 -48.5t-24 -37.5t-35 -24.5t-43 -8.5h-660q-29 1 -53 12t-41.5 29t-27.5 43t-10 54v1022q-1 20 -6 39.5t-5 37.5q0 11 3.5 20t12.5 15t25 9.5t41 3.5q36 0 66 -6.5t51.5 -22t34 -43t12.5 -69.5v-908h550q22 0 43.5 -8.5t38 -24t26.5 -37t10 -47.5z
M327 1643q23 0 42 -9.5t32 -25.5t18.5 -36.5t1.5 -42.5q-4 -19 -27.5 -43.5t-53.5 -46.5t-61 -37t-49 -15q-24 -3 -48 8q-32 14 -39 47q-2 8 -2 16.5t2 17.5q0 15 19.5 43t47 55.5t59.5 48t58 20.5z" />
    <glyph glyph-name="lacute" unicode="&#x13a;" horiz-adv-x="460" 
d="M112 1165q0 24 9 45.5t25 37.5t37.5 25t46.5 9q24 0 45.5 -9t37.5 -25t25.5 -37.5t9.5 -45.5v-1057q0 -25 -9.5 -46.5t-25.5 -37.5t-37.5 -25t-45.5 -9q-25 0 -46.5 9t-37.5 25t-25 37.5t-9 46.5v1057zM384 1625q23 0 42 -9.5t32 -25.5t18.5 -36.5t1.5 -42.5
q-4 -19 -27.5 -43.5t-53.5 -46.5t-61 -37t-49 -15q-24 -3 -48 8q-32 14 -39 47q-2 8 -2 16.5t2 17.5q0 15 19.5 43t47 55.5t59.5 48t58 20.5z" />
    <glyph glyph-name="Lcommaaccent" unicode="&#x13b;" horiz-adv-x="1090" 
d="M1036 119q0 -27 -9 -48.5t-24 -37.5t-35 -24.5t-43 -8.5h-660q-29 1 -53 12t-41.5 29t-27.5 43t-10 54v1022q-1 20 -6 39.5t-5 37.5q0 11 3.5 20t12.5 15t25 9.5t41 3.5q36 0 66 -6.5t51.5 -22t34 -43t12.5 -69.5v-908h550q22 0 43.5 -8.5t38 -24t26.5 -37t10 -47.5z
M571 -142q24 0 46.5 -9t39.5 -25.5t27 -39.5t9 -52q-7 -51 -28.5 -94t-49 -73.5t-58.5 -48t-57 -18.5q-26 0 -43 22.5t-22 62.5q-5 26 -3 66t7 76q2 27 13 51.5t28 42.5t40.5 28.5t50.5 10.5z" />
    <glyph glyph-name="lcommaaccent" unicode="&#x13c;" horiz-adv-x="460" 
d="M112 1165q0 24 9 45.5t25 37.5t37.5 25t46.5 9q24 0 45.5 -9t37.5 -25t25.5 -37.5t9.5 -45.5v-1057q0 -25 -9.5 -46.5t-25.5 -37.5t-37.5 -25t-45.5 -9q-25 0 -46.5 9t-37.5 25t-25 37.5t-9 46.5v1057zM230 -126q24 0 46.5 -9t39.5 -25.5t27 -39.5t9 -52
q-7 -51 -28.5 -94t-49 -73.5t-58.5 -48t-57 -18.5q-26 0 -43 22.5t-22 62.5q-5 26 -3 66t7 76q2 27 13 51.5t28 42.5t40.5 28.5t50.5 10.5z" />
    <glyph glyph-name="Lcaron" unicode="&#x13d;" horiz-adv-x="1090" 
d="M1036 119q0 -27 -9 -48.5t-24 -37.5t-35 -24.5t-43 -8.5h-660q-29 1 -53 12t-41.5 29t-27.5 43t-10 54v1022q-1 20 -6 39.5t-5 37.5q0 11 3.5 20t12.5 15t25 9.5t41 3.5q36 0 66 -6.5t51.5 -22t34 -43t12.5 -69.5v-908h550q22 0 43.5 -8.5t38 -24t26.5 -37t10 -47.5z
M29 1540q-13 13 -23.5 30t-15 34.5t-0.5 35t19 32.5q28 27 63 21t66 -36l101 -103l104 103q30 30 65.5 35.5t61.5 -20.5q25 -26 21.5 -60t-29.5 -60l-175 -171q-23 -18 -52 -16t-52 25z" />
    <glyph glyph-name="lcaron" unicode="&#x13e;" horiz-adv-x="460" 
d="M554 1461q46 0 79.5 -26.5t42.5 -65.5q10 -39 -7 -82t-49.5 -80t-73.5 -61t-80 -24q-42 0 -60.5 17.5t-18.5 54.5q0 34 10.5 80.5t32 87.5t52.5 70t72 29zM112 1165q0 24 9 45.5t25 37.5t37.5 25t46.5 9q24 0 45.5 -9t37.5 -25t25.5 -37.5t9.5 -45.5v-1057
q0 -25 -9.5 -46.5t-25.5 -37.5t-37.5 -25t-45.5 -9q-25 0 -46.5 9t-37.5 25t-25 37.5t-9 46.5v1057z" />
    <glyph glyph-name="Ldot" unicode="&#x13f;" horiz-adv-x="1090" 
d="M1036 119q0 -27 -9 -48.5t-24 -37.5t-35 -24.5t-43 -8.5h-660q-29 1 -53 12t-41.5 29t-27.5 43t-10 54v1022q-1 20 -6 39.5t-5 37.5q0 11 3.5 20t12.5 15t25 9.5t41 3.5q36 0 66 -6.5t51.5 -22t34 -43t12.5 -69.5v-908h550q22 0 43.5 -8.5t38 -24t26.5 -37t10 -47.5z
M570 627q0 26 9.5 49t26.5 39.5t40 26t50 9.5q26 0 49 -9.5t40.5 -26t27.5 -39.5t10 -49q0 -27 -10 -49.5t-27.5 -39t-40.5 -26t-49 -9.5q-27 0 -50 9.5t-40 26t-26.5 39t-9.5 49.5z" />
    <glyph glyph-name="ldot" unicode="&#x140;" horiz-adv-x="617" 
d="M112 1165q0 24 9 45.5t25 37.5t37.5 25t46.5 9q24 0 45.5 -9t37.5 -25t25.5 -37.5t9.5 -45.5v-1057q0 -25 -9.5 -46.5t-25.5 -37.5t-37.5 -25t-45.5 -9q-25 0 -46.5 9t-37.5 25t-25 37.5t-9 46.5v1057zM423 644q0 26 9.5 49t26.5 39.5t40 26t50 9.5q26 0 49 -9.5
t40.5 -26t27.5 -39.5t10 -49q0 -27 -10 -49.5t-27.5 -39t-40.5 -26t-49 -9.5q-27 0 -50 9.5t-40 26t-26.5 39t-9.5 49.5z" />
    <glyph glyph-name="Lslash" unicode="&#x141;" horiz-adv-x="1091" 
d="M393 823q45 21 90 6t68 -60q10 -22 11.5 -45.5t-6 -45t-22.5 -39t-37 -28.5l-394 -194q-22 -11 -45.5 -12t-44.5 6.5t-38.5 22.5t-28.5 37t-12.5 45.5t6 44.5t23 38.5t37.5 28.5zM1036 119q0 -27 -9 -48.5t-24 -37.5t-35 -24.5t-43 -8.5h-660q-29 1 -53 12t-41.5 29
t-27.5 43t-10 54v1022q-1 20 -6 39.5t-5 37.5q0 11 3.5 20t12.5 15t25 9.5t41 3.5q36 0 66 -6.5t51.5 -22t34 -43t12.5 -69.5v-908h550q22 0 43.5 -8.5t38 -24t26.5 -37t10 -47.5z" />
    <glyph glyph-name="lslash" unicode="&#x142;" horiz-adv-x="467" 
d="M396 805q30 15 62 4.5t48 -42.5q16 -30 6 -62.5t-40 -48.5l-414 -217q-30 -16 -62 -4t-47 41q-16 32 -6 64t40 47zM112 1165q0 24 9 45.5t25 37.5t37.5 25t46.5 9q24 0 45.5 -9t37.5 -25t25.5 -37.5t9.5 -45.5v-1057q0 -25 -9.5 -46.5t-25.5 -37.5t-37.5 -25t-45.5 -9
q-25 0 -46.5 9t-37.5 25t-25 37.5t-9 46.5v1057z" />
    <glyph glyph-name="Nacute" unicode="&#x143;" horiz-adv-x="1379" 
d="M1257 119q0 -26 -8 -49.5t-23.5 -41t-37 -28t-48.5 -10.5q-29 0 -56.5 16.5t-47.5 39.5l-669 786v-175t-0.5 -187.5t-0.5 -187v-174.5q0 -25 -9 -46.5t-24.5 -37.5t-36.5 -25t-46 -9t-46.5 9.5t-37 25t-24.5 37t-9 45.5v1043q-1 20 -6 38.5t-5 39.5q0 10 3.5 19t12.5 15
t25 9.5t41 3.5q27 0 47.5 -2.5t37.5 -9t32 -17.5t32 -28l669 -789l-1 718q0 23 -5 41.5t-5 38.5q0 13 3 22t14 15t31 8.5t55 2.5q32 0 58.5 -5.5t45 -19.5t29 -37t10.5 -57v-1037zM783 1604q23 0 42 -9.5t32 -25.5t18.5 -36.5t1.5 -42.5q-4 -19 -27.5 -43.5t-53.5 -46.5
t-61 -37t-49 -15q-24 -3 -48 8q-32 14 -39 47q-2 8 -2 16.5t2 17.5q0 15 19.5 43t47 55.5t59.5 48t58 20.5z" />
    <glyph glyph-name="nacute" unicode="&#x144;" horiz-adv-x="1213" 
d="M865 483q0 54 -18.5 102.5t-51.5 84.5t-78 57t-99 21q-53 0 -102 -22t-86.5 -58.5t-59.5 -85t-22 -101.5l-85 308q34 41 78.5 75.5t95 59t104.5 38.5t107 14q102 0 185.5 -39t143 -105.5t92 -156t32.5 -191.5v-376q0 -23 -8.5 -44t-24.5 -37.5t-37.5 -26.5t-46.5 -10
t-46.5 9.5t-37.5 25.5t-25.5 37.5t-9.5 45.5v375zM112 913q0 64 64 64q37 0 64 -25.5t40 -90.5l43 -182l25 -14v-557q0 -25 -9.5 -46.5t-25.5 -37.5t-37.5 -25t-45.5 -9q-25 0 -46.5 9t-37.5 25t-25 37.5t-9 46.5v805zM749 1379q23 0 42 -9.5t32 -25.5t18.5 -36.5t1.5 -42.5
q-4 -19 -27.5 -43.5t-53.5 -46.5t-61 -37t-49 -15q-24 -3 -48 8q-32 14 -39 47q-2 8 -2 16.5t2 17.5q0 15 19.5 43t47 55.5t59.5 48t58 20.5z" />
    <glyph glyph-name="Ncommaaccent" unicode="&#x145;" horiz-adv-x="1379" 
d="M1257 119q0 -26 -8 -49.5t-23.5 -41t-37 -28t-48.5 -10.5q-29 0 -56.5 16.5t-47.5 39.5l-669 786v-175t-0.5 -187.5t-0.5 -187v-174.5q0 -25 -9 -46.5t-24.5 -37.5t-36.5 -25t-46 -9t-46.5 9.5t-37 25t-24.5 37t-9 45.5v1043q-1 20 -6 38.5t-5 39.5q0 10 3.5 19t12.5 15
t25 9.5t41 3.5q27 0 47.5 -2.5t37.5 -9t32 -17.5t32 -28l669 -789l-1 718q0 23 -5 41.5t-5 38.5q0 13 3 22t14 15t31 8.5t55 2.5q32 0 58.5 -5.5t45 -19.5t29 -37t10.5 -57v-1037zM740 -152q24 0 46.5 -9t39.5 -25.5t27 -39.5t9 -52q-7 -51 -28.5 -94t-49 -73.5t-58.5 -48
t-57 -18.5q-26 0 -43 22.5t-22 62.5q-5 26 -3 66t7 76q2 27 13 51.5t28 42.5t40.5 28.5t50.5 10.5z" />
    <glyph glyph-name="ncommaaccent" unicode="&#x146;" horiz-adv-x="1213" 
d="M865 483q0 54 -18.5 102.5t-51.5 84.5t-78 57t-99 21q-53 0 -102 -22t-86.5 -58.5t-59.5 -85t-22 -101.5l-85 308q34 41 78.5 75.5t95 59t104.5 38.5t107 14q102 0 185.5 -39t143 -105.5t92 -156t32.5 -191.5v-376q0 -23 -8.5 -44t-24.5 -37.5t-37.5 -26.5t-46.5 -10
t-46.5 9.5t-37.5 25.5t-25.5 37.5t-9.5 45.5v375zM112 913q0 64 64 64q37 0 64 -25.5t40 -90.5l43 -182l25 -14v-557q0 -25 -9.5 -46.5t-25.5 -37.5t-37.5 -25t-45.5 -9q-25 0 -46.5 9t-37.5 25t-25 37.5t-9 46.5v805zM644 -97q24 0 46.5 -9t39.5 -25.5t27 -39.5t9 -52
q-7 -51 -28.5 -94t-49 -73.5t-58.5 -48t-57 -18.5q-26 0 -43 22.5t-22 62.5q-5 26 -3 66t7 76q2 27 13 51.5t28 42.5t40.5 28.5t50.5 10.5z" />
    <glyph glyph-name="Ncaron" unicode="&#x147;" horiz-adv-x="1379" 
d="M1257 119q0 -26 -8 -49.5t-23.5 -41t-37 -28t-48.5 -10.5q-29 0 -56.5 16.5t-47.5 39.5l-669 786v-175t-0.5 -187.5t-0.5 -187v-174.5q0 -25 -9 -46.5t-24.5 -37.5t-36.5 -25t-46 -9t-46.5 9.5t-37 25t-24.5 37t-9 45.5v1043q-1 20 -6 38.5t-5 39.5q0 10 3.5 19t12.5 15
t25 9.5t41 3.5q27 0 47.5 -2.5t37.5 -9t32 -17.5t32 -28l669 -789l-1 718q0 23 -5 41.5t-5 38.5q0 13 3 22t14 15t31 8.5t55 2.5q32 0 58.5 -5.5t45 -19.5t29 -37t10.5 -57v-1037zM489 1539q-13 13 -23.5 30t-15 34.5t-0.5 35t19 32.5q28 27 63 21t66 -36l101 -103l104 103
q30 30 65.5 35.5t61.5 -20.5q25 -26 21.5 -60t-29.5 -60l-175 -171q-23 -18 -52 -16t-52 25z" />
    <glyph glyph-name="ncaron" unicode="&#x148;" horiz-adv-x="1213" 
d="M865 483q0 54 -18.5 102.5t-51.5 84.5t-78 57t-99 21q-53 0 -102 -22t-86.5 -58.5t-59.5 -85t-22 -101.5l-85 308q34 41 78.5 75.5t95 59t104.5 38.5t107 14q102 0 185.5 -39t143 -105.5t92 -156t32.5 -191.5v-376q0 -23 -8.5 -44t-24.5 -37.5t-37.5 -26.5t-46.5 -10
t-46.5 9.5t-37.5 25.5t-25.5 37.5t-9.5 45.5v375zM112 913q0 64 64 64q37 0 64 -25.5t40 -90.5l43 -182l25 -14v-557q0 -25 -9.5 -46.5t-25.5 -37.5t-37.5 -25t-45.5 -9q-25 0 -46.5 9t-37.5 25t-25 37.5t-9 46.5v805zM426 1274q-13 13 -23.5 30t-15 34.5t-0.5 35t19 32.5
q28 27 63 21t66 -36l101 -103l104 103q30 30 65.5 35.5t61.5 -20.5q25 -26 21.5 -60t-29.5 -60l-175 -171q-23 -18 -52 -16t-52 25z" />
    <glyph glyph-name="napostrophe" unicode="&#x149;" horiz-adv-x="1213" 
d="M174.898 1273.42q39.1104 0 67.5928 -22.5537t36.1338 -55.7451q8.50293 -33.1924 -5.95117 -69.7891q-14.4541 -36.5957 -42.0859 -68.0859q-27.6318 -31.4893 -62.4912 -51.915q-34.8584 -20.4258 -68.0176 -20.4258q-35.709 0 -51.4385 14.8936
q-15.7285 14.8945 -15.7285 46.3838q0 28.9365 8.92676 68.5117q8.92773 39.5752 27.207 74.4688q18.2803 34.8936 44.6367 59.5752t61.2158 24.6816zM865 483q0 54 -18.5 102.5t-51.5 84.5t-78 57t-99 21q-53 0 -102 -22t-86.5 -58.5t-59.5 -85t-22 -101.5l-85 308
q34 41 78.5 75.5t95 59t104.5 38.5t107 14q102 0 185.5 -39t143 -105.5t92 -156t32.5 -191.5v-376q0 -23 -8.5 -44t-24.5 -37.5t-37.5 -26.5t-46.5 -10t-46.5 9.5t-37.5 25.5t-25.5 37.5t-9.5 45.5v375zM112 913q0 64 64 64q37 0 64 -25.5t40 -90.5l43 -182l25 -14v-557
q0 -25 -9.5 -46.5t-25.5 -37.5t-37.5 -25t-45.5 -9q-25 0 -46.5 9t-37.5 25t-25 37.5t-9 46.5v805z" />
    <glyph glyph-name="Eng" unicode="&#x14a;" horiz-adv-x="1379" 
d="M1257 222v-60q0 -62 -6 -117.5t-21 -104.5q-19 -60 -50 -108.5t-74 -83t-98.5 -53t-123.5 -18.5q-25 0 -46.5 9t-37.5 25t-25 37.5t-9 46.5q0 24 9 45.5t25.5 37.5t38 25t47.5 9q34 1 59 15.5t42 40t25.5 60t8.5 75.5v165zM1257 109q0 -26 -8 -49.5t-23.5 -41t-37 -28
t-48.5 -10.5q-29 0 -56.5 16.5t-47.5 39.5l-669 786v-175t-0.5 -187.5t-0.5 -187v-174.5q0 -25 -9 -46.5t-24.5 -37.5t-36.5 -25t-46 -9t-46.5 9.5t-37 25t-24.5 37t-9 45.5v1043q-1 20 -6 38.5t-5 39.5q0 10 3.5 19t12.5 15t25 9.5t41 3.5q27 0 47.5 -2.5t37.5 -9t32 -17.5
t32 -28l669 -789l-1 718q0 23 -5 41.5t-5 38.5q0 13 3 22t14 15t31 8.5t55 2.5q32 0 58.5 -5.5t45 -19.5t29 -37t10.5 -57v-1037z" />
    <glyph glyph-name="eng" unicode="&#x14b;" horiz-adv-x="1233" 
d="M875 483q0 54 -18.5 102.5t-51.5 84.5t-78 57t-99 21q-53 0 -102 -22t-86.5 -58.5t-59.5 -85t-22 -101.5l-85 308q34 41 78.5 75.5t95 59t104.5 38.5t107 14q102 0 185.5 -39t143 -105.5t92 -156t32.5 -191.5v-318q0 -23 -8.5 -44t-24.5 -37.5t-37.5 -26.5t-46.5 -10
h-46.5t-37.5 5.5t-25.5 18t-9.5 36.5v375zM122 913q0 64 64 64q37 0 64 -25.5t40 -90.5l43 -182l25 -14v-557q0 -25 -9.5 -46.5t-25.5 -37.5t-37.5 -25t-45.5 -9q-25 0 -46.5 9t-37.5 25t-25 37.5t-9 46.5v805zM1111 276v-162q0 -108 -23 -194t-69.5 -146t-116.5 -92
t-164 -32q-24 0 -45.5 9t-37.5 25t-25.5 37.5t-9.5 46.5q0 35 19 63t51 41q37 7 70 19.5t58.5 35t40.5 58t16 89.5v233z" />
    <glyph glyph-name="Omacron" unicode="&#x14c;" horiz-adv-x="1408" 
d="M61 633q0 88 23 170t65 153.5t100.5 130t130 100.5t153.5 65t171 23q88 0 170 -23t153.5 -65t130 -100.5t100.5 -130t65 -153.5t23 -170q0 -89 -23 -171t-65 -153.5t-100.5 -130t-130 -100.5t-153.5 -65t-170 -23q-133 0 -250 50.5t-204.5 138t-138 204.5t-50.5 250z
M297 631q0 -84 32 -158.5t87 -130.5t129.5 -88.5t158.5 -32.5t158 32.5t129.5 89t87.5 131.5t32 159t-32 158t-87.5 130t-129.5 88.5t-158 32.5t-158.5 -32.5t-129.5 -89t-87 -131t-32 -158.5zM980 1547q34 0 57.5 -24.5t23.5 -59.5q0 -33 -23.5 -58t-57.5 -25h-544
q-33 0 -56.5 25t-23.5 58q0 35 23.5 59.5t56.5 24.5h544z" />
    <glyph glyph-name="omacron" unicode="&#x14d;" horiz-adv-x="1110" 
d="M61 484q0 102 39 191.5t106.5 156.5t157 106t191.5 39t191.5 -39t157 -106t106.5 -156.5t39 -191.5t-39 -192t-106.5 -157t-157 -106t-191.5 -39t-191.5 39t-157 106t-106.5 157t-39 192zM299 484q0 -55 19.5 -103.5t54 -84.5t81.5 -57t101 -21t100.5 21t81 57t54.5 84.5
t20 103.5q0 54 -20 102.5t-54.5 84.5t-81 57t-100.5 21t-101 -21t-81.5 -57t-54 -84.5t-19.5 -102.5zM833 1235q34 0 57.5 -24.5t23.5 -59.5q0 -33 -23.5 -58t-57.5 -25h-544q-33 0 -56.5 25t-23.5 58q0 35 23.5 59.5t56.5 24.5h544z" />
    <glyph glyph-name="Obreve" unicode="&#x14e;" horiz-adv-x="1408" 
d="M61 633q0 88 23 170t65 153.5t100.5 130t130 100.5t153.5 65t171 23q88 0 170 -23t153.5 -65t130 -100.5t100.5 -130t65 -153.5t23 -170q0 -89 -23 -171t-65 -153.5t-100.5 -130t-130 -100.5t-153.5 -65t-170 -23q-133 0 -250 50.5t-204.5 138t-138 204.5t-50.5 250z
M297 631q0 -84 32 -158.5t87 -130.5t129.5 -88.5t158.5 -32.5t158 32.5t129.5 89t87.5 131.5t32 159t-32 158t-87.5 130t-129.5 88.5t-158 32.5t-158.5 -32.5t-129.5 -89t-87 -131t-32 -158.5zM703 1394q-43 0 -82 15.5t-68 42.5t-46.5 62.5t-17.5 75.5q0 33 23 57t57 24
q23 0 35 -9.5t18 -24t9.5 -31.5t10.5 -31.5t20.5 -24t40.5 -9.5q26 0 40 9.5t21.5 24t11 31.5t9.5 31.5t18 24t35 9.5q34 0 56.5 -23.5t22.5 -56.5q0 -41 -17.5 -77t-47 -62.5t-68 -42t-81.5 -15.5z" />
    <glyph glyph-name="obreve" unicode="&#x14f;" horiz-adv-x="1110" 
d="M61 484q0 102 39 191.5t106.5 156.5t157 106t191.5 39t191.5 -39t157 -106t106.5 -156.5t39 -191.5t-39 -192t-106.5 -157t-157 -106t-191.5 -39t-191.5 39t-157 106t-106.5 157t-39 192zM299 484q0 -55 19.5 -103.5t54 -84.5t81.5 -57t101 -21t100.5 21t81 57t54.5 84.5
t20 103.5q0 54 -20 102.5t-54.5 84.5t-81 57t-100.5 21t-101 -21t-81.5 -57t-54 -84.5t-19.5 -102.5zM556 1087q-43 0 -82 15.5t-68 42.5t-46.5 62.5t-17.5 75.5q0 33 23 57t57 24q23 0 35 -9.5t18 -24t9.5 -31.5t10.5 -31.5t20.5 -24t40.5 -9.5q26 0 40 9.5t21.5 24
t11 31.5t9.5 31.5t18 24t35 9.5q34 0 56.5 -23.5t22.5 -56.5q0 -41 -17.5 -77t-47 -62.5t-68 -42t-81.5 -15.5z" />
    <glyph glyph-name="Ohungarumlaut" unicode="&#x150;" horiz-adv-x="1408" 
d="M61 633q0 88 23 170t65 153.5t100.5 130t130 100.5t153.5 65t171 23q88 0 170 -23t153.5 -65t130 -100.5t100.5 -130t65 -153.5t23 -170q0 -89 -23 -171t-65 -153.5t-100.5 -130t-130 -100.5t-153.5 -65t-170 -23q-133 0 -250 50.5t-204.5 138t-138 204.5t-50.5 250z
M297 631q0 -84 32 -158.5t87 -130.5t129.5 -88.5t158.5 -32.5t158 32.5t129.5 89t87.5 131.5t32 159t-32 158t-87.5 130t-129.5 88.5t-158 32.5t-158.5 -32.5t-129.5 -89t-87 -131t-32 -158.5zM985 1644q21 0 40 -9.5t32.5 -25.5t19 -36.5t1.5 -42.5q-4 -24 -27 -49
t-53.5 -45.5t-61 -34t-49.5 -13.5q-24 -3 -47 8q-32 14 -39 47q-2 8 -2 16.5t1 17.5q1 15 17.5 43t43 55.5t59 48t65.5 20.5zM572 1644q21 0 40 -9.5t32.5 -25.5t19.5 -36.5t2 -42.5q-4 -24 -27.5 -49t-53.5 -45.5t-61 -34t-49 -13.5q-24 -3 -48 8q-32 14 -39 47
q-2 8 -2 16.5t2 17.5q1 15 17.5 43t42.5 55.5t58.5 48t65.5 20.5z" />
    <glyph glyph-name="ohungarumlaut" unicode="&#x151;" horiz-adv-x="1110" 
d="M61 484q0 102 39 191.5t106.5 156.5t157 106t191.5 39t191.5 -39t157 -106t106.5 -156.5t39 -191.5t-39 -192t-106.5 -157t-157 -106t-191.5 -39t-191.5 39t-157 106t-106.5 157t-39 192zM299 484q0 -55 19.5 -103.5t54 -84.5t81.5 -57t101 -21t100.5 21t81 57t54.5 84.5
t20 103.5q0 54 -20 102.5t-54.5 84.5t-81 57t-100.5 21t-101 -21t-81.5 -57t-54 -84.5t-19.5 -102.5zM857 1331q21 0 40 -9.5t32.5 -25.5t19 -36.5t1.5 -42.5q-4 -24 -27 -49t-53.5 -45.5t-61 -34t-49.5 -13.5q-24 -3 -47 8q-32 14 -39 47q-2 8 -2 16.5t1 17.5q1 15 17.5 43
t43 55.5t59 48t65.5 20.5zM444 1331q21 0 40 -9.5t32.5 -25.5t19.5 -36.5t2 -42.5q-4 -24 -27.5 -49t-53.5 -45.5t-61 -34t-49 -13.5q-24 -3 -48 8q-32 14 -39 47q-2 8 -2 16.5t2 17.5q1 15 17.5 43t42.5 55.5t58.5 48t65.5 20.5z" />
    <glyph glyph-name="OE" unicode="&#x152;" horiz-adv-x="2123" 
d="M2064 108q0 -26 -10 -48t-27 -37.5t-40 -24t-49 -8.5h-671q-63 0 -98 37.5t-35 99.5v1017q-1 20 -6.5 41.5t-5.5 41.5q0 22 15 35.5t60 13.5h744q39 0 65.5 -16.5t40 -41.5t13.5 -54.5t-13 -54.5t-39 -41.5t-66 -16.5h-573v-308h445q27 0 51 -12.5t39.5 -32.5t21 -46
t-4.5 -54q-12 -35 -40 -54.5t-66 -19.5h-446v-298h567q26 0 49.5 -8t41 -23t27.5 -37t10 -50zM61 633q0 88 23 170t65 153.5t100.5 130t130 100.5t153.5 65t171 23q88 0 170 -23t153.5 -65t130 -100.5t100.5 -130t65 -153.5t23 -170q0 -89 -23 -171t-65 -153.5t-100.5 -130
t-130 -100.5t-153.5 -65t-170 -23q-133 0 -250 50.5t-204.5 138t-138 204.5t-50.5 250zM297 631q0 -84 32 -158.5t87 -130.5t129.5 -88.5t158.5 -32.5t158 32.5t129.5 89t87.5 131.5t32 159t-32 158t-87.5 130t-129.5 88.5t-158 32.5t-158.5 -32.5t-129.5 -89t-87 -131
t-32 -158.5z" />
    <glyph glyph-name="oe" unicode="&#x153;" horiz-adv-x="1851" 
d="M1307 0q-102 0 -191.5 39t-157 105.5t-106.5 156.5t-39 192q0 108 40 198.5t109 156t160 102.5t193 37t190.5 -36t154.5 -100t104 -152t38 -191q0 -50 -26 -67t-89 -17h-632q4 -46 25.5 -87.5t55.5 -73t78 -50.5t94 -19q48 0 93 16.5t81 47.5q21 12 50 13t56 -9t46 -32.5
t19 -56.5q0 -39 -32 -71t-82 -54.5t-112 -35t-120 -12.5zM1315 795q-49 0 -94 -17t-80 -47t-58.5 -70.5t-29.5 -88.5h511q-4 48 -25.5 88.5t-55 70.5t-77 47t-91.5 17zM61 484q0 102 39 191.5t106.5 156.5t157 106t191.5 39t191.5 -39t157 -106t106.5 -156.5t39 -191.5
t-39 -192t-106.5 -157t-157 -106t-191.5 -39t-191.5 39t-157 106t-106.5 157t-39 192zM299 484q0 -55 19.5 -103.5t54 -84.5t81.5 -57t101 -21t100.5 21t81 57t54.5 84.5t20 103.5q0 54 -20 102.5t-54.5 84.5t-81 57t-100.5 21t-101 -21t-81.5 -57t-54 -84.5t-19.5 -102.5z
" />
    <glyph glyph-name="Racute" unicode="&#x154;" horiz-adv-x="1128" 
d="M821 507l237 -332q15 -18 21 -40t3.5 -43.5t-14 -42t-31.5 -35.5t-41.5 -20.5t-43.5 -2.5t-41.5 14.5t-34.5 30.5l-254 388zM1081 797q0 -103 -41.5 -189t-111.5 -148.5t-163 -97.5t-196 -35h-201v-219q0 -25 -9 -46.5t-25 -37.5t-37.5 -25t-46.5 -9t-46.5 9t-37 25
t-24.5 37.5t-9 46.5v1050q-1 20 -6 39.5t-5 37.5q0 11 3.5 20t12.5 15t25 9.5t41 3.5h365q103 0 196 -37.5t163 -102.5t111.5 -154t41.5 -192zM850 791q0 58 -22 108.5t-60.5 88.5t-89.5 60t-109 22h-205v-538h205q58 0 109 18.5t89.5 52.5t60.5 81.5t22 106.5zM630 1666
q23 0 42 -9.5t32 -25.5t18.5 -36.5t1.5 -42.5q-4 -19 -27.5 -43.5t-53.5 -46.5t-61 -37t-49 -15q-24 -3 -48 8q-32 14 -39 47q-2 8 -2 16.5t2 17.5q0 15 19.5 43t47 55.5t59.5 48t58 20.5z" />
    <glyph glyph-name="racute" unicode="&#x155;" horiz-adv-x="851" 
d="M270 800q18 24 46 51t64 51t79 42.5t92 26.5q35 3 79.5 -1t84 -18t66.5 -41t27 -69q0 -28 -14.5 -50.5t-35.5 -34.5q-22 -13 -45 -15.5t-64 -0.5q-33 1 -67.5 3.5t-68.5 -8.5q-33 -11 -61.5 -32t-50 -50.5t-35.5 -66.5t-18 -78zM112 913q0 64 64 64q37 0 64 -25.5
t40 -90.5l43 -182l25 -14v-557q0 -25 -9.5 -46.5t-25.5 -37.5t-37.5 -25t-45.5 -9q-25 0 -46.5 9t-37.5 25t-25 37.5t-9 46.5v805zM510 1344q23 0 42 -9.5t32 -25.5t18.5 -36.5t1.5 -42.5q-4 -19 -27.5 -43.5t-53.5 -46.5t-61 -37t-49 -15q-24 -3 -48 8q-32 14 -39 47
q-2 8 -2 16.5t2 17.5q0 15 19.5 43t47 55.5t59.5 48t58 20.5z" />
    <glyph glyph-name="Rcommaaccent" unicode="&#x156;" horiz-adv-x="1128" 
d="M821 507l237 -332q15 -18 21 -40t3.5 -43.5t-14 -42t-31.5 -35.5t-41.5 -20.5t-43.5 -2.5t-41.5 14.5t-34.5 30.5l-254 388zM1081 797q0 -103 -41.5 -189t-111.5 -148.5t-163 -97.5t-196 -35h-201v-219q0 -25 -9 -46.5t-25 -37.5t-37.5 -25t-46.5 -9t-46.5 9t-37 25
t-24.5 37.5t-9 46.5v1050q-1 20 -6 39.5t-5 37.5q0 11 3.5 20t12.5 15t25 9.5t41 3.5h365q103 0 196 -37.5t163 -102.5t111.5 -154t41.5 -192zM850 791q0 58 -22 108.5t-60.5 88.5t-89.5 60t-109 22h-205v-538h205q58 0 109 18.5t89.5 52.5t60.5 81.5t22 106.5zM587 -110
q24 0 46.5 -9t39.5 -25.5t27 -39.5t9 -52q-7 -51 -28.5 -94t-49 -73.5t-58.5 -48t-57 -18.5q-26 0 -43 22.5t-22 62.5q-5 26 -3 66t7 76q2 27 13 51.5t28 42.5t40.5 28.5t50.5 10.5z" />
    <glyph glyph-name="rcommaaccent" unicode="&#x157;" horiz-adv-x="850" 
d="M270 800q18 24 46 51t64 51t79 42.5t92 26.5q35 3 79.5 -1t84 -18t66.5 -41t27 -69q0 -28 -14.5 -50.5t-35.5 -34.5q-22 -13 -45 -15.5t-64 -0.5q-33 1 -67.5 3.5t-68.5 -8.5q-33 -11 -61.5 -32t-50 -50.5t-35.5 -66.5t-18 -78zM112 913q0 64 64 64q37 0 64 -25.5
t40 -90.5l43 -182l25 -14v-557q0 -25 -9.5 -46.5t-25.5 -37.5t-37.5 -25t-45.5 -9q-25 0 -46.5 9t-37.5 25t-25 37.5t-9 46.5v805zM252 -79q24 0 46.5 -9t39.5 -25.5t27 -39.5t9 -52q-7 -51 -28.5 -94t-49 -73.5t-58.5 -48t-57 -18.5q-26 0 -43 22.5t-22 62.5q-5 26 -3 66
t7 76q2 27 13 51.5t28 42.5t40.5 28.5t50.5 10.5z" />
    <glyph glyph-name="Rcaron" unicode="&#x158;" horiz-adv-x="1128" 
d="M821 507l237 -332q15 -18 21 -40t3.5 -43.5t-14 -42t-31.5 -35.5t-41.5 -20.5t-43.5 -2.5t-41.5 14.5t-34.5 30.5l-254 388zM1081 797q0 -103 -41.5 -189t-111.5 -148.5t-163 -97.5t-196 -35h-201v-219q0 -25 -9 -46.5t-25 -37.5t-37.5 -25t-46.5 -9t-46.5 9t-37 25
t-24.5 37.5t-9 46.5v1050q-1 20 -6 39.5t-5 37.5q0 11 3.5 20t12.5 15t25 9.5t41 3.5h365q103 0 196 -37.5t163 -102.5t111.5 -154t41.5 -192zM850 791q0 58 -22 108.5t-60.5 88.5t-89.5 60t-109 22h-205v-538h205q58 0 109 18.5t89.5 52.5t60.5 81.5t22 106.5zM324 1541
q-13 13 -23.5 30t-15 34.5t-0.5 35t19 32.5q28 27 63 21t66 -36l101 -103l104 103q30 30 65.5 35.5t61.5 -20.5q25 -26 21.5 -60t-29.5 -60l-175 -171q-23 -18 -52 -16t-52 25z" />
    <glyph glyph-name="rcaron" unicode="&#x159;" horiz-adv-x="851" 
d="M270 800q18 24 46 51t64 51t79 42.5t92 26.5q35 3 79.5 -1t84 -18t66.5 -41t27 -69q0 -28 -14.5 -50.5t-35.5 -34.5q-22 -13 -45 -15.5t-64 -0.5q-33 1 -67.5 3.5t-68.5 -8.5q-33 -11 -61.5 -32t-50 -50.5t-35.5 -66.5t-18 -78zM112 913q0 64 64 64q37 0 64 -25.5
t40 -90.5l43 -182l25 -14v-557q0 -25 -9.5 -46.5t-25.5 -37.5t-37.5 -25t-45.5 -9q-25 0 -46.5 9t-37.5 25t-25 37.5t-9 46.5v805zM255 1274q-13 13 -23.5 30t-15 34.5t-0.5 35t19 32.5q28 27 63 21t66 -36l101 -103l104 103q30 30 65.5 35.5t61.5 -20.5q25 -26 21.5 -60
t-29.5 -60l-175 -171q-23 -18 -52 -16t-52 25z" />
    <glyph glyph-name="Sacute" unicode="&#x15a;" horiz-adv-x="1005" 
d="M798 921q-14 -1 -26.5 0.5t-25 6.5t-25.5 14t-28 23q-50 51 -95.5 77.5t-104.5 26.5q-30 0 -62 -9t-57.5 -25.5t-42 -41.5t-16.5 -56q0 -37 27 -66.5t72 -55t102 -50.5t116 -52.5t116 -60t102 -74t72 -94.5t27 -122q0 -89 -41 -158.5t-107 -117t-148.5 -72.5t-166.5 -25
q-101 0 -178 24t-130.5 62.5t-84.5 85.5t-41 93q-3 24 2 46t17.5 39t32.5 27.5t47 10.5q26 0 51.5 -13.5t52.5 -37.5q14 -23 38 -43.5t54.5 -36.5t66 -25.5t73.5 -9.5q37 0 74.5 9.5t68 28t50 46t19.5 63.5q0 37 -26.5 65.5t-69 53.5t-97.5 48t-112.5 49.5t-112.5 58
t-97.5 73t-69 95t-26.5 123.5q0 78 31.5 142.5t88 110.5t133.5 71.5t168 25.5q45 0 92 -10t92 -28t84 -42t69 -52.5t47 -59.5t17 -62q0 -29 -9 -47.5t-24 -30t-35.5 -16.5t-43.5 -5zM585 1661q23 0 42 -9.5t32 -25.5t18.5 -36.5t1.5 -42.5q-4 -19 -27.5 -43.5t-53.5 -46.5
t-61 -37t-49 -15q-24 -3 -48 8q-32 14 -39 47q-2 8 -2 16.5t2 17.5q0 15 19.5 43t47 55.5t59.5 48t58 20.5z" />
    <glyph glyph-name="sacute" unicode="&#x15b;" horiz-adv-x="999" 
d="M621 1346q23 0 42 -9.5t32 -25.5t18.5 -36.5t1.5 -42.5q-4 -19 -27.5 -43.5t-53.5 -46.5t-61 -37t-49 -15q-24 -3 -48 8q-32 14 -39 47q-2 8 -2 16.5t2 17.5q0 15 19.5 43t47 55.5t59.5 48t58 20.5zM496 -10q-68 0 -141 17.5t-135.5 51.5t-106 83t-51.5 112
q-2 24 7.5 44.5t27 34.5t39.5 19.5t45 -1.5q23 -6 47 -31.5t58 -54t83 -51.5t123 -23q41 -3 77.5 1.5t64.5 15t44 27.5t16 40q0 21 -25 38t-66 34t-93 35t-107 40.5t-107 50.5t-93 64.5t-66 83.5t-25 107q0 45 25.5 91t75.5 82.5t123.5 60t168.5 23.5q67 0 130.5 -12
t116 -36.5t90 -62t54.5 -87.5q6 -29 -5.5 -51.5t-31 -36.5t-44 -18.5t-45.5 1.5q-22 8 -45.5 24t-51 33t-60 31.5t-72.5 19.5q-85 10 -135 -8.5t-50 -60.5q0 -36 43 -64.5t108 -55.5t140 -56.5t140 -67.5t108 -88.5t43 -119.5q0 -76 -38 -129t-100 -86.5t-141.5 -48.5
t-162.5 -15z" />
    <glyph glyph-name="Scircumflex" unicode="&#x15c;" horiz-adv-x="1005" 
d="M798 921q-14 -1 -26.5 0.5t-25 6.5t-25.5 14t-28 23q-50 51 -95.5 77.5t-104.5 26.5q-30 0 -62 -9t-57.5 -25.5t-42 -41.5t-16.5 -56q0 -37 27 -66.5t72 -55t102 -50.5t116 -52.5t116 -60t102 -74t72 -94.5t27 -122q0 -89 -41 -158.5t-107 -117t-148.5 -72.5t-166.5 -25
q-101 0 -178 24t-130.5 62.5t-84.5 85.5t-41 93q-3 24 2 46t17.5 39t32.5 27.5t47 10.5q26 0 51.5 -13.5t52.5 -37.5q14 -23 38 -43.5t54.5 -36.5t66 -25.5t73.5 -9.5q37 0 74.5 9.5t68 28t50 46t19.5 63.5q0 37 -26.5 65.5t-69 53.5t-97.5 48t-112.5 49.5t-112.5 58
t-97.5 73t-69 95t-26.5 123.5q0 78 31.5 142.5t88 110.5t133.5 71.5t168 25.5q45 0 92 -10t92 -28t84 -42t69 -52.5t47 -59.5t17 -62q0 -29 -9 -47.5t-24 -30t-35.5 -16.5t-43.5 -5zM463 1666q23 23 52 25t53 -16l175 -171q25 -26 28.5 -60t-21.5 -60q-26 -26 -61.5 -20.5
t-65.5 35.5l-103 103l-102 -103q-30 -30 -65.5 -36t-62.5 21q-15 15 -19 32.5t0.5 35t15 34t23.5 30.5z" />
    <glyph glyph-name="scircumflex" unicode="&#x15d;" horiz-adv-x="999" 
d="M449 1363q23 23 52 25t53 -16l175 -171q25 -26 28.5 -60t-21.5 -60q-26 -26 -61.5 -20.5t-65.5 35.5l-103 103l-102 -103q-30 -30 -65.5 -36t-62.5 21q-15 15 -19 32.5t0.5 35t15 34t23.5 30.5zM496 -10q-68 0 -141 17.5t-135.5 51.5t-106 83t-51.5 112q-2 24 7.5 44.5
t27 34.5t39.5 19.5t45 -1.5q23 -6 47 -31.5t58 -54t83 -51.5t123 -23q41 -3 77.5 1.5t64.5 15t44 27.5t16 40q0 21 -25 38t-66 34t-93 35t-107 40.5t-107 50.5t-93 64.5t-66 83.5t-25 107q0 45 25.5 91t75.5 82.5t123.5 60t168.5 23.5q67 0 130.5 -12t116 -36.5t90 -62
t54.5 -87.5q6 -29 -5.5 -51.5t-31 -36.5t-44 -18.5t-45.5 1.5q-22 8 -45.5 24t-51 33t-60 31.5t-72.5 19.5q-85 10 -135 -8.5t-50 -60.5q0 -36 43 -64.5t108 -55.5t140 -56.5t140 -67.5t108 -88.5t43 -119.5q0 -76 -38 -129t-100 -86.5t-141.5 -48.5t-162.5 -15z" />
    <glyph glyph-name="Scedilla" unicode="&#x15e;" horiz-adv-x="1005" 
d="M798 921q-14 -1 -26.5 0.5t-25 6.5t-25.5 14t-28 23q-50 51 -95.5 77.5t-104.5 26.5q-30 0 -62 -9t-57.5 -25.5t-42 -41.5t-16.5 -56q0 -37 27 -66.5t72 -55t102 -50.5t116 -52.5t116 -60t102 -74t72 -94.5t27 -122q0 -89 -41 -158.5t-107 -117t-148.5 -72.5t-166.5 -25
q-101 0 -178 24t-130.5 62.5t-84.5 85.5t-41 93q-3 24 2 46t17.5 39t32.5 27.5t47 10.5q26 0 51.5 -13.5t52.5 -37.5q14 -23 38 -43.5t54.5 -36.5t66 -25.5t73.5 -9.5q37 0 74.5 9.5t68 28t50 46t19.5 63.5q0 37 -26.5 65.5t-69 53.5t-97.5 48t-112.5 49.5t-112.5 58
t-97.5 73t-69 95t-26.5 123.5q0 78 31.5 142.5t88 110.5t133.5 71.5t168 25.5q45 0 92 -10t92 -28t84 -42t69 -52.5t47 -59.5t17 -62q0 -29 -9 -47.5t-24 -30t-35.5 -16.5t-43.5 -5zM406 44h26t45.5 0.5t45.5 0.5h26v-26t1 -30t1.5 -27.5t2.5 -16.5q3 -8 8.5 -15.5
t17.5 -12.5q33 -15 56 -38.5t36.5 -52t18.5 -61t1 -63.5q-11 -70 -61.5 -115.5t-125.5 -51.5q-35 -3 -67.5 7t-58.5 28.5t-44 43t-25 50.5q-6 15 -6.5 33t6.5 33t22 25.5t39 10.5q25 0 38.5 -13.5t23.5 -30.5t21.5 -31.5t34.5 -14.5q11 0 22.5 3.5t21 11t15 20t5.5 29.5
q-1 20 -12 33.5t-27 24t-35 20.5t-35 22t-27 28.5t-11 41.5v134z" />
    <glyph glyph-name="scedilla" unicode="&#x15f;" horiz-adv-x="999" 
d="M439 29h26t45.5 0.5t45.5 0.5h26v-26t1 -30t1.5 -27.5t2.5 -16.5q3 -8 8.5 -15.5t17.5 -12.5q33 -15 56 -38.5t36.5 -52t18.5 -61t1 -63.5q-11 -70 -61.5 -115.5t-125.5 -51.5q-35 -3 -67.5 7t-58.5 28.5t-44 43t-25 50.5q-6 15 -6.5 33t6.5 33t22 25.5t39 10.5
q25 0 38.5 -13.5t23.5 -30.5t21.5 -31.5t34.5 -14.5q11 0 22.5 3.5t21 11t15 20t5.5 29.5q-1 20 -12 33.5t-27 24t-35 20.5t-35 22t-27 28.5t-11 41.5v134zM496 -10q-68 0 -141 17.5t-135.5 51.5t-106 83t-51.5 112q-2 24 7.5 44.5t27 34.5t39.5 19.5t45 -1.5
q23 -6 47 -31.5t58 -54t83 -51.5t123 -23q41 -3 77.5 1.5t64.5 15t44 27.5t16 40q0 21 -25 38t-66 34t-93 35t-107 40.5t-107 50.5t-93 64.5t-66 83.5t-25 107q0 45 25.5 91t75.5 82.5t123.5 60t168.5 23.5q67 0 130.5 -12t116 -36.5t90 -62t54.5 -87.5q6 -29 -5.5 -51.5
t-31 -36.5t-44 -18.5t-45.5 1.5q-22 8 -45.5 24t-51 33t-60 31.5t-72.5 19.5q-85 10 -135 -8.5t-50 -60.5q0 -36 43 -64.5t108 -55.5t140 -56.5t140 -67.5t108 -88.5t43 -119.5q0 -76 -38 -129t-100 -86.5t-141.5 -48.5t-162.5 -15z" />
    <glyph glyph-name="Scaron" unicode="&#x160;" horiz-adv-x="1005" 
d="M798 921q-14 -1 -26.5 0.5t-25 6.5t-25.5 14t-28 23q-50 51 -95.5 77.5t-104.5 26.5q-30 0 -62 -9t-57.5 -25.5t-42 -41.5t-16.5 -56q0 -37 27 -66.5t72 -55t102 -50.5t116 -52.5t116 -60t102 -74t72 -94.5t27 -122q0 -89 -41 -158.5t-107 -117t-148.5 -72.5t-166.5 -25
q-101 0 -178 24t-130.5 62.5t-84.5 85.5t-41 93q-3 24 2 46t17.5 39t32.5 27.5t47 10.5q26 0 51.5 -13.5t52.5 -37.5q14 -23 38 -43.5t54.5 -36.5t66 -25.5t73.5 -9.5q37 0 74.5 9.5t68 28t50 46t19.5 63.5q0 37 -26.5 65.5t-69 53.5t-97.5 48t-112.5 49.5t-112.5 58
t-97.5 73t-69 95t-26.5 123.5q0 78 31.5 142.5t88 110.5t133.5 71.5t168 25.5q45 0 92 -10t92 -28t84 -42t69 -52.5t47 -59.5t17 -62q0 -29 -9 -47.5t-24 -30t-35.5 -16.5t-43.5 -5zM277 1567q-13 13 -23.5 30t-15 34.5t-0.5 35t19 32.5q28 27 63 21t66 -36l101 -103
l104 103q30 30 65.5 35.5t61.5 -20.5q25 -26 21.5 -60t-29.5 -60l-175 -171q-23 -18 -52 -16t-52 25z" />
    <glyph glyph-name="scaron" unicode="&#x161;" horiz-adv-x="999" 
d="M308 1263q-13 13 -23.5 30t-15 34.5t-0.5 35t19 32.5q28 27 63 21t66 -36l101 -103l104 103q30 30 65.5 35.5t61.5 -20.5q25 -26 21.5 -60t-29.5 -60l-175 -171q-23 -18 -52 -16t-52 25zM496 -10q-68 0 -141 17.5t-135.5 51.5t-106 83t-51.5 112q-2 24 7.5 44.5t27 34.5
t39.5 19.5t45 -1.5q23 -6 47 -31.5t58 -54t83 -51.5t123 -23q41 -3 77.5 1.5t64.5 15t44 27.5t16 40q0 21 -25 38t-66 34t-93 35t-107 40.5t-107 50.5t-93 64.5t-66 83.5t-25 107q0 45 25.5 91t75.5 82.5t123.5 60t168.5 23.5q67 0 130.5 -12t116 -36.5t90 -62t54.5 -87.5
q6 -29 -5.5 -51.5t-31 -36.5t-44 -18.5t-45.5 1.5q-22 8 -45.5 24t-51 33t-60 31.5t-72.5 19.5q-85 10 -135 -8.5t-50 -60.5q0 -36 43 -64.5t108 -55.5t140 -56.5t140 -67.5t108 -88.5t43 -119.5q0 -76 -38 -129t-100 -86.5t-141.5 -48.5t-162.5 -15z" />
    <glyph glyph-name="Tcommaaccent" unicode="&#x162;" horiz-adv-x="1133" 
d="M1103 1158q0 -26 -9.5 -47t-26 -37t-39 -24.5t-48.5 -8.5h-294l-3 -933q0 -25 -8.5 -46.5t-23.5 -37.5t-36.5 -25t-46.5 -9q-26 0 -47.5 9t-36.5 25t-23.5 37.5t-8.5 46.5l-2 933h-298q-26 0 -48 8.5t-38 24t-25.5 37t-9.5 47.5q0 24 9 45.5t25 37.5t38.5 25.5t48.5 9.5
h827q25 0 48 -8.5t39.5 -24t26.5 -37.5t10 -48zM579 -109q24 0 46.5 -9t39.5 -25.5t27 -39.5t9 -52q-7 -51 -28.5 -94t-49 -73.5t-58.5 -48t-57 -18.5q-26 0 -43 22.5t-22 62.5q-5 26 -3 66t7 76q2 27 13 51.5t28 42.5t40.5 28.5t50.5 10.5z" />
    <glyph glyph-name="tcommaaccent" unicode="&#x163;" horiz-adv-x="719" 
d="M576 958q24 0 45 -8.5t36.5 -24t24.5 -36.5t9 -46q0 -24 -9 -44.5t-24.5 -36.5t-36.5 -25t-45 -9h-430q-24 0 -45 9t-36.5 25t-24.5 36.5t-9 44.5q0 25 9 46t24.5 36.5t36.5 24t45 8.5h430zM241 1165q0 24 9 45.5t24.5 37.5t37 25t46.5 9q24 0 45.5 -9t37.5 -25
t25.5 -37.5t9.5 -45.5v-1057q0 -25 -9.5 -46.5t-25.5 -37.5t-37.5 -25t-45.5 -9q-25 0 -46.5 9t-37 25t-24.5 37.5t-9 46.5v1057zM370 -92q24 0 46.5 -9t39.5 -25.5t27 -39.5t9 -52q-7 -51 -28.5 -94t-49 -73.5t-58.5 -48t-57 -18.5q-26 0 -43 22.5t-22 62.5q-5 26 -3 66
t7 76q2 27 13 51.5t28 42.5t40.5 28.5t50.5 10.5z" />
    <glyph glyph-name="Tcaron" unicode="&#x164;" horiz-adv-x="1133" 
d="M1103 1158q0 -26 -9.5 -47t-26 -37t-39 -24.5t-48.5 -8.5h-294l-3 -933q0 -25 -8.5 -46.5t-23.5 -37.5t-36.5 -25t-46.5 -9q-26 0 -47.5 9t-36.5 25t-23.5 37.5t-8.5 46.5l-2 933h-298q-26 0 -48 8.5t-38 24t-25.5 37t-9.5 47.5q0 24 9 45.5t25 37.5t38.5 25.5t48.5 9.5
h827q25 0 48 -8.5t39.5 -24t26.5 -37.5t10 -48zM364 1564q-13 13 -23.5 30t-15 34.5t-0.5 35t19 32.5q28 27 63 21t66 -36l101 -103l104 103q30 30 65.5 35.5t61.5 -20.5q25 -26 21.5 -60t-29.5 -60l-175 -171q-23 -18 -52 -16t-52 25z" />
    <glyph glyph-name="tcaron" unicode="&#x165;" horiz-adv-x="719" 
d="M576 958q24 0 45 -8.5t36.5 -24t24.5 -36.5t9 -46q0 -24 -9 -44.5t-24.5 -36.5t-36.5 -25t-45 -9h-430q-24 0 -45 9t-36.5 25t-24.5 36.5t-9 44.5q0 25 9 46t24.5 36.5t36.5 24t45 8.5h430zM241 1165q0 24 9 45.5t24.5 37.5t37 25t46.5 9q24 0 45.5 -9t37.5 -25
t25.5 -37.5t9.5 -45.5v-1057q0 -25 -9.5 -46.5t-25.5 -37.5t-37.5 -25t-45.5 -9q-25 0 -46.5 9t-37 25t-24.5 37.5t-9 46.5v1057zM760 1371q46 0 79.5 -26.5t42.5 -65.5q10 -39 -7 -82t-49.5 -80t-73.5 -61t-80 -24q-42 0 -60.5 17.5t-18.5 54.5q0 34 10.5 80.5t32 87.5
t52.5 70t72 29z" />
    <glyph glyph-name="Tbar" unicode="&#x166;" horiz-adv-x="1133" 
d="M1103 1158q0 -26 -9.5 -47t-26 -37t-39 -24.5t-48.5 -8.5h-294l-3 -933q0 -25 -8.5 -46.5t-23.5 -37.5t-36.5 -25t-46.5 -9q-26 0 -47.5 9t-36.5 25t-23.5 37.5t-8.5 46.5l-2 933h-298q-26 0 -48 8.5t-38 24t-25.5 37t-9.5 47.5q0 24 9 45.5t25 37.5t38.5 25.5t48.5 9.5
h827q25 0 48 -8.5t39.5 -24t26.5 -37.5t10 -48zM838 703q34 0 57.5 -24.5t23.5 -59.5q0 -33 -23.5 -58t-57.5 -25h-544q-33 0 -56.5 25t-23.5 58q0 35 23.5 59.5t56.5 24.5h544z" />
    <glyph glyph-name="tbar" unicode="&#x167;" horiz-adv-x="718" 
d="M576 958q24 0 45 -8.5t36.5 -24t24.5 -36.5t9 -46q0 -24 -9 -44.5t-24.5 -36.5t-36.5 -25t-45 -9h-430q-24 0 -45 9t-36.5 25t-24.5 36.5t-9 44.5q0 25 9 46t24.5 36.5t36.5 24t45 8.5h430zM241 1165q0 24 9 45.5t24.5 37.5t37 25t46.5 9q24 0 45.5 -9t37.5 -25
t25.5 -37.5t9.5 -45.5v-1057q0 -25 -9.5 -46.5t-25.5 -37.5t-37.5 -25t-45.5 -9q-25 0 -46.5 9t-37 25t-24.5 37.5t-9 46.5v1057zM618.45 579.294q32.5859 0 55.1094 -25.7246q22.5234 -25.7256 22.5234 -62.4746q0 -34.6494 -22.5234 -60.8994t-55.1094 -26.25h-521.389
q-31.6289 0 -54.1523 26.25q-22.5225 26.25 -22.5225 60.8994q0 36.749 22.5225 62.4746q22.5234 25.7246 54.1523 25.7246h521.389z" />
    <glyph glyph-name="Utilde" unicode="&#x168;" horiz-adv-x="1274" 
d="M84 1150q-1 20 -6 39.5t-5 37.5q0 11 3.5 20t12.5 15t25 9.5t41 3.5q33 0 62 -5.5t51.5 -20.5t35.5 -41.5t15 -68.5v-638q0 -61 22 -114.5t63.5 -93t100.5 -62.5t134 -23q69 0 127.5 23t101.5 62.5t67.5 93t24.5 114.5l-1 649q-1 20 -6 39.5t-5 37.5q0 11 3.5 20t12.5 15
t25 9.5t41 3.5q32 0 61.5 -5t52.5 -20t36.5 -42t13.5 -70l1 -636q-1 -109 -43.5 -205t-117 -168t-176 -114t-219.5 -42q-121 0 -223 41.5t-176 113t-115.5 168t-41.5 206.5zM829 1621q12 7 28.5 5t29.5 -12.5t19.5 -29.5t-2.5 -46q-8 -27 -24 -51t-39 -42t-52 -28.5
t-63 -10.5q-42 0 -67.5 16.5t-45 37t-39.5 37t-51 16.5q-24 0 -36.5 -11t-21.5 -24.5t-18.5 -26t-26.5 -15.5q-10 -1 -23 0q-18 3 -28.5 13t-14.5 22.5t-3.5 27.5t5.5 29q18 57 61 93q11 9 23 15.5t26 11.5q12 4 26 6.5t29 2.5q47 0 74.5 -16.5t47.5 -37t38.5 -37
t48.5 -16.5q15 0 24 8t18 19t21.5 23t35.5 21z" />
    <glyph glyph-name="utilde" unicode="&#x169;" horiz-adv-x="1213" 
d="M803 1317q12 7 28.5 5t29.5 -12.5t19.5 -29.5t-2.5 -46q-8 -27 -24 -51t-39 -42t-52 -28.5t-63 -10.5q-42 0 -67.5 16.5t-45 37t-39.5 37t-51 16.5q-24 0 -36.5 -11t-21.5 -24.5t-18.5 -26t-26.5 -15.5q-10 -1 -23 0q-18 3 -28.5 13t-14.5 22.5t-3.5 27.5t5.5 29
q18 57 61 93q11 9 23 15.5t26 11.5q12 4 26 6.5t29 2.5q47 0 74.5 -16.5t47.5 -37t38.5 -37t48.5 -16.5q15 0 24 8t18 19t21.5 23t35.5 21zM348 485q0 -55 18.5 -103.5t51.5 -84.5t78 -57t99 -21q53 0 102 22t86.5 59t59.5 85.5t22 101.5l86 -309q-35 -41 -79.5 -75.5
t-95 -59t-104.5 -38.5t-107 -14q-102 0 -185.5 39t-143 105.5t-92 156.5t-32.5 192v376q0 22 8.5 43.5t24.5 37.5t37 26t47 10q25 0 46.5 -9t37.5 -25t25.5 -37.5t9.5 -45.5v-375zM1101 54q0 -64 -64 -64q-36 0 -63.5 25.5t-40.5 90.5l-43 183l-25 13v558q0 25 9.5 46
t25.5 37t37.5 25t45.5 9q25 0 46.5 -9t37.5 -25t25 -37t9 -46v-806z" />
    <glyph glyph-name="Umacron" unicode="&#x16a;" horiz-adv-x="1274" 
d="M84 1150q-1 20 -6 39.5t-5 37.5q0 11 3.5 20t12.5 15t25 9.5t41 3.5q33 0 62 -5.5t51.5 -20.5t35.5 -41.5t15 -68.5v-638q0 -61 22 -114.5t63.5 -93t100.5 -62.5t134 -23q69 0 127.5 23t101.5 62.5t67.5 93t24.5 114.5l-1 649q-1 20 -6 39.5t-5 37.5q0 11 3.5 20t12.5 15
t25 9.5t41 3.5q32 0 61.5 -5t52.5 -20t36.5 -42t13.5 -70l1 -636q-1 -109 -43.5 -205t-117 -168t-176 -114t-219.5 -42q-121 0 -223 41.5t-176 113t-115.5 168t-41.5 206.5zM893 1563q34 0 57.5 -24.5t23.5 -59.5q0 -33 -23.5 -58t-57.5 -25h-544q-33 0 -56.5 25t-23.5 58
q0 35 23.5 59.5t56.5 24.5h544z" />
    <glyph glyph-name="umacron" unicode="&#x16b;" horiz-adv-x="1212" 
d="M348 485q0 -55 18.5 -103.5t51.5 -84.5t78 -57t99 -21q53 0 102 22t86.5 59t59.5 85.5t22 101.5l86 -309q-35 -41 -79.5 -75.5t-95 -59t-104.5 -38.5t-107 -14q-102 0 -185.5 39t-143 105.5t-92 156.5t-32.5 192v376q0 22 8.5 43.5t24.5 37.5t37 26t47 10q25 0 46.5 -9
t37.5 -25t25.5 -37.5t9.5 -45.5v-375zM1101 54q0 -64 -64 -64q-36 0 -63.5 25.5t-40.5 90.5l-43 183l-25 13v558q0 25 9.5 46t25.5 37t37.5 25t45.5 9q25 0 46.5 -9t37.5 -25t25 -37t9 -46v-806zM878 1244q34 0 57.5 -24.5t23.5 -59.5q0 -33 -23.5 -58t-57.5 -25h-544
q-33 0 -56.5 25t-23.5 58q0 35 23.5 59.5t56.5 24.5h544z" />
    <glyph glyph-name="Ubreve" unicode="&#x16c;" horiz-adv-x="1274" 
d="M84 1150q-1 20 -6 39.5t-5 37.5q0 11 3.5 20t12.5 15t25 9.5t41 3.5q33 0 62 -5.5t51.5 -20.5t35.5 -41.5t15 -68.5v-638q0 -61 22 -114.5t63.5 -93t100.5 -62.5t134 -23q69 0 127.5 23t101.5 62.5t67.5 93t24.5 114.5l-1 649q-1 20 -6 39.5t-5 37.5q0 11 3.5 20t12.5 15
t25 9.5t41 3.5q32 0 61.5 -5t52.5 -20t36.5 -42t13.5 -70l1 -636q-1 -109 -43.5 -205t-117 -168t-176 -114t-219.5 -42q-121 0 -223 41.5t-176 113t-115.5 168t-41.5 206.5zM622 1383q-43 0 -82 15.5t-68 42.5t-46.5 62.5t-17.5 75.5q0 33 23 57t57 24q23 0 35 -9.5t18 -24
t9.5 -31.5t10.5 -31.5t20.5 -24t40.5 -9.5q26 0 40 9.5t21.5 24t11 31.5t9.5 31.5t18 24t35 9.5q34 0 56.5 -23.5t22.5 -56.5q0 -41 -17.5 -77t-47 -62.5t-68 -42t-81.5 -15.5z" />
    <glyph glyph-name="ubreve" unicode="&#x16d;" horiz-adv-x="1212" 
d="M348 485q0 -55 18.5 -103.5t51.5 -84.5t78 -57t99 -21q53 0 102 22t86.5 59t59.5 85.5t22 101.5l86 -309q-35 -41 -79.5 -75.5t-95 -59t-104.5 -38.5t-107 -14q-102 0 -185.5 39t-143 105.5t-92 156.5t-32.5 192v376q0 22 8.5 43.5t24.5 37.5t37 26t47 10q25 0 46.5 -9
t37.5 -25t25.5 -37.5t9.5 -45.5v-375zM1101 54q0 -64 -64 -64q-36 0 -63.5 25.5t-40.5 90.5l-43 183l-25 13v558q0 25 9.5 46t25.5 37t37.5 25t45.5 9q25 0 46.5 -9t37.5 -25t25 -37t9 -46v-806zM602 1078q-43 0 -82 15.5t-68 42.5t-46.5 62.5t-17.5 75.5q0 33 23 57t57 24
q23 0 35 -9.5t18 -24t9.5 -31.5t10.5 -31.5t20.5 -24t40.5 -9.5q26 0 40 9.5t21.5 24t11 31.5t9.5 31.5t18 24t35 9.5q34 0 56.5 -23.5t22.5 -56.5q0 -41 -17.5 -77t-47 -62.5t-68 -42t-81.5 -15.5z" />
    <glyph glyph-name="Uring" unicode="&#x16e;" horiz-adv-x="1275" 
d="M84 1150q-1 20 -6 39.5t-5 37.5q0 11 3.5 20t12.5 15t25 9.5t41 3.5q33 0 62 -5.5t51.5 -20.5t35.5 -41.5t15 -68.5v-638q0 -61 22 -114.5t63.5 -93t100.5 -62.5t134 -23q69 0 127.5 23t101.5 62.5t67.5 93t24.5 114.5l-1 649q-1 20 -6 39.5t-5 37.5q0 11 3.5 20t12.5 15
t25 9.5t41 3.5q32 0 61.5 -5t52.5 -20t36.5 -42t13.5 -70l1 -636q-1 -109 -43.5 -205t-117 -168t-176 -114t-219.5 -42q-121 0 -223 41.5t-176 113t-115.5 168t-41.5 206.5zM468 1514q0 33 12.5 62t33.5 50.5t50 34t62 12.5t61.5 -12.5t50 -34t34 -50.5t12.5 -62
q0 -32 -12.5 -61t-34 -50.5t-50 -34t-61.5 -12.5t-62 12.5t-50 34t-33.5 50.5t-12.5 61zM570 1514q0 -24 16 -41t40 -17t40 17t16 41t-16 41.5t-40 17.5t-40 -17.5t-16 -41.5z" />
    <glyph glyph-name="uring" unicode="&#x16f;" horiz-adv-x="1213" 
d="M442 1249q0 33 12.5 62t33.5 50.5t50 34t62 12.5t61.5 -12.5t50 -34t34 -50.5t12.5 -62q0 -32 -12.5 -61t-34 -50.5t-50 -34t-61.5 -12.5t-62 12.5t-50 34t-33.5 50.5t-12.5 61zM544 1249q0 -24 16 -41t40 -17t40 17t16 41t-16 41.5t-40 17.5t-40 -17.5t-16 -41.5z
M348 485q0 -55 18.5 -103.5t51.5 -84.5t78 -57t99 -21q53 0 102 22t86.5 59t59.5 85.5t22 101.5l86 -309q-35 -41 -79.5 -75.5t-95 -59t-104.5 -38.5t-107 -14q-102 0 -185.5 39t-143 105.5t-92 156.5t-32.5 192v376q0 22 8.5 43.5t24.5 37.5t37 26t47 10q25 0 46.5 -9
t37.5 -25t25.5 -37.5t9.5 -45.5v-375zM1101 54q0 -64 -64 -64q-36 0 -63.5 25.5t-40.5 90.5l-43 183l-25 13v558q0 25 9.5 46t25.5 37t37.5 25t45.5 9q25 0 46.5 -9t37.5 -25t25 -37t9 -46v-806z" />
    <glyph glyph-name="Uhungarumlaut" unicode="&#x170;" horiz-adv-x="1274" 
d="M84 1150q-1 20 -6 39.5t-5 37.5q0 11 3.5 20t12.5 15t25 9.5t41 3.5q33 0 62 -5.5t51.5 -20.5t35.5 -41.5t15 -68.5v-638q0 -61 22 -114.5t63.5 -93t100.5 -62.5t134 -23q69 0 127.5 23t101.5 62.5t67.5 93t24.5 114.5l-1 649q-1 20 -6 39.5t-5 37.5q0 11 3.5 20t12.5 15
t25 9.5t41 3.5q32 0 61.5 -5t52.5 -20t36.5 -42t13.5 -70l1 -636q-1 -109 -43.5 -205t-117 -168t-176 -114t-219.5 -42q-121 0 -223 41.5t-176 113t-115.5 168t-41.5 206.5zM888 1632q21 0 40 -9.5t32.5 -25.5t19 -36.5t1.5 -42.5q-4 -24 -27 -49t-53.5 -45.5t-61 -34
t-49.5 -13.5q-24 -3 -47 8q-32 14 -39 47q-2 8 -2 16.5t1 17.5q1 15 17.5 43t43 55.5t59 48t65.5 20.5zM475 1632q21 0 40 -9.5t32.5 -25.5t19.5 -36.5t2 -42.5q-4 -24 -27.5 -49t-53.5 -45.5t-61 -34t-49 -13.5q-24 -3 -48 8q-32 14 -39 47q-2 8 -2 16.5t2 17.5
q1 15 17.5 43t42.5 55.5t58.5 48t65.5 20.5z" />
    <glyph glyph-name="uhungarumlaut" unicode="&#x171;" horiz-adv-x="1212" 
d="M348 485q0 -55 18.5 -103.5t51.5 -84.5t78 -57t99 -21q53 0 102 22t86.5 59t59.5 85.5t22 101.5l86 -309q-35 -41 -79.5 -75.5t-95 -59t-104.5 -38.5t-107 -14q-102 0 -185.5 39t-143 105.5t-92 156.5t-32.5 192v376q0 22 8.5 43.5t24.5 37.5t37 26t47 10q25 0 46.5 -9
t37.5 -25t25.5 -37.5t9.5 -45.5v-375zM1101 54q0 -64 -64 -64q-36 0 -63.5 25.5t-40.5 90.5l-43 183l-25 13v558q0 25 9.5 46t25.5 37t37.5 25t45.5 9q25 0 46.5 -9t37.5 -25t25 -37t9 -46v-806zM896 1346q21 0 40 -9.5t32.5 -25.5t19 -36.5t1.5 -42.5q-4 -24 -27 -49
t-53.5 -45.5t-61 -34t-49.5 -13.5q-24 -3 -47 8q-32 14 -39 47q-2 8 -2 16.5t1 17.5q1 15 17.5 43t43 55.5t59 48t65.5 20.5zM483 1346q21 0 40 -9.5t32.5 -25.5t19.5 -36.5t2 -42.5q-4 -24 -27.5 -49t-53.5 -45.5t-61 -34t-49 -13.5q-24 -3 -48 8q-32 14 -39 47
q-2 8 -2 16.5t2 17.5q1 15 17.5 43t42.5 55.5t58.5 48t65.5 20.5z" />
    <glyph glyph-name="Uogonek" unicode="&#x172;" horiz-adv-x="1274" 
d="M84 1150q-1 20 -6 39.5t-5 37.5q0 11 3.5 20t12.5 15t25 9.5t41 3.5q33 0 62 -5.5t51.5 -20.5t35.5 -41.5t15 -68.5v-638q0 -61 22 -114.5t63.5 -93t100.5 -62.5t134 -23q69 0 127.5 23t101.5 62.5t67.5 93t24.5 114.5l-1 649q-1 20 -6 39.5t-5 37.5q0 11 3.5 20t12.5 15
t25 9.5t41 3.5q32 0 61.5 -5t52.5 -20t36.5 -42t13.5 -70l1 -636q-1 -109 -43.5 -205t-117 -168t-176 -114t-219.5 -42q-121 0 -223 41.5t-176 113t-115.5 168t-41.5 206.5zM893 188q14 14 31 16t33 -4t28 -19t17.5 -29t1.5 -33t-20 -32l-66 -59q-19 -18 -34.5 -31.5
t-26.5 -25.5t-17 -24t-6 -26q0 -20 11.5 -35t36.5 -15q17 0 26 8t14.5 20t10 26t12 26t20.5 20t36 8q24 0 45 -17t21 -44q0 -41 -15 -75.5t-41 -60t-60.5 -40t-74.5 -14.5q-41 0 -76.5 14.5t-61.5 40t-41 60t-15 75.5q0 34 13.5 64t40.5 60.5t66.5 65.5t90.5 80z" />
    <glyph glyph-name="uogonek" unicode="&#x173;" horiz-adv-x="1212" 
d="M348 485q0 -55 18.5 -103.5t51.5 -84.5t78 -57t99 -21q53 0 102 22t86.5 59t59.5 85.5t22 101.5l86 -309q-35 -41 -79.5 -75.5t-95 -59t-104.5 -38.5t-107 -14q-102 0 -185.5 39t-143 105.5t-92 156.5t-32.5 192v376q0 22 8.5 43.5t24.5 37.5t37 26t47 10q25 0 46.5 -9
t37.5 -25t25.5 -37.5t9.5 -45.5v-375zM1101 54q0 -64 -64 -64q-36 0 -63.5 25.5t-40.5 90.5l-43 183l-25 13v558q0 25 9.5 46t25.5 37t37.5 25t45.5 9q25 0 46.5 -9t37.5 -25t25 -37t9 -46v-806zM985 95q14 14 31 16t33 -4t28 -19t17.5 -29t1.5 -33t-20 -32l-66 -59
q-19 -18 -34.5 -31.5t-26.5 -25.5t-17 -24t-6 -26q0 -20 11.5 -35t36.5 -15q17 0 26 8t14.5 20t10 26t12 26t20.5 20t36 8q24 0 45 -17t21 -44q0 -41 -15 -75.5t-41 -60t-60.5 -40t-74.5 -14.5q-41 0 -76.5 14.5t-61.5 40t-41 60t-15 75.5q0 34 13.5 64t40.5 60.5t66.5 65.5
t90.5 80z" />
    <glyph glyph-name="Wcircumflex" unicode="&#x174;" horiz-adv-x="1681" 
d="M758 813q-8 20 -10.5 40.5t2 39t16.5 33t33 23.5q20 8 41 7.5t39.5 -8.5t33 -22.5t21.5 -34.5l262 -715l40 -24q9 -23 8.5 -46.5t-10 -44.5t-26.5 -37.5t-39 -25.5q-47 -18 -90 0.5t-63 65.5zM1238 64q-19 -47 -62.5 -65.5t-90.5 -0.5q-23 9 -39.5 25.5t-26 37.5
t-10 44.5t8.5 46.5l41 24l364 1030q8 26 29 41t47 19q16 9 36.5 11t40.5 -6q23 -9 39.5 -25.5t25.5 -37.5t9.5 -44t-8.5 -46zM39 1118q-9 23 -8.5 46t9.5 44t25.5 37.5t39.5 25.5t46.5 8.5t44.5 -9t37.5 -25t24.5 -39.5l364 -1030l40 -24q9 -23 8.5 -46.5t-10 -44.5
t-26.5 -37.5t-39 -25.5q-47 -18 -90 0.5t-63 65.5zM664 64q-19 -47 -62.5 -65.5t-90.5 -0.5q-23 9 -39.5 25.5t-25.5 37.5t-10 44.5t8 46.5l41 24l255 714q7 20 21.5 34.5t33 22.5t39.5 8.5t41 -7.5q21 -8 33 -23t16.5 -33t2 -39t-9.5 -41zM796 1617q23 23 52 25t53 -16
l175 -171q25 -26 28.5 -60t-21.5 -60q-26 -26 -61.5 -20.5t-65.5 35.5l-103 103l-102 -103q-30 -30 -65.5 -36t-62.5 21q-15 15 -19 32.5t0.5 35t15 34t23.5 30.5z" />
    <glyph glyph-name="wcircumflex" unicode="&#x175;" horiz-adv-x="1635" 
d="M816 613l-197 -499q-21 -54 -58 -89t-79 -35q-33 -1 -61 15.5t-44 50.5l-306 690q-26 59 -38 114q-2 34 14 62.5t50 44.5q22 10 45.5 11.5t44.5 -6t39 -23t29 -37.5l230 -569l224 569q11 27 34.5 44t52.5 21q38 7 74 -10.5t56 -53.5l217 -570l237 569q9 22 26.5 37.5
t39 23t45.5 6t47 -11.5q32 -15 49.5 -43.5t15.5 -60.5q0 -6 -3 -19.5t-8.5 -30t-12 -33.5t-12.5 -31l-318 -692q-27 -53 -81 -64q-19 -5 -40 -3t-40 10t-34.5 22.5t-22.5 34.5zM764 1401q23 23 52 25t53 -16l175 -171q25 -26 28.5 -60t-21.5 -60q-26 -26 -61.5 -20.5
t-65.5 35.5l-103 103l-102 -103q-30 -30 -65.5 -36t-62.5 21q-15 15 -19 32.5t0.5 35t15 34t23.5 30.5z" />
    <glyph glyph-name="Ycircumflex" unicode="&#x176;" horiz-adv-x="1210" 
d="M490 624q0 24 9 45.5t24.5 37.5t37 25t46.5 9t46.5 -9t37.5 -25t25 -37.5t9 -45.5v-517q0 -25 -9 -46.5t-25 -37.5t-37.5 -25t-46.5 -9t-46.5 9t-37 25t-24.5 37.5t-9 46.5v517zM989 1240q15 19 36 28t44 8.5t45.5 -9.5t40.5 -26q17 -17 25.5 -38.5t8.5 -44t-8.5 -44.5
t-24.5 -40l-479 -573q-18 -18 -27.5 -14t-17 19t-16 36t-25.5 38q-18 18 -26.5 39t-7.5 42.5t10.5 42t27.5 38.5zM619 742q18 -18 27.5 -38.5t10.5 -42t-7.5 -42.5t-26.5 -39q-17 -17 -27 -38t-18 -35.5t-18 -17.5t-28 15l-474 570q-16 19 -24.5 40.5t-8.5 44t8 43.5t26 39
q18 17 40.5 26t45.5 9.5t44 -8.5t36 -28zM557 1660q23 23 52 25t53 -16l175 -171q25 -26 28.5 -60t-21.5 -60q-26 -26 -61.5 -20.5t-65.5 35.5l-103 103l-102 -103q-30 -30 -65.5 -36t-62.5 21q-15 15 -19 32.5t0.5 35t15 34t23.5 30.5z" />
    <glyph glyph-name="ycircumflex" unicode="&#x177;" horiz-adv-x="1010" 
d="M386 84q0 1 -14.5 32t-37.5 82t-52.5 115.5t-60.5 132.5l-164 360q-21 49 -9 95.5t60 69.5q22 10 47 11.5t48 -7t41.5 -26.5t28.5 -45l236 -602q54 138 96.5 247t72.5 187t47 122.5t21 53.5q9 21 26 37.5t38 25t45.5 8.5t50.5 -12q13 -6 29 -20t26 -34t11.5 -47
t-13.5 -59l-398 -894q-22 -50 -50.5 -89.5t-66.5 -67.5t-87 -44t-112 -18q-58 -1 -95.5 29t-37.5 87q0 28 11.5 44.5t30.5 27t43 17.5t48.5 15t48 19.5t40.5 31.5zM477 1354q23 23 52 25t53 -16l175 -171q25 -26 28.5 -60t-21.5 -60q-26 -26 -61.5 -20.5t-65.5 35.5
l-103 103l-102 -103q-30 -30 -65.5 -36t-62.5 21q-15 15 -19 32.5t0.5 35t15 34t23.5 30.5z" />
    <glyph glyph-name="Ydieresis" unicode="&#x178;" horiz-adv-x="1210" 
d="M490 624q0 24 9 45.5t24.5 37.5t37 25t46.5 9t46.5 -9t37.5 -25t25 -37.5t9 -45.5v-517q0 -25 -9 -46.5t-25 -37.5t-37.5 -25t-46.5 -9t-46.5 9t-37 25t-24.5 37.5t-9 46.5v517zM989 1240q15 19 36 28t44 8.5t45.5 -9.5t40.5 -26q17 -17 25.5 -38.5t8.5 -44t-8.5 -44.5
t-24.5 -40l-479 -573q-18 -18 -27.5 -14t-17 19t-16 36t-25.5 38q-18 18 -26.5 39t-7.5 42.5t10.5 42t27.5 38.5zM619 742q18 -18 27.5 -38.5t10.5 -42t-7.5 -42.5t-26.5 -39q-17 -17 -27 -38t-18 -35.5t-18 -17.5t-28 15l-474 570q-16 19 -24.5 40.5t-8.5 44t8 43.5t26 39
q18 17 40.5 26t45.5 9.5t44 -8.5t36 -28zM330 1483q0 22 8.5 41.5t22.5 34.5t33.5 23.5t42.5 8.5q22 0 41.5 -8.5t34.5 -23.5t23.5 -34.5t8.5 -41.5q0 -23 -8.5 -42.5t-23.5 -33.5t-34.5 -22.5t-41.5 -8.5q-23 0 -42.5 8.5t-33.5 22.5t-22.5 33.5t-8.5 42.5zM663 1483
q0 22 8.5 41.5t22.5 34.5t33.5 23.5t41.5 8.5t42 -8.5t34.5 -23.5t23 -34.5t8.5 -41.5q0 -23 -8.5 -42.5t-23 -33.5t-34.5 -22.5t-42 -8.5t-41.5 8.5t-33.5 22.5t-22.5 33.5t-8.5 42.5z" />
    <glyph glyph-name="Zacute" unicode="&#x179;" horiz-adv-x="1164" 
d="M1093 1158q0 -15 -7.5 -33.5t-18.5 -38t-24.5 -38.5t-25.5 -34l-616 -793h601q57 0 89.5 -30.5t32.5 -82.5q0 -26 -10 -47.5t-26.5 -37t-38 -24.5t-44.5 -9h-820q-36 0 -67.5 17t-44.5 53q-17 37 -6.5 76.5t39.5 80.5q76 99 157.5 203t164 209.5t164 210t158.5 203.5
l-542 -1q-25 0 -47 9t-38 25t-25 37t-9 45q0 23 8.5 44.5t24.5 38t38 26t49 9.5h762q27 0 49.5 -9.5t38.5 -26t25 -37.5t9 -45zM665 1647q23 0 42 -9.5t32 -25.5t18.5 -36.5t1.5 -42.5q-4 -19 -27.5 -43.5t-53.5 -46.5t-61 -37t-49 -15q-24 -3 -48 8q-32 14 -39 47
q-2 8 -2 16.5t2 17.5q0 15 19.5 43t47 55.5t59.5 48t58 20.5z" />
    <glyph glyph-name="zacute" unicode="&#x17a;" horiz-adv-x="1084" 
d="M962 840q0 -15 -4 -30t-13.5 -32t-27 -38t-44.5 -49l-469 -472h475q57 0 92 -25.5t35 -77.5q0 -26 -10 -46.5t-26.5 -35.5t-37.5 -23t-44 -8h-709q-37 0 -68 17t-44 53q-15 38 -7.5 83.5t48.5 82.5l531 506l-406 -2q-27 0 -50.5 6.5t-41 19.5t-28 32t-10.5 44
q0 49 34.5 81t91.5 32h610q27 0 50 -9.5t39 -26t25 -38t9 -44.5zM668 1368q23 0 42 -9.5t32 -25.5t18.5 -36.5t1.5 -42.5q-4 -19 -27.5 -43.5t-53.5 -46.5t-61 -37t-49 -15q-24 -3 -48 8q-32 14 -39 47q-2 8 -2 16.5t2 17.5q0 15 19.5 43t47 55.5t59.5 48t58 20.5z" />
    </font>
</defs>
</svg>
